<?xml version="1.0" encoding="UTF-8"?><svg id="uuid-ad6a42bb-0d66-4d0a-b11b-b2949c1ab4ea" xmlns="http://www.w3.org/2000/svg" width="4000" height="4000" viewBox="0 0 4000 4000"><g style="opacity:.3;"><ellipse cx="2005" cy="3574.58" rx="800" ry="95.55" style="fill:#210124; stroke-width:0px;"/></g><path d="m2725.1,2640.22c-241.56,284.61-728.7,613.01-996.79,370.02-50.92-46.11-119.07-67.88-187.31-59.78-359.34,42.64-566.01-507.3-597.92-879.24-102.82-1006.45,512.46-1258.74,1177.55-925.93,57.15,28.58,118.36,48.12,181.47,57.95,11.93,1.87,23.77,3.83,35.52,5.96.89.18,1.74.31,2.63.49,173.73,31.2,324.76,88.18,444.14,167.45,139.94,92.81,236.44,216.19,275.04,364.51,62.85,241.52-27.82,549.09-334.33,898.56Z" style="fill:#ff002b; stroke-width:0px;"/><path d="m1957.87,3097.33c-90.92,0-168.56-28.65-231.13-85.36-50.38-45.62-117.99-67.21-185.46-59.19-92.85,11.04-180.81-16.69-261.45-82.38-199.83-162.77-315.85-528.27-339.07-798.97-24.35-238.38-9.33-443.39,44.66-609.32,50.29-154.57,133.23-272.6,246.51-350.83,220.56-152.29,544.86-140.65,889.75,31.93,56.99,28.49,117.81,47.92,180.79,57.73,13.24,2.08,24.88,4.03,35.58,5.97l2.67.5c174.88,31.41,324.6,87.86,444.96,167.79,142.95,94.8,238.39,221.31,276.01,365.86,68.13,261.81-47.65,573.26-334.83,900.68-175.8,207.13-482.18,437.75-739.36,454.58-10.02.65-19.9.99-29.63.99Zm-388.87-150.85c59.13,0,116.53,21.88,160.87,62.04,68.29,61.89,154.82,89.84,257.32,83.17,255.82-16.74,560.91-246.55,736.13-452.98l.03-.03c286.11-326.21,401.55-636.19,333.82-896.43-37.32-143.42-132.09-268.99-274.07-363.15-119.83-79.58-268.96-135.8-443.26-167.1l-2.68-.5c-10.62-1.93-22.22-3.87-35.42-5.94-63.44-9.89-124.73-29.46-182.15-58.17-343.33-171.8-665.9-183.56-885.01-32.26-164.84,113.82-348.82,372.05-289.17,955.86,23.15,269.79,138.6,633.88,337.38,795.79,79.63,64.86,166.42,92.26,257.95,81.37,9.44-1.12,18.88-1.67,28.28-1.67Z" style="fill:#000072; stroke-width:0px;"/><g style="opacity:.3;"><path d="m2725.1,2640.22c-241.56,284.61-728.7,613.01-996.79,370.02-50.92-46.11-119.07-67.88-187.31-59.78-120.49,14.29-223.8-38.01-309.13-127.88,91.2,59.65,191.04,84.31,295.07,52.48,64.19-19.59,133.45-10.5,190.38,25.02,299.83,187.08,711.16-213.03,893.97-528.53,100.06-166.34,163.49-318.52,195.36-455.49.31-1.29.58-2.58.89-3.87.93-3.96,1.83-7.92,2.63-11.84.04-.13.09-.27.09-.4,37.97-179.83-21.14-328.09-143.95-455.62-67.26,26.22-140.52,36.81-213.88,29.64,11.4,16.65,19.72,33.92,24.44,51.54-258.7,45.62-542.51-74.29-683.7-218.33,58.22-81.9,286.61-56.26,464.52,23.55,21.37-45.4,49.23-85.73,81.99-120.4.18-.22.4-.4.58-.62,5.96,1.07,11.93,2.18,17.85,3.29,4.45.85,8.86,1.74,13.26,2.63,5.74,1.16,11.44,2.31,17.14,3.52,9.75,2.09,19.45,4.23,29.07,6.5.8.18,1.6.36,2.4.58,5.21,1.2,10.37,2.45,15.53,3.74,4.41,1.07,8.81,2.18,13.18,3.34,1.34.31,2.63.67,3.92.98,3.61.93,7.21,1.91,10.82,2.89,1.87.49,3.69.98,5.47,1.47,9.17,2.49,18.29,5.07,27.29,7.74,5.03,1.51,10.02,3.03,15,4.54,4.85,1.51,9.66,3.03,14.47,4.58,4.85,1.56,9.7,3.16,14.51,4.76,8.9,2.98,17.76,6.05,26.53,9.21,1.65.62,3.29,1.2,4.94,1.82,3.69,1.34,7.39,2.72,11.08,4.1,4.5,1.69,8.95,3.38,13.4,5.16,4.72,1.82,9.48,3.74,14.16,5.65,9.12,3.69,18.07,7.48,26.93,11.35,4.36,1.91,8.68,3.83,12.95,5.74.27.13.53.27.8.36,3.61,1.65,7.17,3.29,10.73,4.99,1.11.49,2.18,1.02,3.25,1.51,2.54,1.2,5.03,2.36,7.48,3.61,9.35,4.45,18.56,9.08,27.6,13.8,2.67,1.38,5.34,2.76,7.97,4.18,4.67,2.45,9.35,4.99,13.93,7.57,2.94,1.6,5.79,3.25,8.68,4.85,18.61,10.51,36.54,21.5,53.81,32.98,2.76,1.87,5.56,3.74,8.32,5.61,6.54,4.45,12.95,8.95,19.32,13.53,2.49,1.78,4.94,3.61,7.39,5.39,1.11.8,2.18,1.6,3.21,2.4,2.71,2.05,5.43,4.1,8.1,6.14,3.07,2.36,6.14,4.76,9.13,7.12,3.03,2.4,6.05,4.81,8.99,7.26,5.97,4.81,11.8,9.7,17.49,14.73,2.54,2.18,4.99,4.36,7.48,6.59.71.58,1.42,1.2,2.09,1.87,2.23,2,4.41,4.01,6.59,6.01,3.83,3.47,7.57,7.03,11.26,10.68,1.91,1.82,3.83,3.65,5.7,5.52,5.3,5.21,10.46,10.5,15.53,15.85.09.04.13.09.18.18,2.49,2.63,4.98,5.34,7.43,8.01,2.31,2.49,4.54,4.99,6.77,7.48,7.57,8.46,14.82,17.09,21.81,25.86,2.27,2.85,4.54,5.74,6.72,8.59,1.87,2.4,3.69,4.81,5.52,7.26,6.85,9.17,13.44,18.52,19.67,28,2,2.98,3.96,6.01,5.88,9.04,1.74,2.76,3.47,5.52,5.16,8.28,5.92,9.57,11.48,19.32,16.78,29.2,1.38,2.63,2.76,5.25,4.1,7.88.36.58.62,1.16.93,1.78,1.07,2.09,2.14,4.18,3.12,6.28.98,1.82,1.87,3.65,2.72,5.52.85,1.65,1.65,3.34,2.45,5.03,1.11,2.36,2.23,4.76,3.25,7.17,2.54,5.52,4.98,11.13,7.3,16.74,1.47,3.47,2.85,7.03,4.23,10.55,1.47,3.65,2.85,7.34,4.18,11.04.31.8.62,1.6.89,2.4,1.16,3.16,2.27,6.32,3.29,9.48,3.38,9.75,6.41,19.59,9.17,29.56.85,2.89,1.65,5.79,2.4,8.72.18.58.36,1.16.45,1.78h.04c62.85,241.48-27.82,549.05-334.33,898.56Z" style="fill:#750d37; stroke-width:0px;"/></g><g style="opacity:.3;"><path d="m2337.63,1209.22c.89.18,1.74.31,2.63.49-.18.22-.4.4-.58.62-.67-.36-1.38-.76-2.05-1.11Z" style="fill:#000072; stroke-width:0px;"/></g><g style="opacity:.3;"><path d="m2610.26,1286.22c9.12,3.69,18.07,7.48,26.93,11.35-8.86-3.92-17.85-7.7-26.93-11.35Z" style="fill:#000072; stroke-width:0px;"/></g><g style="opacity:.6;"><path d="m2750.21,1355.57c-112.39-57.95-245.75-99.53-394.68-122.67-63.12-9.79-124.32-29.38-181.47-57.95-665.09-332.77-1280.38-80.48-1177.55,925.93,24.53,285.85,152.23,676.8,373.14,823.15-253.76-114.39-400.11-544.69-426.55-852.8-102.82-1006.45,512.46-1258.74,1177.55-925.93,57.15,28.58,118.36,48.12,181.47,57.95,173.28,26.97,325.47,78.83,448.1,152.32Z" style="fill:#fff; stroke-width:0px;"/></g><path d="m1957.76,3112.56c-94.75,0-175.79-29.97-241.25-89.3-47.1-42.68-110.3-62.86-173.42-55.37-97.11,11.55-188.92-17.3-272.89-85.7-203.28-165.58-321.13-535.68-344.6-809.48-24.55-240.24-9.3-447.35,45.34-615.29,51.34-157.81,136.24-278.47,252.32-358.63,225.26-155.56,555.21-144.32,905.23,30.81,55.58,27.81,114.9,46.75,176.32,56.3,386.71,60.15,662.08,242.22,755.49,499.52,48.14,132.6,47.4,280.13-2.21,438.49-52.79,168.5-160.35,346.07-319.71,527.8-177.82,209.48-488.29,442.7-749.85,459.83-10.41.68-20.66,1.03-30.76,1.03Zm-388.74-181.31c62.89,0,123.92,23.28,171.06,66,65.13,59.02,147.97,85.69,246.15,79.26,251.42-16.46,552.31-243.58,725.48-447.63.06-.07.12-.14.19-.21,302.37-344.77,411.44-666.8,315.42-931.27-88.91-244.9-354.22-418.69-727.89-476.81-65.01-10.12-127.8-30.17-186.63-59.6-338.23-169.22-655.18-181.36-869.58-33.31-231.53,159.88-329.27,485.54-282.66,941.76,22.89,266.94,136.47,626.42,331.82,785.55,76.32,62.16,159.28,88.42,246.58,78.06,10.03-1.19,20.08-1.78,30.07-1.78Z" style="fill:#210124; stroke-width:0px;"/><path d="m2154.21,1519.97c134.71-289.2,148.41-570.12,81.13-830.01-6.45-24.91-31.91-39.86-56.84-33.48l-116.36,29.77c-25.89,6.62-37.44,36.83-22.61,59.06,151.23,226.79,171.42,473.78,27.56,745.95" style="fill:#ef701b; stroke-width:0px;"/><path d="m2156.32,1520.96l-4.23-1.97c126.01-270.53,153.26-549.25,80.99-828.43-6.11-23.6-30.34-37.87-54-31.81l-116.35,29.77c-11.59,2.96-20.69,11.07-24.97,22.23-4.28,11.18-2.93,23.31,3.72,33.28,76.98,115.45,118.98,235.62,124.83,357.14,6.06,126.15-26.62,257.76-97.15,391.19l-4.13-2.18c137.43-260,128.2-510.17-27.43-743.57-7.5-11.25-9.02-24.92-4.19-37.53,4.83-12.59,15.09-21.74,28.16-25.08l116.35-29.77c26.14-6.69,52.92,9.08,59.67,35.16,72.55,280.26,45.21,560.04-81.27,831.58Z" style="fill:#000072; stroke-width:0px;"/><g style="opacity:.6;"><path d="m2095.62,1489.77l62.14,22.39c-1.16,2.58-2.36,5.21-3.56,7.79l-87.11-28.67c143.86-272.19,123.7-519.18-27.55-745.97-14.82-22.21-3.29-52.43,22.61-59.07l116.35-29.78c12.69-3.25,25.5-.98,35.88,5.39l-101.71,23.1c-26.08,5.88-38.41,35.79-24.21,58.4,144.97,230.84,158.42,478.28,7.17,746.41Z" style="fill:#fff; stroke-width:0px;"/></g><path d="m2154.2,1537.53c-2.48,0-5-.53-7.4-1.65-8.79-4.09-12.59-14.53-8.5-23.32,124.48-267.24,151.42-542.52,80.05-818.19-4.01-15.49-19.93-24.86-35.49-20.88l-116.35,29.77c-6.74,1.73-12.04,6.44-14.53,12.94-2.5,6.51-1.71,13.57,2.17,19.38,78.54,117.78,121.39,240.53,127.37,364.85,6.2,128.91-27.08,263.16-98.9,399.04-4.53,8.56-15.15,11.84-23.72,7.31-8.57-4.53-11.85-15.15-7.31-23.72,136.51-258.26,127.8-496.4-26.64-728.01-10.12-15.18-12.26-34.4-5.74-51.42,6.52-17.01,20.95-29.86,38.6-34.38l116.36-29.77c34.27-8.75,69.33,11.91,78.17,46.08,73.46,283.77,45.8,567-82.21,841.82-2.98,6.39-9.31,10.14-15.92,10.14Z" style="fill:#210124; stroke-width:0px;"/><path d="m2920.32,1119.9c-107.06,233.47-383.15,336-616.67,228.93-25.01-11.47-48.47-24.83-70.36-39.94,5.97-19.66,13.37-39.15,22.16-58.33,107.06-233.47,383.17-335.95,616.65-228.89,25.01,11.47,48.51,24.85,70.38,39.99-5.99,19.6-13.37,39.05-22.16,58.23Z" style="fill:#73c612; stroke-width:0px;"/><path d="m2496.82,1393.48c-65.1,0-131.19-13.66-194.14-42.52-24.81-11.38-48.6-24.88-70.71-40.14l-1.4-.97.5-1.63c6-19.77,13.5-39.49,22.27-58.63,107.43-234.28,385.44-337.49,619.74-230.03,24.92,11.42,48.71,24.95,70.73,40.2l1.4.97-.5,1.63c-6.06,19.81-13.55,39.5-22.27,58.52-78.57,171.35-248.41,272.6-425.62,272.6Zm-260.79-85.53c21.49,14.7,44.56,27.74,68.6,38.77,231.96,106.36,507.21,4.18,613.57-227.78,8.4-18.31,15.64-37.25,21.55-56.31-21.4-14.7-44.48-27.75-68.62-38.82-231.97-106.36-507.2-4.2-613.55,227.74-8.44,18.42-15.69,37.39-21.55,56.41Z" style="fill:#000072; stroke-width:0px;"/><g style="opacity:.3;"><path d="m2942.49,1061.66c-6.01,19.63-13.4,39.04-22.17,58.22-107.05,233.51-383.16,336.02-616.66,228.97-25.01-11.48-48.47-24.84-70.37-39.97,4.05-13.26,8.73-26.48,14.07-39.57,9.35,5.12,18.96,9.93,28.8,14.42,233.51,107.05,509.61,4.54,616.66-228.97,2.85-6.19,5.56-12.46,8.06-18.69,14.47,7.88,28.31,16.42,41.62,25.59Z" style="fill:#000072; stroke-width:0px;"/></g><g style="opacity:.6;"><path d="m2942.49,1061.66c-1.51,4.9-3.07,9.79-4.76,14.69-13.89-8.28-28.35-15.85-43.35-22.7-233.51-107.09-509.61-4.58-616.66,228.88-6.59,14.38-12.42,28.93-17.45,43.62-9.26-5.47-18.25-11.22-26.97-17.27,5.97-19.63,13.35-39.13,22.17-58.31,107.05-233.46,383.16-335.93,616.66-228.88,24.97,11.44,48.47,24.84,70.37,39.97Z" style="fill:#fff; stroke-width:0px;"/></g><path d="m2496.79,1408.69c-67.23,0-135.46-14.1-200.46-43.91-25.61-11.75-50.18-25.69-73.01-41.45-6.29-4.34-9.05-12.24-6.83-19.55,6.2-20.42,13.94-40.79,23-60.55,110.93-241.9,397.99-348.45,639.91-237.52,25.73,11.79,50.3,25.76,73.06,41.52,6.28,4.35,9.02,12.26,6.79,19.56-6.25,20.46-13.99,40.79-22.99,60.41h0c-81.13,176.93-256.49,281.47-439.48,281.47Zm-242.75-107.04c18.05,11.67,37.15,22.15,56.93,31.23,224.33,102.87,490.53,4.04,593.4-220.29h0c6.54-14.26,12.36-28.92,17.36-43.71-17.99-11.67-37.09-22.15-56.94-31.25-224.33-102.86-490.52-4.06-593.38,220.25-6.57,14.34-12.39,29.01-17.37,43.78Zm666.28-181.75h.05-.05Z" style="fill:#210124; stroke-width:0px;"/><path d="m2325.03,1558.6c-202.95,0-389.92-84.41-557.71-252.22-6.86-6.85-6.85-17.96,0-24.82,6.86-6.85,17.97-6.85,24.82,0,205.28,205.3,440.04,280.42,697.77,223.26,9.45-2.09,18.84,3.87,20.94,13.34,2.1,9.46-3.87,18.83-13.33,20.93-58.66,13.01-116.2,19.51-172.48,19.51Z" style="fill:#210124; stroke-width:0px;"/><path d="m2227.14,1292.46l138.48-51.82c46.23-17.09,92.16-34.99,138.12-52.79,45.94-17.87,92.73-33.45,139.67-48.65,46.99-15.05,94.24-29.42,142.28-41.67,2.36-.6,4.77.82,5.37,3.18.52,2.05-.48,4.12-2.29,5.03-44.28,22.29-89.36,42.46-134.69,61.96-45.39,19.34-90.91,38.31-137.3,54.98-46.36,16.74-92.76,33.39-138.85,50.84l-138.48,51.82c-9.08,3.4-19.19-1.21-22.59-10.29-3.4-9.08,1.21-19.19,10.29-22.59Z" style="fill:#210124; stroke-width:0px;"/><path d="m2601.06,1157.74l129.87,55.29c2.24.95,3.28,3.54,2.33,5.78-.84,1.98-2.97,3.02-5,2.58l-137.88-30.21c-9.51-2.08-15.53-11.48-13.45-20.99,2.08-9.51,11.48-15.53,20.99-13.45,1.06.23,2.17.6,3.13,1Z" style="fill:#210124; stroke-width:0px;"/><path d="m2520.47,1116.49l-84.55,132.45c-5.23,8.2-16.12,10.6-24.32,5.37-8.2-5.23-10.6-16.12-5.37-24.32.52-.82,1.17-1.65,1.79-2.35l105.48-116.48c1.63-1.8,4.42-1.94,6.22-.31,1.62,1.46,1.89,3.86.76,5.63Z" style="fill:#210124; stroke-width:0px;"/><g style="opacity:.19;"><circle cx="1379.82" cy="2422.16" r="94.84" transform="translate(-1308.58 1685.12) rotate(-45)" style="fill:#fff; stroke-width:0px;"/></g><g style="opacity:.19;"><path d="m1201.31,1646.01c-93.74,173.43-104.19,351.69-31.05,520.58,22.47,51.88,83.5,74.88,135.06,51.7h0c49.51-22.26,72.82-79.38,53.19-130-49.72-128.21-54.54-260.31-14.37-380.59,14.62-43.77-11.69-90.59-56.68-100.85h0c-34.25-7.81-69.45,8.26-86.16,39.16Z" style="fill:#fff; stroke-width:0px;"/></g><g style="opacity:.3;"><path d="m2741.88,1350.68c14.02,8.15,27.69,16.65,40.95,25.46-13.27-8.77-26.93-17.23-40.95-25.46Z" style="fill:#000072; stroke-width:0px;"/></g><g style="opacity:.3;"><path d="m2806.6,1916.11c.31-1.29.62-2.63.93-3.92-.31,1.29-.58,2.58-.89,3.87l-.04.04Z" style="fill:#000072; stroke-width:0px;"/></g><g style="opacity:.3;"><path d="m2899.45,1470.01c5.3,5.21,10.5,10.5,15.53,15.85-5.07-5.34-10.24-10.64-15.53-15.85Z" style="fill:#000072; stroke-width:0px;"/></g><g style="opacity:.3;"><path d="m3059.43,1741.67h-.04c-.09-.62-.27-1.2-.45-1.78.18.58.36,1.2.49,1.78Z" style="fill:#000072; stroke-width:0px;"/></g><g style="opacity:.3;"><path d="m2253.63,1308.9c169.61-189.61,365.65-281.16,599.79-231.34l-599.79,231.34Z" style="fill:#210124; stroke-width:0px;"/></g><g style="opacity:.25;"><path d="m2424.13,1724.56c-21.94,71.36-197.52,80.7-392.18,20.86-194.66-59.84-334.68-166.2-312.74-237.56,21.94-71.36,157.8,48.51,352.46,108.35,194.66,59.84,374.4,36.98,352.46,108.35Z" style="fill:#fff; stroke-width:0px;"/></g></svg>