<?xml version="1.0" encoding="UTF-8"?><svg xmlns="http://www.w3.org/2000/svg" width="901.5" height="601.5" viewBox="0 0 901.5 601.5"><g id="uuid-dfc3a2be-0342-4154-88dd-c90e14db5dc3"><rect x="1" y="1" width="900" height="600" style="fill:#b3dec1; stroke-width:0px;"/></g><g id="uuid-2aa31633-0a75-4de3-8d13-7ee7fd2ece8d"><g style="opacity:.1;"><rect x="871.5" y="571.5" width="30" height="30" style="fill:#334f39; stroke-width:0px;"/><rect x="811.5" y="571.5" width="30" height="30" style="fill:#334f39; stroke-width:0px;"/><rect x="751.5" y="571.5" width="30" height="30" style="fill:#334f39; stroke-width:0px;"/><rect x="691.5" y="571.5" width="30" height="30" style="fill:#334f39; stroke-width:0px;"/><rect x="631.5" y="571.5" width="30" height="30" style="fill:#334f39; stroke-width:0px;"/><rect x="571.5" y="571.5" width="30" height="30" style="fill:#334f39; stroke-width:0px;"/><rect x="511.5" y="571.5" width="30" height="30" style="fill:#334f39; stroke-width:0px;"/><rect x="451.5" y="571.5" width="30" height="30" style="fill:#334f39; stroke-width:0px;"/><rect x="391.5" y="571.5" width="30" height="30" style="fill:#334f39; stroke-width:0px;"/><rect x="331.5" y="571.5" width="30" height="30" style="fill:#334f39; stroke-width:0px;"/><rect x="271.5" y="571.5" width="30" height="30" style="fill:#334f39; stroke-width:0px;"/><rect x="211.5" y="571.5" width="30" height="30" style="fill:#334f39; stroke-width:0px;"/><rect x="151.5" y="571.5" width="30" height="30" style="fill:#334f39; stroke-width:0px;"/><rect x="91.5" y="571.5" width="30" height="30" style="fill:#334f39; stroke-width:0px;"/><rect x="31.5" y="571.5" width="30" height="30" style="fill:#334f39; stroke-width:0px;"/><rect x="841.5" y="541.5" width="30" height="30" style="fill:#334f39; stroke-width:0px;"/><rect x="781.5" y="541.5" width="30" height="30" style="fill:#334f39; stroke-width:0px;"/><rect x="721.5" y="541.5" width="30" height="30" style="fill:#334f39; stroke-width:0px;"/><rect x="661.5" y="541.5" width="30" height="30" style="fill:#334f39; stroke-width:0px;"/><rect x="601.5" y="541.5" width="30" height="30" style="fill:#334f39; stroke-width:0px;"/><rect x="541.5" y="541.5" width="30" height="30" style="fill:#334f39; stroke-width:0px;"/><rect x="481.5" y="541.5" width="30" height="30" style="fill:#334f39; stroke-width:0px;"/><rect x="421.5" y="541.5" width="30" height="30" style="fill:#334f39; stroke-width:0px;"/><rect x="361.5" y="541.5" width="30" height="30" style="fill:#334f39; stroke-width:0px;"/><rect x="301.5" y="541.5" width="30" height="30" style="fill:#334f39; stroke-width:0px;"/><rect x="241.5" y="541.5" width="30" height="30" style="fill:#334f39; stroke-width:0px;"/><rect x="181.5" y="541.5" width="30" height="30" style="fill:#334f39; stroke-width:0px;"/><rect x="121.5" y="541.5" width="30" height="30" style="fill:#334f39; stroke-width:0px;"/><rect x="61.5" y="541.5" width="30" height="30" style="fill:#334f39; stroke-width:0px;"/><rect x="1.5" y="541.5" width="30" height="30" style="fill:#334f39; stroke-width:0px;"/><rect x="871.5" y="511.5" width="30" height="30" style="fill:#334f39; stroke-width:0px;"/><rect x="811.5" y="511.5" width="30" height="30" style="fill:#334f39; stroke-width:0px;"/><rect x="751.5" y="511.5" width="30" height="30" style="fill:#334f39; stroke-width:0px;"/><rect x="691.5" y="511.5" width="30" height="30" style="fill:#334f39; stroke-width:0px;"/><rect x="631.5" y="511.5" width="30" height="30" style="fill:#334f39; stroke-width:0px;"/><rect x="571.5" y="511.5" width="30" height="30" style="fill:#334f39; stroke-width:0px;"/><rect x="511.5" y="511.5" width="30" height="30" style="fill:#334f39; stroke-width:0px;"/><rect x="451.5" y="511.5" width="30" height="30" style="fill:#334f39; stroke-width:0px;"/><rect x="391.5" y="511.5" width="30" height="30" style="fill:#334f39; stroke-width:0px;"/><rect x="331.5" y="511.5" width="30" height="30" style="fill:#334f39; stroke-width:0px;"/><rect x="271.5" y="511.5" width="30" height="30" style="fill:#334f39; stroke-width:0px;"/><rect x="211.5" y="511.5" width="30" height="30" style="fill:#334f39; stroke-width:0px;"/><rect x="151.5" y="511.5" width="30" height="30" style="fill:#334f39; stroke-width:0px;"/><rect x="91.5" y="511.5" width="30" height="30" style="fill:#334f39; stroke-width:0px;"/><rect x="31.5" y="511.5" width="30" height="30" style="fill:#334f39; stroke-width:0px;"/><rect x="841.5" y="481.5" width="30" height="30" style="fill:#334f39; stroke-width:0px;"/><rect x="781.5" y="481.5" width="30" height="30" style="fill:#334f39; stroke-width:0px;"/><rect x="721.5" y="481.5" width="30" height="30" style="fill:#334f39; stroke-width:0px;"/><rect x="661.5" y="481.5" width="30" height="30" style="fill:#334f39; stroke-width:0px;"/><rect x="601.5" y="481.5" width="30" height="30" style="fill:#334f39; stroke-width:0px;"/><rect x="541.5" y="481.5" width="30" height="30" style="fill:#334f39; stroke-width:0px;"/><rect x="481.5" y="481.5" width="30" height="30" style="fill:#334f39; stroke-width:0px;"/><rect x="421.5" y="481.5" width="30" height="30" style="fill:#334f39; stroke-width:0px;"/><rect x="361.5" y="481.5" width="30" height="30" style="fill:#334f39; stroke-width:0px;"/><rect x="301.5" y="481.5" width="30" height="30" style="fill:#334f39; stroke-width:0px;"/><rect x="241.5" y="481.5" width="30" height="30" style="fill:#334f39; stroke-width:0px;"/><rect x="181.5" y="481.5" width="30" height="30" style="fill:#334f39; stroke-width:0px;"/><rect x="121.5" y="481.5" width="30" height="30" style="fill:#334f39; stroke-width:0px;"/><rect x="61.5" y="481.5" width="30" height="30" style="fill:#334f39; stroke-width:0px;"/><rect x="1.5" y="481.5" width="30" height="30" style="fill:#334f39; stroke-width:0px;"/><rect x="871.5" y="451.5" width="30" height="30" style="fill:#334f39; stroke-width:0px;"/><rect x="811.5" y="451.5" width="30" height="30" style="fill:#334f39; stroke-width:0px;"/><rect x="751.5" y="451.5" width="30" height="30" style="fill:#334f39; stroke-width:0px;"/><rect x="691.5" y="451.5" width="30" height="30" style="fill:#334f39; stroke-width:0px;"/><rect x="631.5" y="451.5" width="30" height="30" style="fill:#334f39; stroke-width:0px;"/><rect x="571.5" y="451.5" width="30" height="30" style="fill:#334f39; stroke-width:0px;"/><rect x="511.5" y="451.5" width="30" height="30" style="fill:#334f39; stroke-width:0px;"/><rect x="451.5" y="451.5" width="30" height="30" style="fill:#334f39; stroke-width:0px;"/><rect x="391.5" y="451.5" width="30" height="30" style="fill:#334f39; stroke-width:0px;"/><rect x="331.5" y="451.5" width="30" height="30" style="fill:#334f39; stroke-width:0px;"/><rect x="271.5" y="451.5" width="30" height="30" style="fill:#334f39; stroke-width:0px;"/><rect x="211.5" y="451.5" width="30" height="30" style="fill:#334f39; stroke-width:0px;"/><rect x="151.5" y="451.5" width="30" height="30" style="fill:#334f39; stroke-width:0px;"/><rect x="91.5" y="451.5" width="30" height="30" style="fill:#334f39; stroke-width:0px;"/><rect x="31.5" y="451.5" width="30" height="30" style="fill:#334f39; stroke-width:0px;"/><rect x="841.5" y="421.5" width="30" height="30" style="fill:#334f39; stroke-width:0px;"/><rect x="781.5" y="421.5" width="30" height="30" style="fill:#334f39; stroke-width:0px;"/><rect x="721.5" y="421.5" width="30" height="30" style="fill:#334f39; stroke-width:0px;"/><rect x="661.5" y="421.5" width="30" height="30" style="fill:#334f39; stroke-width:0px;"/><rect x="601.5" y="421.5" width="30" height="30" style="fill:#334f39; stroke-width:0px;"/><rect x="541.5" y="421.5" width="30" height="30" style="fill:#334f39; stroke-width:0px;"/><rect x="481.5" y="421.5" width="30" height="30" style="fill:#334f39; stroke-width:0px;"/><rect x="421.5" y="421.5" width="30" height="30" style="fill:#334f39; stroke-width:0px;"/><rect x="361.5" y="421.5" width="30" height="30" style="fill:#334f39; stroke-width:0px;"/><rect x="301.5" y="421.5" width="30" height="30" style="fill:#334f39; stroke-width:0px;"/><rect x="241.5" y="421.5" width="30" height="30" style="fill:#334f39; stroke-width:0px;"/><rect x="181.5" y="421.5" width="30" height="30" style="fill:#334f39; stroke-width:0px;"/><rect x="121.5" y="421.5" width="30" height="30" style="fill:#334f39; stroke-width:0px;"/><rect x="61.5" y="421.5" width="30" height="30" style="fill:#334f39; stroke-width:0px;"/><rect x="1.5" y="421.5" width="30" height="30" style="fill:#334f39; stroke-width:0px;"/><rect x="871.5" y="391.5" width="30" height="30" style="fill:#334f39; stroke-width:0px;"/><rect x="811.5" y="391.5" width="30" height="30" style="fill:#334f39; stroke-width:0px;"/><rect x="751.5" y="391.5" width="30" height="30" style="fill:#334f39; stroke-width:0px;"/><rect x="691.5" y="391.5" width="30" height="30" style="fill:#334f39; stroke-width:0px;"/><rect x="631.5" y="391.5" width="30" height="30" style="fill:#334f39; stroke-width:0px;"/><rect x="571.5" y="391.5" width="30" height="30" style="fill:#334f39; stroke-width:0px;"/><rect x="511.5" y="391.5" width="30" height="30" style="fill:#334f39; stroke-width:0px;"/><rect x="451.5" y="391.5" width="30" height="30" style="fill:#334f39; stroke-width:0px;"/><rect x="391.5" y="391.5" width="30" height="30" style="fill:#334f39; stroke-width:0px;"/><rect x="331.5" y="391.5" width="30" height="30" style="fill:#334f39; stroke-width:0px;"/><rect x="271.5" y="391.5" width="30" height="30" style="fill:#334f39; stroke-width:0px;"/><rect x="211.5" y="391.5" width="30" height="30" style="fill:#334f39; stroke-width:0px;"/><rect x="151.5" y="391.5" width="30" height="30" style="fill:#334f39; stroke-width:0px;"/><rect x="91.5" y="391.5" width="30" height="30" style="fill:#334f39; stroke-width:0px;"/><rect x="31.5" y="391.5" width="30" height="30" style="fill:#334f39; stroke-width:0px;"/><rect x="841.5" y="361.5" width="30" height="30" style="fill:#334f39; stroke-width:0px;"/><rect x="781.5" y="361.5" width="30" height="30" style="fill:#334f39; stroke-width:0px;"/><rect x="721.5" y="361.5" width="30" height="30" style="fill:#334f39; stroke-width:0px;"/><rect x="661.5" y="361.5" width="30" height="30" style="fill:#334f39; stroke-width:0px;"/><rect x="601.5" y="361.5" width="30" height="30" style="fill:#334f39; stroke-width:0px;"/><rect x="541.5" y="361.5" width="30" height="30" style="fill:#334f39; stroke-width:0px;"/><rect x="481.5" y="361.5" width="30" height="30" style="fill:#334f39; stroke-width:0px;"/><rect x="421.5" y="361.5" width="30" height="30" style="fill:#334f39; stroke-width:0px;"/><rect x="361.5" y="361.5" width="30" height="30" style="fill:#334f39; stroke-width:0px;"/><rect x="301.5" y="361.5" width="30" height="30" style="fill:#334f39; stroke-width:0px;"/><rect x="241.5" y="361.5" width="30" height="30" style="fill:#334f39; stroke-width:0px;"/><rect x="181.5" y="361.5" width="30" height="30" style="fill:#334f39; stroke-width:0px;"/><rect x="121.5" y="361.5" width="30" height="30" style="fill:#334f39; stroke-width:0px;"/><rect x="61.5" y="361.5" width="30" height="30" style="fill:#334f39; stroke-width:0px;"/><rect x="1.5" y="361.5" width="30" height="30" style="fill:#334f39; stroke-width:0px;"/><rect x="871.5" y="331.5" width="30" height="30" style="fill:#334f39; stroke-width:0px;"/><rect x="811.5" y="331.5" width="30" height="30" style="fill:#334f39; stroke-width:0px;"/><rect x="751.5" y="331.5" width="30" height="30" style="fill:#334f39; stroke-width:0px;"/><rect x="691.5" y="331.5" width="30" height="30" style="fill:#334f39; stroke-width:0px;"/><rect x="631.5" y="331.5" width="30" height="30" style="fill:#334f39; stroke-width:0px;"/><rect x="571.5" y="331.5" width="30" height="30" style="fill:#334f39; stroke-width:0px;"/><rect x="511.5" y="331.5" width="30" height="30" style="fill:#334f39; stroke-width:0px;"/><rect x="451.5" y="331.5" width="30" height="30" style="fill:#334f39; stroke-width:0px;"/><rect x="391.5" y="331.5" width="30" height="30" style="fill:#334f39; stroke-width:0px;"/><rect x="331.5" y="331.5" width="30" height="30" style="fill:#334f39; stroke-width:0px;"/><rect x="271.5" y="331.5" width="30" height="30" style="fill:#334f39; stroke-width:0px;"/><rect x="211.5" y="331.5" width="30" height="30" style="fill:#334f39; stroke-width:0px;"/><rect x="151.5" y="331.5" width="30" height="30" style="fill:#334f39; stroke-width:0px;"/><rect x="91.5" y="331.5" width="30" height="30" style="fill:#334f39; stroke-width:0px;"/><rect x="31.5" y="331.5" width="30" height="30" style="fill:#334f39; stroke-width:0px;"/><rect x="841.5" y="301.5" width="30" height="30" style="fill:#334f39; stroke-width:0px;"/><rect x="781.5" y="301.5" width="30" height="30" style="fill:#334f39; stroke-width:0px;"/><rect x="721.5" y="301.5" width="30" height="30" style="fill:#334f39; stroke-width:0px;"/><rect x="661.5" y="301.5" width="30" height="30" style="fill:#334f39; stroke-width:0px;"/><rect x="601.5" y="301.5" width="30" height="30" style="fill:#334f39; stroke-width:0px;"/><rect x="541.5" y="301.5" width="30" height="30" style="fill:#334f39; stroke-width:0px;"/><rect x="481.5" y="301.5" width="30" height="30" style="fill:#334f39; stroke-width:0px;"/><rect x="421.5" y="301.5" width="30" height="30" style="fill:#334f39; stroke-width:0px;"/><rect x="361.5" y="301.5" width="30" height="30" style="fill:#334f39; stroke-width:0px;"/><rect x="301.5" y="301.5" width="30" height="30" style="fill:#334f39; stroke-width:0px;"/><rect x="241.5" y="301.5" width="30" height="30" style="fill:#334f39; stroke-width:0px;"/><rect x="181.5" y="301.5" width="30" height="30" style="fill:#334f39; stroke-width:0px;"/><rect x="121.5" y="301.5" width="30" height="30" style="fill:#334f39; stroke-width:0px;"/><rect x="61.5" y="301.5" width="30" height="30" style="fill:#334f39; stroke-width:0px;"/><rect x="1.5" y="301.5" width="30" height="30" style="fill:#334f39; stroke-width:0px;"/><rect x="871.5" y="271.5" width="30" height="30" style="fill:#334f39; stroke-width:0px;"/><rect x="811.5" y="271.5" width="30" height="30" style="fill:#334f39; stroke-width:0px;"/><rect x="751.5" y="271.5" width="30" height="30" style="fill:#334f39; stroke-width:0px;"/><rect x="691.5" y="271.5" width="30" height="30" style="fill:#334f39; stroke-width:0px;"/><rect x="631.5" y="271.5" width="30" height="30" style="fill:#334f39; stroke-width:0px;"/><rect x="571.5" y="271.5" width="30" height="30" style="fill:#334f39; stroke-width:0px;"/><rect x="511.5" y="271.5" width="30" height="30" style="fill:#334f39; stroke-width:0px;"/><rect x="451.5" y="271.5" width="30" height="30" style="fill:#334f39; stroke-width:0px;"/><rect x="391.5" y="271.5" width="30" height="30" style="fill:#334f39; stroke-width:0px;"/><rect x="331.5" y="271.5" width="30" height="30" style="fill:#334f39; stroke-width:0px;"/><rect x="271.5" y="271.5" width="30" height="30" style="fill:#334f39; stroke-width:0px;"/><rect x="211.5" y="271.5" width="30" height="30" style="fill:#334f39; stroke-width:0px;"/><rect x="151.5" y="271.5" width="30" height="30" style="fill:#334f39; stroke-width:0px;"/><rect x="91.5" y="271.5" width="30" height="30" style="fill:#334f39; stroke-width:0px;"/><rect x="31.5" y="271.5" width="30" height="30" style="fill:#334f39; stroke-width:0px;"/><rect x="841.5" y="241.5" width="30" height="30" style="fill:#334f39; stroke-width:0px;"/><rect x="781.5" y="241.5" width="30" height="30" style="fill:#334f39; stroke-width:0px;"/><rect x="721.5" y="241.5" width="30" height="30" style="fill:#334f39; stroke-width:0px;"/><rect x="661.5" y="241.5" width="30" height="30" style="fill:#334f39; stroke-width:0px;"/><rect x="601.5" y="241.5" width="30" height="30" style="fill:#334f39; stroke-width:0px;"/><rect x="541.5" y="241.5" width="30" height="30" style="fill:#334f39; stroke-width:0px;"/><rect x="481.5" y="241.5" width="30" height="30" style="fill:#334f39; stroke-width:0px;"/><rect x="421.5" y="241.5" width="30" height="30" style="fill:#334f39; stroke-width:0px;"/><rect x="361.5" y="241.5" width="30" height="30" style="fill:#334f39; stroke-width:0px;"/><rect x="301.5" y="241.5" width="30" height="30" style="fill:#334f39; stroke-width:0px;"/><rect x="241.5" y="241.5" width="30" height="30" style="fill:#334f39; stroke-width:0px;"/><rect x="181.5" y="241.5" width="30" height="30" style="fill:#334f39; stroke-width:0px;"/><rect x="121.5" y="241.5" width="30" height="30" style="fill:#334f39; stroke-width:0px;"/><rect x="61.5" y="241.5" width="30" height="30" style="fill:#334f39; stroke-width:0px;"/><rect x="1.5" y="241.5" width="30" height="30" style="fill:#334f39; stroke-width:0px;"/><rect x="871.5" y="211.5" width="30" height="30" style="fill:#334f39; stroke-width:0px;"/><rect x="811.5" y="211.5" width="30" height="30" style="fill:#334f39; stroke-width:0px;"/><rect x="751.5" y="211.5" width="30" height="30" style="fill:#334f39; stroke-width:0px;"/><rect x="691.5" y="211.5" width="30" height="30" style="fill:#334f39; stroke-width:0px;"/><rect x="631.5" y="211.5" width="30" height="30" style="fill:#334f39; stroke-width:0px;"/><rect x="571.5" y="211.5" width="30" height="30" style="fill:#334f39; stroke-width:0px;"/><rect x="511.5" y="211.5" width="30" height="30" style="fill:#334f39; stroke-width:0px;"/><rect x="451.5" y="211.5" width="30" height="30" style="fill:#334f39; stroke-width:0px;"/><rect x="391.5" y="211.5" width="30" height="30" style="fill:#334f39; stroke-width:0px;"/><rect x="331.5" y="211.5" width="30" height="30" style="fill:#334f39; stroke-width:0px;"/><rect x="271.5" y="211.5" width="30" height="30" style="fill:#334f39; stroke-width:0px;"/><rect x="211.5" y="211.5" width="30" height="30" style="fill:#334f39; stroke-width:0px;"/><rect x="151.5" y="211.5" width="30" height="30" style="fill:#334f39; stroke-width:0px;"/><rect x="91.5" y="211.5" width="30" height="30" style="fill:#334f39; stroke-width:0px;"/><rect x="31.5" y="211.5" width="30" height="30" style="fill:#334f39; stroke-width:0px;"/><rect x="841.5" y="181.5" width="30" height="30" style="fill:#334f39; stroke-width:0px;"/><rect x="781.5" y="181.5" width="30" height="30" style="fill:#334f39; stroke-width:0px;"/><rect x="721.5" y="181.5" width="30" height="30" style="fill:#334f39; stroke-width:0px;"/><rect x="661.5" y="181.5" width="30" height="30" style="fill:#334f39; stroke-width:0px;"/><rect x="601.5" y="181.5" width="30" height="30" style="fill:#334f39; stroke-width:0px;"/><rect x="541.5" y="181.5" width="30" height="30" style="fill:#334f39; stroke-width:0px;"/><rect x="481.5" y="181.5" width="30" height="30" style="fill:#334f39; stroke-width:0px;"/><rect x="421.5" y="181.5" width="30" height="30" style="fill:#334f39; stroke-width:0px;"/><rect x="361.5" y="181.5" width="30" height="30" style="fill:#334f39; stroke-width:0px;"/><rect x="301.5" y="181.5" width="30" height="30" style="fill:#334f39; stroke-width:0px;"/><rect x="241.5" y="181.5" width="30" height="30" style="fill:#334f39; stroke-width:0px;"/><rect x="181.5" y="181.5" width="30" height="30" style="fill:#334f39; stroke-width:0px;"/><rect x="121.5" y="181.5" width="30" height="30" style="fill:#334f39; stroke-width:0px;"/><rect x="61.5" y="181.5" width="30" height="30" style="fill:#334f39; stroke-width:0px;"/><rect x="1.5" y="181.5" width="30" height="30" style="fill:#334f39; stroke-width:0px;"/><rect x="871.5" y="151.5" width="30" height="30" style="fill:#334f39; stroke-width:0px;"/><rect x="811.5" y="151.5" width="30" height="30" style="fill:#334f39; stroke-width:0px;"/><rect x="751.5" y="151.5" width="30" height="30" style="fill:#334f39; stroke-width:0px;"/><rect x="691.5" y="151.5" width="30" height="30" style="fill:#334f39; stroke-width:0px;"/><rect x="631.5" y="151.5" width="30" height="30" style="fill:#334f39; stroke-width:0px;"/><rect x="571.5" y="151.5" width="30" height="30" style="fill:#334f39; stroke-width:0px;"/><rect x="511.5" y="151.5" width="30" height="30" style="fill:#334f39; stroke-width:0px;"/><rect x="451.5" y="151.5" width="30" height="30" style="fill:#334f39; stroke-width:0px;"/><rect x="391.5" y="151.5" width="30" height="30" style="fill:#334f39; stroke-width:0px;"/><rect x="331.5" y="151.5" width="30" height="30" style="fill:#334f39; stroke-width:0px;"/><rect x="271.5" y="151.5" width="30" height="30" style="fill:#334f39; stroke-width:0px;"/><rect x="211.5" y="151.5" width="30" height="30" style="fill:#334f39; stroke-width:0px;"/><rect x="151.5" y="151.5" width="30" height="30" style="fill:#334f39; stroke-width:0px;"/><rect x="91.5" y="151.5" width="30" height="30" style="fill:#334f39; stroke-width:0px;"/><rect x="31.5" y="151.5" width="30" height="30" style="fill:#334f39; stroke-width:0px;"/><rect x="841.5" y="121.5" width="30" height="30" style="fill:#334f39; stroke-width:0px;"/><rect x="781.5" y="121.5" width="30" height="30" style="fill:#334f39; stroke-width:0px;"/><rect x="721.5" y="121.5" width="30" height="30" style="fill:#334f39; stroke-width:0px;"/><rect x="661.5" y="121.5" width="30" height="30" style="fill:#334f39; stroke-width:0px;"/><rect x="601.5" y="121.5" width="30" height="30" style="fill:#334f39; stroke-width:0px;"/><rect x="541.5" y="121.5" width="30" height="30" style="fill:#334f39; stroke-width:0px;"/><rect x="481.5" y="121.5" width="30" height="30" style="fill:#334f39; stroke-width:0px;"/><rect x="421.5" y="121.5" width="30" height="30" style="fill:#334f39; stroke-width:0px;"/><rect x="361.5" y="121.5" width="30" height="30" style="fill:#334f39; stroke-width:0px;"/><rect x="301.5" y="121.5" width="30" height="30" style="fill:#334f39; stroke-width:0px;"/><rect x="241.5" y="121.5" width="30" height="30" style="fill:#334f39; stroke-width:0px;"/><rect x="181.5" y="121.5" width="30" height="30" style="fill:#334f39; stroke-width:0px;"/><rect x="121.5" y="121.5" width="30" height="30" style="fill:#334f39; stroke-width:0px;"/><rect x="61.5" y="121.5" width="30" height="30" style="fill:#334f39; stroke-width:0px;"/><rect x="1.5" y="121.5" width="30" height="30" style="fill:#334f39; stroke-width:0px;"/><rect x="871.5" y="91.5" width="30" height="30" style="fill:#334f39; stroke-width:0px;"/><rect x="811.5" y="91.5" width="30" height="30" style="fill:#334f39; stroke-width:0px;"/><rect x="751.5" y="91.5" width="30" height="30" style="fill:#334f39; stroke-width:0px;"/><rect x="691.5" y="91.5" width="30" height="30" style="fill:#334f39; stroke-width:0px;"/><rect x="631.5" y="91.5" width="30" height="30" style="fill:#334f39; stroke-width:0px;"/><rect x="571.5" y="91.5" width="30" height="30" style="fill:#334f39; stroke-width:0px;"/><rect x="511.5" y="91.5" width="30" height="30" style="fill:#334f39; stroke-width:0px;"/><rect x="451.5" y="91.5" width="30" height="30" style="fill:#334f39; stroke-width:0px;"/><rect x="391.5" y="91.5" width="30" height="30" style="fill:#334f39; stroke-width:0px;"/><rect x="331.5" y="91.5" width="30" height="30" style="fill:#334f39; stroke-width:0px;"/><rect x="271.5" y="91.5" width="30" height="30" style="fill:#334f39; stroke-width:0px;"/><rect x="211.5" y="91.5" width="30" height="30" style="fill:#334f39; stroke-width:0px;"/><rect x="151.5" y="91.5" width="30" height="30" style="fill:#334f39; stroke-width:0px;"/><rect x="91.5" y="91.5" width="30" height="30" style="fill:#334f39; stroke-width:0px;"/><rect x="31.5" y="91.5" width="30" height="30" style="fill:#334f39; stroke-width:0px;"/><rect x="841.5" y="61.5" width="30" height="30" style="fill:#334f39; stroke-width:0px;"/><rect x="781.5" y="61.5" width="30" height="30" style="fill:#334f39; stroke-width:0px;"/><rect x="721.5" y="61.5" width="30" height="30" style="fill:#334f39; stroke-width:0px;"/><rect x="661.5" y="61.5" width="30" height="30" style="fill:#334f39; stroke-width:0px;"/><rect x="601.5" y="61.5" width="30" height="30" style="fill:#334f39; stroke-width:0px;"/><rect x="541.5" y="61.5" width="30" height="30" style="fill:#334f39; stroke-width:0px;"/><rect x="481.5" y="61.5" width="30" height="30" style="fill:#334f39; stroke-width:0px;"/><rect x="421.5" y="61.5" width="30" height="30" style="fill:#334f39; stroke-width:0px;"/><rect x="361.5" y="61.5" width="30" height="30" style="fill:#334f39; stroke-width:0px;"/><rect x="301.5" y="61.5" width="30" height="30" style="fill:#334f39; stroke-width:0px;"/><rect x="241.5" y="61.5" width="30" height="30" style="fill:#334f39; stroke-width:0px;"/><rect x="181.5" y="61.5" width="30" height="30" style="fill:#334f39; stroke-width:0px;"/><rect x="121.5" y="61.5" width="30" height="30" style="fill:#334f39; stroke-width:0px;"/><rect x="61.5" y="61.5" width="30" height="30" style="fill:#334f39; stroke-width:0px;"/><rect x="1.5" y="61.5" width="30" height="30" style="fill:#334f39; stroke-width:0px;"/><rect x="871.5" y="31.5" width="30" height="30" style="fill:#334f39; stroke-width:0px;"/><rect x="811.5" y="31.5" width="30" height="30" style="fill:#334f39; stroke-width:0px;"/><rect x="751.5" y="31.5" width="30" height="30" style="fill:#334f39; stroke-width:0px;"/><rect x="691.5" y="31.5" width="30" height="30" style="fill:#334f39; stroke-width:0px;"/><rect x="631.5" y="31.5" width="30" height="30" style="fill:#334f39; stroke-width:0px;"/><rect x="571.5" y="31.5" width="30" height="30" style="fill:#334f39; stroke-width:0px;"/><rect x="511.5" y="31.5" width="30" height="30" style="fill:#334f39; stroke-width:0px;"/><rect x="451.5" y="31.5" width="30" height="30" style="fill:#334f39; stroke-width:0px;"/><rect x="391.5" y="31.5" width="30" height="30" style="fill:#334f39; stroke-width:0px;"/><rect x="331.5" y="31.5" width="30" height="30" style="fill:#334f39; stroke-width:0px;"/><rect x="271.5" y="31.5" width="30" height="30" style="fill:#334f39; stroke-width:0px;"/><rect x="211.5" y="31.5" width="30" height="30" style="fill:#334f39; stroke-width:0px;"/><rect x="151.5" y="31.5" width="30" height="30" style="fill:#334f39; stroke-width:0px;"/><rect x="91.5" y="31.5" width="30" height="30" style="fill:#334f39; stroke-width:0px;"/><rect x="31.5" y="31.5" width="30" height="30" style="fill:#334f39; stroke-width:0px;"/><rect x="841.5" y="1.5" width="30" height="30" style="fill:#334f39; stroke-width:0px;"/><rect x="781.5" y="1.5" width="30" height="30" style="fill:#334f39; stroke-width:0px;"/><rect x="721.5" y="1.5" width="30" height="30" style="fill:#334f39; stroke-width:0px;"/><rect x="661.5" y="1.5" width="30" height="30" style="fill:#334f39; stroke-width:0px;"/><rect x="601.5" y="1.5" width="30" height="30" style="fill:#334f39; stroke-width:0px;"/><rect x="541.5" y="1.5" width="30" height="30" style="fill:#334f39; stroke-width:0px;"/><rect x="481.5" y="1.5" width="30" height="30" style="fill:#334f39; stroke-width:0px;"/><rect x="421.5" y="1.5" width="30" height="30" style="fill:#334f39; stroke-width:0px;"/><rect x="361.5" y="1.5" width="30" height="30" style="fill:#334f39; stroke-width:0px;"/><rect x="301.5" y="1.5" width="30" height="30" style="fill:#334f39; stroke-width:0px;"/><rect x="241.5" y="1.5" width="30" height="30" style="fill:#334f39; stroke-width:0px;"/><rect x="181.5" y="1.5" width="30" height="30" style="fill:#334f39; stroke-width:0px;"/><rect x="121.5" y="1.5" width="30" height="30" style="fill:#334f39; stroke-width:0px;"/><rect x="61.5" y="1.5" width="30" height="30" style="fill:#334f39; stroke-width:0px;"/><rect x="1.5" y="1.5" width="30" height="30" style="fill:#334f39; stroke-width:0px;"/></g></g></svg>