<?xml version="1.0" encoding="UTF-8"?><svg xmlns="http://www.w3.org/2000/svg" width="901" height="601" viewBox="0 0 901 601"><g id="uuid-a7e7806c-0c84-45fe-be18-eb53a2b75a7c"><rect x="1" y="1" width="900" height="600" style="fill:#b3dec1; stroke-width:0px;"/></g><g id="uuid-b00f4bcd-04fe-43e5-becc-3fe217412816"><g style="opacity:.1;"><rect x="870.5" y="570.5" width="30" height="30" style="fill:#334f39; stroke-width:0px;"/><rect x="810.5" y="570.5" width="30" height="30" style="fill:#334f39; stroke-width:0px;"/><rect x="750.5" y="570.5" width="30" height="30" style="fill:#334f39; stroke-width:0px;"/><rect x="690.5" y="570.5" width="30" height="30" style="fill:#334f39; stroke-width:0px;"/><rect x="630.5" y="570.5" width="30" height="30" style="fill:#334f39; stroke-width:0px;"/><rect x="570.5" y="570.5" width="30" height="30" style="fill:#334f39; stroke-width:0px;"/><rect x="510.5" y="570.5" width="30" height="30" style="fill:#334f39; stroke-width:0px;"/><rect x="450.5" y="570.5" width="30" height="30" style="fill:#334f39; stroke-width:0px;"/><rect x="390.5" y="570.5" width="30" height="30" style="fill:#334f39; stroke-width:0px;"/><rect x="330.5" y="570.5" width="30" height="30" style="fill:#334f39; stroke-width:0px;"/><rect x="270.5" y="570.5" width="30" height="30" style="fill:#334f39; stroke-width:0px;"/><rect x="210.5" y="570.5" width="30" height="30" style="fill:#334f39; stroke-width:0px;"/><rect x="150.5" y="570.5" width="30" height="30" style="fill:#334f39; stroke-width:0px;"/><rect x="90.5" y="570.5" width="30" height="30" style="fill:#334f39; stroke-width:0px;"/><rect x="30.5" y="570.5" width="30" height="30" style="fill:#334f39; stroke-width:0px;"/><rect x="840.5" y="540.5" width="30" height="30" style="fill:#334f39; stroke-width:0px;"/><rect x="780.5" y="540.5" width="30" height="30" style="fill:#334f39; stroke-width:0px;"/><rect x="720.5" y="540.5" width="30" height="30" style="fill:#334f39; stroke-width:0px;"/><rect x="660.5" y="540.5" width="30" height="30" style="fill:#334f39; stroke-width:0px;"/><rect x="600.5" y="540.5" width="30" height="30" style="fill:#334f39; stroke-width:0px;"/><rect x="540.5" y="540.5" width="30" height="30" style="fill:#334f39; stroke-width:0px;"/><rect x="480.5" y="540.5" width="30" height="30" style="fill:#334f39; stroke-width:0px;"/><rect x="420.5" y="540.5" width="30" height="30" style="fill:#334f39; stroke-width:0px;"/><rect x="360.5" y="540.5" width="30" height="30" style="fill:#334f39; stroke-width:0px;"/><rect x="300.5" y="540.5" width="30" height="30" style="fill:#334f39; stroke-width:0px;"/><rect x="240.5" y="540.5" width="30" height="30" style="fill:#334f39; stroke-width:0px;"/><rect x="180.5" y="540.5" width="30" height="30" style="fill:#334f39; stroke-width:0px;"/><rect x="120.5" y="540.5" width="30" height="30" style="fill:#334f39; stroke-width:0px;"/><rect x="60.5" y="540.5" width="30" height="30" style="fill:#334f39; stroke-width:0px;"/><rect x=".5" y="540.5" width="30" height="30" style="fill:#334f39; stroke-width:0px;"/><rect x="870.5" y="510.5" width="30" height="30" style="fill:#334f39; stroke-width:0px;"/><rect x="810.5" y="510.5" width="30" height="30" style="fill:#334f39; stroke-width:0px;"/><rect x="750.5" y="510.5" width="30" height="30" style="fill:#334f39; stroke-width:0px;"/><rect x="690.5" y="510.5" width="30" height="30" style="fill:#334f39; stroke-width:0px;"/><rect x="630.5" y="510.5" width="30" height="30" style="fill:#334f39; stroke-width:0px;"/><rect x="570.5" y="510.5" width="30" height="30" style="fill:#334f39; stroke-width:0px;"/><rect x="510.5" y="510.5" width="30" height="30" style="fill:#334f39; stroke-width:0px;"/><rect x="450.5" y="510.5" width="30" height="30" style="fill:#334f39; stroke-width:0px;"/><rect x="390.5" y="510.5" width="30" height="30" style="fill:#334f39; stroke-width:0px;"/><rect x="330.5" y="510.5" width="30" height="30" style="fill:#334f39; stroke-width:0px;"/><rect x="270.5" y="510.5" width="30" height="30" style="fill:#334f39; stroke-width:0px;"/><rect x="210.5" y="510.5" width="30" height="30" style="fill:#334f39; stroke-width:0px;"/><rect x="150.5" y="510.5" width="30" height="30" style="fill:#334f39; stroke-width:0px;"/><rect x="90.5" y="510.5" width="30" height="30" style="fill:#334f39; stroke-width:0px;"/><rect x="30.5" y="510.5" width="30" height="30" style="fill:#334f39; stroke-width:0px;"/><rect x="840.5" y="480.5" width="30" height="30" style="fill:#334f39; stroke-width:0px;"/><rect x="780.5" y="480.5" width="30" height="30" style="fill:#334f39; stroke-width:0px;"/><rect x="720.5" y="480.5" width="30" height="30" style="fill:#334f39; stroke-width:0px;"/><rect x="660.5" y="480.5" width="30" height="30" style="fill:#334f39; stroke-width:0px;"/><rect x="600.5" y="480.5" width="30" height="30" style="fill:#334f39; stroke-width:0px;"/><rect x="540.5" y="480.5" width="30" height="30" style="fill:#334f39; stroke-width:0px;"/><rect x="480.5" y="480.5" width="30" height="30" style="fill:#334f39; stroke-width:0px;"/><rect x="420.5" y="480.5" width="30" height="30" style="fill:#334f39; stroke-width:0px;"/><rect x="360.5" y="480.5" width="30" height="30" style="fill:#334f39; stroke-width:0px;"/><rect x="300.5" y="480.5" width="30" height="30" style="fill:#334f39; stroke-width:0px;"/><rect x="240.5" y="480.5" width="30" height="30" style="fill:#334f39; stroke-width:0px;"/><rect x="180.5" y="480.5" width="30" height="30" style="fill:#334f39; stroke-width:0px;"/><rect x="120.5" y="480.5" width="30" height="30" style="fill:#334f39; stroke-width:0px;"/><rect x="60.5" y="480.5" width="30" height="30" style="fill:#334f39; stroke-width:0px;"/><rect x=".5" y="480.5" width="30" height="30" style="fill:#334f39; stroke-width:0px;"/><rect x="870.5" y="450.5" width="30" height="30" style="fill:#334f39; stroke-width:0px;"/><rect x="810.5" y="450.5" width="30" height="30" style="fill:#334f39; stroke-width:0px;"/><rect x="750.5" y="450.5" width="30" height="30" style="fill:#334f39; stroke-width:0px;"/><rect x="690.5" y="450.5" width="30" height="30" style="fill:#334f39; stroke-width:0px;"/><rect x="630.5" y="450.5" width="30" height="30" style="fill:#334f39; stroke-width:0px;"/><rect x="570.5" y="450.5" width="30" height="30" style="fill:#334f39; stroke-width:0px;"/><rect x="510.5" y="450.5" width="30" height="30" style="fill:#334f39; stroke-width:0px;"/><rect x="450.5" y="450.5" width="30" height="30" style="fill:#334f39; stroke-width:0px;"/><rect x="390.5" y="450.5" width="30" height="30" style="fill:#334f39; stroke-width:0px;"/><rect x="330.5" y="450.5" width="30" height="30" style="fill:#334f39; stroke-width:0px;"/><rect x="270.5" y="450.5" width="30" height="30" style="fill:#334f39; stroke-width:0px;"/><rect x="210.5" y="450.5" width="30" height="30" style="fill:#334f39; stroke-width:0px;"/><rect x="150.5" y="450.5" width="30" height="30" style="fill:#334f39; stroke-width:0px;"/><rect x="90.5" y="450.5" width="30" height="30" style="fill:#334f39; stroke-width:0px;"/><rect x="30.5" y="450.5" width="30" height="30" style="fill:#334f39; stroke-width:0px;"/><rect x="840.5" y="420.5" width="30" height="30" style="fill:#334f39; stroke-width:0px;"/><rect x="780.5" y="420.5" width="30" height="30" style="fill:#334f39; stroke-width:0px;"/><rect x="720.5" y="420.5" width="30" height="30" style="fill:#334f39; stroke-width:0px;"/><rect x="660.5" y="420.5" width="30" height="30" style="fill:#334f39; stroke-width:0px;"/><rect x="600.5" y="420.5" width="30" height="30" style="fill:#334f39; stroke-width:0px;"/><rect x="540.5" y="420.5" width="30" height="30" style="fill:#334f39; stroke-width:0px;"/><rect x="480.5" y="420.5" width="30" height="30" style="fill:#334f39; stroke-width:0px;"/><rect x="420.5" y="420.5" width="30" height="30" style="fill:#334f39; stroke-width:0px;"/><rect x="360.5" y="420.5" width="30" height="30" style="fill:#334f39; stroke-width:0px;"/><rect x="300.5" y="420.5" width="30" height="30" style="fill:#334f39; stroke-width:0px;"/><rect x="240.5" y="420.5" width="30" height="30" style="fill:#334f39; stroke-width:0px;"/><rect x="180.5" y="420.5" width="30" height="30" style="fill:#334f39; stroke-width:0px;"/><rect x="120.5" y="420.5" width="30" height="30" style="fill:#334f39; stroke-width:0px;"/><rect x="60.5" y="420.5" width="30" height="30" style="fill:#334f39; stroke-width:0px;"/><rect x=".5" y="420.5" width="30" height="30" style="fill:#334f39; stroke-width:0px;"/><rect x="870.5" y="390.5" width="30" height="30" style="fill:#334f39; stroke-width:0px;"/><rect x="810.5" y="390.5" width="30" height="30" style="fill:#334f39; stroke-width:0px;"/><rect x="750.5" y="390.5" width="30" height="30" style="fill:#334f39; stroke-width:0px;"/><rect x="690.5" y="390.5" width="30" height="30" style="fill:#334f39; stroke-width:0px;"/><rect x="630.5" y="390.5" width="30" height="30" style="fill:#334f39; stroke-width:0px;"/><rect x="570.5" y="390.5" width="30" height="30" style="fill:#334f39; stroke-width:0px;"/><rect x="510.5" y="390.5" width="30" height="30" style="fill:#334f39; stroke-width:0px;"/><rect x="450.5" y="390.5" width="30" height="30" style="fill:#334f39; stroke-width:0px;"/><rect x="390.5" y="390.5" width="30" height="30" style="fill:#334f39; stroke-width:0px;"/><rect x="330.5" y="390.5" width="30" height="30" style="fill:#334f39; stroke-width:0px;"/><rect x="270.5" y="390.5" width="30" height="30" style="fill:#334f39; stroke-width:0px;"/><rect x="210.5" y="390.5" width="30" height="30" style="fill:#334f39; stroke-width:0px;"/><rect x="150.5" y="390.5" width="30" height="30" style="fill:#334f39; stroke-width:0px;"/><rect x="90.5" y="390.5" width="30" height="30" style="fill:#334f39; stroke-width:0px;"/><rect x="30.5" y="390.5" width="30" height="30" style="fill:#334f39; stroke-width:0px;"/><rect x="840.5" y="360.5" width="30" height="30" style="fill:#334f39; stroke-width:0px;"/><rect x="780.5" y="360.5" width="30" height="30" style="fill:#334f39; stroke-width:0px;"/><rect x="720.5" y="360.5" width="30" height="30" style="fill:#334f39; stroke-width:0px;"/><rect x="660.5" y="360.5" width="30" height="30" style="fill:#334f39; stroke-width:0px;"/><rect x="600.5" y="360.5" width="30" height="30" style="fill:#334f39; stroke-width:0px;"/><rect x="540.5" y="360.5" width="30" height="30" style="fill:#334f39; stroke-width:0px;"/><rect x="480.5" y="360.5" width="30" height="30" style="fill:#334f39; stroke-width:0px;"/><rect x="420.5" y="360.5" width="30" height="30" style="fill:#334f39; stroke-width:0px;"/><rect x="360.5" y="360.5" width="30" height="30" style="fill:#334f39; stroke-width:0px;"/><rect x="300.5" y="360.5" width="30" height="30" style="fill:#334f39; stroke-width:0px;"/><rect x="240.5" y="360.5" width="30" height="30" style="fill:#334f39; stroke-width:0px;"/><rect x="180.5" y="360.5" width="30" height="30" style="fill:#334f39; stroke-width:0px;"/><rect x="120.5" y="360.5" width="30" height="30" style="fill:#334f39; stroke-width:0px;"/><rect x="60.5" y="360.5" width="30" height="30" style="fill:#334f39; stroke-width:0px;"/><rect x=".5" y="360.5" width="30" height="30" style="fill:#334f39; stroke-width:0px;"/><rect x="870.5" y="330.5" width="30" height="30" style="fill:#334f39; stroke-width:0px;"/><rect x="810.5" y="330.5" width="30" height="30" style="fill:#334f39; stroke-width:0px;"/><rect x="750.5" y="330.5" width="30" height="30" style="fill:#334f39; stroke-width:0px;"/><rect x="690.5" y="330.5" width="30" height="30" style="fill:#334f39; stroke-width:0px;"/><rect x="630.5" y="330.5" width="30" height="30" style="fill:#334f39; stroke-width:0px;"/><rect x="570.5" y="330.5" width="30" height="30" style="fill:#334f39; stroke-width:0px;"/><rect x="510.5" y="330.5" width="30" height="30" style="fill:#334f39; stroke-width:0px;"/><rect x="450.5" y="330.5" width="30" height="30" style="fill:#334f39; stroke-width:0px;"/><rect x="390.5" y="330.5" width="30" height="30" style="fill:#334f39; stroke-width:0px;"/><rect x="330.5" y="330.5" width="30" height="30" style="fill:#334f39; stroke-width:0px;"/><rect x="270.5" y="330.5" width="30" height="30" style="fill:#334f39; stroke-width:0px;"/><rect x="210.5" y="330.5" width="30" height="30" style="fill:#334f39; stroke-width:0px;"/><rect x="150.5" y="330.5" width="30" height="30" style="fill:#334f39; stroke-width:0px;"/><rect x="90.5" y="330.5" width="30" height="30" style="fill:#334f39; stroke-width:0px;"/><rect x="30.5" y="330.5" width="30" height="30" style="fill:#334f39; stroke-width:0px;"/><rect x="840.5" y="300.5" width="30" height="30" style="fill:#334f39; stroke-width:0px;"/><rect x="780.5" y="300.5" width="30" height="30" style="fill:#334f39; stroke-width:0px;"/><rect x="720.5" y="300.5" width="30" height="30" style="fill:#334f39; stroke-width:0px;"/><rect x="660.5" y="300.5" width="30" height="30" style="fill:#334f39; stroke-width:0px;"/><rect x="600.5" y="300.5" width="30" height="30" style="fill:#334f39; stroke-width:0px;"/><rect x="540.5" y="300.5" width="30" height="30" style="fill:#334f39; stroke-width:0px;"/><rect x="480.5" y="300.5" width="30" height="30" style="fill:#334f39; stroke-width:0px;"/><rect x="420.5" y="300.5" width="30" height="30" style="fill:#334f39; stroke-width:0px;"/><rect x="360.5" y="300.5" width="30" height="30" style="fill:#334f39; stroke-width:0px;"/><rect x="300.5" y="300.5" width="30" height="30" style="fill:#334f39; stroke-width:0px;"/><rect x="240.5" y="300.5" width="30" height="30" style="fill:#334f39; stroke-width:0px;"/><rect x="180.5" y="300.5" width="30" height="30" style="fill:#334f39; stroke-width:0px;"/><rect x="120.5" y="300.5" width="30" height="30" style="fill:#334f39; stroke-width:0px;"/><rect x="60.5" y="300.5" width="30" height="30" style="fill:#334f39; stroke-width:0px;"/><rect x=".5" y="300.5" width="30" height="30" style="fill:#334f39; stroke-width:0px;"/><rect x="870.5" y="270.5" width="30" height="30" style="fill:#334f39; stroke-width:0px;"/><rect x="810.5" y="270.5" width="30" height="30" style="fill:#334f39; stroke-width:0px;"/><rect x="750.5" y="270.5" width="30" height="30" style="fill:#334f39; stroke-width:0px;"/><rect x="690.5" y="270.5" width="30" height="30" style="fill:#334f39; stroke-width:0px;"/><rect x="630.5" y="270.5" width="30" height="30" style="fill:#334f39; stroke-width:0px;"/><rect x="570.5" y="270.5" width="30" height="30" style="fill:#334f39; stroke-width:0px;"/><rect x="510.5" y="270.5" width="30" height="30" style="fill:#334f39; stroke-width:0px;"/><rect x="450.5" y="270.5" width="30" height="30" style="fill:#334f39; stroke-width:0px;"/><rect x="390.5" y="270.5" width="30" height="30" style="fill:#334f39; stroke-width:0px;"/><rect x="330.5" y="270.5" width="30" height="30" style="fill:#334f39; stroke-width:0px;"/><rect x="270.5" y="270.5" width="30" height="30" style="fill:#334f39; stroke-width:0px;"/><rect x="210.5" y="270.5" width="30" height="30" style="fill:#334f39; stroke-width:0px;"/><rect x="150.5" y="270.5" width="30" height="30" style="fill:#334f39; stroke-width:0px;"/><rect x="90.5" y="270.5" width="30" height="30" style="fill:#334f39; stroke-width:0px;"/><rect x="30.5" y="270.5" width="30" height="30" style="fill:#334f39; stroke-width:0px;"/><rect x="840.5" y="240.5" width="30" height="30" style="fill:#334f39; stroke-width:0px;"/><rect x="780.5" y="240.5" width="30" height="30" style="fill:#334f39; stroke-width:0px;"/><rect x="720.5" y="240.5" width="30" height="30" style="fill:#334f39; stroke-width:0px;"/><rect x="660.5" y="240.5" width="30" height="30" style="fill:#334f39; stroke-width:0px;"/><rect x="600.5" y="240.5" width="30" height="30" style="fill:#334f39; stroke-width:0px;"/><rect x="540.5" y="240.5" width="30" height="30" style="fill:#334f39; stroke-width:0px;"/><rect x="480.5" y="240.5" width="30" height="30" style="fill:#334f39; stroke-width:0px;"/><rect x="420.5" y="240.5" width="30" height="30" style="fill:#334f39; stroke-width:0px;"/><rect x="360.5" y="240.5" width="30" height="30" style="fill:#334f39; stroke-width:0px;"/><rect x="300.5" y="240.5" width="30" height="30" style="fill:#334f39; stroke-width:0px;"/><rect x="240.5" y="240.5" width="30" height="30" style="fill:#334f39; stroke-width:0px;"/><rect x="180.5" y="240.5" width="30" height="30" style="fill:#334f39; stroke-width:0px;"/><rect x="120.5" y="240.5" width="30" height="30" style="fill:#334f39; stroke-width:0px;"/><rect x="60.5" y="240.5" width="30" height="30" style="fill:#334f39; stroke-width:0px;"/><rect x=".5" y="240.5" width="30" height="30" style="fill:#334f39; stroke-width:0px;"/><rect x="870.5" y="210.5" width="30" height="30" style="fill:#334f39; stroke-width:0px;"/><rect x="810.5" y="210.5" width="30" height="30" style="fill:#334f39; stroke-width:0px;"/><rect x="750.5" y="210.5" width="30" height="30" style="fill:#334f39; stroke-width:0px;"/><rect x="690.5" y="210.5" width="30" height="30" style="fill:#334f39; stroke-width:0px;"/><rect x="630.5" y="210.5" width="30" height="30" style="fill:#334f39; stroke-width:0px;"/><rect x="570.5" y="210.5" width="30" height="30" style="fill:#334f39; stroke-width:0px;"/><rect x="510.5" y="210.5" width="30" height="30" style="fill:#334f39; stroke-width:0px;"/><rect x="450.5" y="210.5" width="30" height="30" style="fill:#334f39; stroke-width:0px;"/><rect x="390.5" y="210.5" width="30" height="30" style="fill:#334f39; stroke-width:0px;"/><rect x="330.5" y="210.5" width="30" height="30" style="fill:#334f39; stroke-width:0px;"/><rect x="270.5" y="210.5" width="30" height="30" style="fill:#334f39; stroke-width:0px;"/><rect x="210.5" y="210.5" width="30" height="30" style="fill:#334f39; stroke-width:0px;"/><rect x="150.5" y="210.5" width="30" height="30" style="fill:#334f39; stroke-width:0px;"/><rect x="90.5" y="210.5" width="30" height="30" style="fill:#334f39; stroke-width:0px;"/><rect x="30.5" y="210.5" width="30" height="30" style="fill:#334f39; stroke-width:0px;"/><rect x="840.5" y="180.5" width="30" height="30" style="fill:#334f39; stroke-width:0px;"/><rect x="780.5" y="180.5" width="30" height="30" style="fill:#334f39; stroke-width:0px;"/><rect x="720.5" y="180.5" width="30" height="30" style="fill:#334f39; stroke-width:0px;"/><rect x="660.5" y="180.5" width="30" height="30" style="fill:#334f39; stroke-width:0px;"/><rect x="600.5" y="180.5" width="30" height="30" style="fill:#334f39; stroke-width:0px;"/><rect x="540.5" y="180.5" width="30" height="30" style="fill:#334f39; stroke-width:0px;"/><rect x="480.5" y="180.5" width="30" height="30" style="fill:#334f39; stroke-width:0px;"/><rect x="420.5" y="180.5" width="30" height="30" style="fill:#334f39; stroke-width:0px;"/><rect x="360.5" y="180.5" width="30" height="30" style="fill:#334f39; stroke-width:0px;"/><rect x="300.5" y="180.5" width="30" height="30" style="fill:#334f39; stroke-width:0px;"/><rect x="240.5" y="180.5" width="30" height="30" style="fill:#334f39; stroke-width:0px;"/><rect x="180.5" y="180.5" width="30" height="30" style="fill:#334f39; stroke-width:0px;"/><rect x="120.5" y="180.5" width="30" height="30" style="fill:#334f39; stroke-width:0px;"/><rect x="60.5" y="180.5" width="30" height="30" style="fill:#334f39; stroke-width:0px;"/><rect x=".5" y="180.5" width="30" height="30" style="fill:#334f39; stroke-width:0px;"/><rect x="870.5" y="150.5" width="30" height="30" style="fill:#334f39; stroke-width:0px;"/><rect x="810.5" y="150.5" width="30" height="30" style="fill:#334f39; stroke-width:0px;"/><rect x="750.5" y="150.5" width="30" height="30" style="fill:#334f39; stroke-width:0px;"/><rect x="690.5" y="150.5" width="30" height="30" style="fill:#334f39; stroke-width:0px;"/><rect x="630.5" y="150.5" width="30" height="30" style="fill:#334f39; stroke-width:0px;"/><rect x="570.5" y="150.5" width="30" height="30" style="fill:#334f39; stroke-width:0px;"/><rect x="510.5" y="150.5" width="30" height="30" style="fill:#334f39; stroke-width:0px;"/><rect x="450.5" y="150.5" width="30" height="30" style="fill:#334f39; stroke-width:0px;"/><rect x="390.5" y="150.5" width="30" height="30" style="fill:#334f39; stroke-width:0px;"/><rect x="330.5" y="150.5" width="30" height="30" style="fill:#334f39; stroke-width:0px;"/><rect x="270.5" y="150.5" width="30" height="30" style="fill:#334f39; stroke-width:0px;"/><rect x="210.5" y="150.5" width="30" height="30" style="fill:#334f39; stroke-width:0px;"/><rect x="150.5" y="150.5" width="30" height="30" style="fill:#334f39; stroke-width:0px;"/><rect x="90.5" y="150.5" width="30" height="30" style="fill:#334f39; stroke-width:0px;"/><rect x="30.5" y="150.5" width="30" height="30" style="fill:#334f39; stroke-width:0px;"/><rect x="840.5" y="120.5" width="30" height="30" style="fill:#334f39; stroke-width:0px;"/><rect x="780.5" y="120.5" width="30" height="30" style="fill:#334f39; stroke-width:0px;"/><rect x="720.5" y="120.5" width="30" height="30" style="fill:#334f39; stroke-width:0px;"/><rect x="660.5" y="120.5" width="30" height="30" style="fill:#334f39; stroke-width:0px;"/><rect x="600.5" y="120.5" width="30" height="30" style="fill:#334f39; stroke-width:0px;"/><rect x="540.5" y="120.5" width="30" height="30" style="fill:#334f39; stroke-width:0px;"/><rect x="480.5" y="120.5" width="30" height="30" style="fill:#334f39; stroke-width:0px;"/><rect x="420.5" y="120.5" width="30" height="30" style="fill:#334f39; stroke-width:0px;"/><rect x="360.5" y="120.5" width="30" height="30" style="fill:#334f39; stroke-width:0px;"/><rect x="300.5" y="120.5" width="30" height="30" style="fill:#334f39; stroke-width:0px;"/><rect x="240.5" y="120.5" width="30" height="30" style="fill:#334f39; stroke-width:0px;"/><rect x="180.5" y="120.5" width="30" height="30" style="fill:#334f39; stroke-width:0px;"/><rect x="120.5" y="120.5" width="30" height="30" style="fill:#334f39; stroke-width:0px;"/><rect x="60.5" y="120.5" width="30" height="30" style="fill:#334f39; stroke-width:0px;"/><rect x=".5" y="120.5" width="30" height="30" style="fill:#334f39; stroke-width:0px;"/><rect x="870.5" y="90.5" width="30" height="30" style="fill:#334f39; stroke-width:0px;"/><rect x="810.5" y="90.5" width="30" height="30" style="fill:#334f39; stroke-width:0px;"/><rect x="750.5" y="90.5" width="30" height="30" style="fill:#334f39; stroke-width:0px;"/><rect x="690.5" y="90.5" width="30" height="30" style="fill:#334f39; stroke-width:0px;"/><rect x="630.5" y="90.5" width="30" height="30" style="fill:#334f39; stroke-width:0px;"/><rect x="570.5" y="90.5" width="30" height="30" style="fill:#334f39; stroke-width:0px;"/><rect x="510.5" y="90.5" width="30" height="30" style="fill:#334f39; stroke-width:0px;"/><rect x="450.5" y="90.5" width="30" height="30" style="fill:#334f39; stroke-width:0px;"/><rect x="390.5" y="90.5" width="30" height="30" style="fill:#334f39; stroke-width:0px;"/><rect x="330.5" y="90.5" width="30" height="30" style="fill:#334f39; stroke-width:0px;"/><rect x="270.5" y="90.5" width="30" height="30" style="fill:#334f39; stroke-width:0px;"/><rect x="210.5" y="90.5" width="30" height="30" style="fill:#334f39; stroke-width:0px;"/><rect x="150.5" y="90.5" width="30" height="30" style="fill:#334f39; stroke-width:0px;"/><rect x="90.5" y="90.5" width="30" height="30" style="fill:#334f39; stroke-width:0px;"/><rect x="30.5" y="90.5" width="30" height="30" style="fill:#334f39; stroke-width:0px;"/><rect x="840.5" y="60.5" width="30" height="30" style="fill:#334f39; stroke-width:0px;"/><rect x="780.5" y="60.5" width="30" height="30" style="fill:#334f39; stroke-width:0px;"/><rect x="720.5" y="60.5" width="30" height="30" style="fill:#334f39; stroke-width:0px;"/><rect x="660.5" y="60.5" width="30" height="30" style="fill:#334f39; stroke-width:0px;"/><rect x="600.5" y="60.5" width="30" height="30" style="fill:#334f39; stroke-width:0px;"/><rect x="540.5" y="60.5" width="30" height="30" style="fill:#334f39; stroke-width:0px;"/><rect x="480.5" y="60.5" width="30" height="30" style="fill:#334f39; stroke-width:0px;"/><rect x="420.5" y="60.5" width="30" height="30" style="fill:#334f39; stroke-width:0px;"/><rect x="360.5" y="60.5" width="30" height="30" style="fill:#334f39; stroke-width:0px;"/><rect x="300.5" y="60.5" width="30" height="30" style="fill:#334f39; stroke-width:0px;"/><rect x="240.5" y="60.5" width="30" height="30" style="fill:#334f39; stroke-width:0px;"/><rect x="180.5" y="60.5" width="30" height="30" style="fill:#334f39; stroke-width:0px;"/><rect x="120.5" y="60.5" width="30" height="30" style="fill:#334f39; stroke-width:0px;"/><rect x="60.5" y="60.5" width="30" height="30" style="fill:#334f39; stroke-width:0px;"/><rect x=".5" y="60.5" width="30" height="30" style="fill:#334f39; stroke-width:0px;"/><rect x="870.5" y="30.5" width="30" height="30" style="fill:#334f39; stroke-width:0px;"/><rect x="810.5" y="30.5" width="30" height="30" style="fill:#334f39; stroke-width:0px;"/><rect x="750.5" y="30.5" width="30" height="30" style="fill:#334f39; stroke-width:0px;"/><rect x="690.5" y="30.5" width="30" height="30" style="fill:#334f39; stroke-width:0px;"/><rect x="630.5" y="30.5" width="30" height="30" style="fill:#334f39; stroke-width:0px;"/><rect x="570.5" y="30.5" width="30" height="30" style="fill:#334f39; stroke-width:0px;"/><rect x="510.5" y="30.5" width="30" height="30" style="fill:#334f39; stroke-width:0px;"/><rect x="450.5" y="30.5" width="30" height="30" style="fill:#334f39; stroke-width:0px;"/><rect x="390.5" y="30.5" width="30" height="30" style="fill:#334f39; stroke-width:0px;"/><rect x="330.5" y="30.5" width="30" height="30" style="fill:#334f39; stroke-width:0px;"/><rect x="270.5" y="30.5" width="30" height="30" style="fill:#334f39; stroke-width:0px;"/><rect x="210.5" y="30.5" width="30" height="30" style="fill:#334f39; stroke-width:0px;"/><rect x="150.5" y="30.5" width="30" height="30" style="fill:#334f39; stroke-width:0px;"/><rect x="90.5" y="30.5" width="30" height="30" style="fill:#334f39; stroke-width:0px;"/><rect x="30.5" y="30.5" width="30" height="30" style="fill:#334f39; stroke-width:0px;"/><rect x="840.5" y=".5" width="30" height="30" style="fill:#334f39; stroke-width:0px;"/><rect x="780.5" y=".5" width="30" height="30" style="fill:#334f39; stroke-width:0px;"/><rect x="720.5" y=".5" width="30" height="30" style="fill:#334f39; stroke-width:0px;"/><rect x="660.5" y=".5" width="30" height="30" style="fill:#334f39; stroke-width:0px;"/><rect x="600.5" y=".5" width="30" height="30" style="fill:#334f39; stroke-width:0px;"/><rect x="540.5" y=".5" width="30" height="30" style="fill:#334f39; stroke-width:0px;"/><rect x="480.5" y=".5" width="30" height="30" style="fill:#334f39; stroke-width:0px;"/><rect x="420.5" y=".5" width="30" height="30" style="fill:#334f39; stroke-width:0px;"/><rect x="360.5" y=".5" width="30" height="30" style="fill:#334f39; stroke-width:0px;"/><rect x="300.5" y=".5" width="30" height="30" style="fill:#334f39; stroke-width:0px;"/><rect x="240.5" y=".5" width="30" height="30" style="fill:#334f39; stroke-width:0px;"/><rect x="180.5" y=".5" width="30" height="30" style="fill:#334f39; stroke-width:0px;"/><rect x="120.5" y=".5" width="30" height="30" style="fill:#334f39; stroke-width:0px;"/><rect x="60.5" y=".5" width="30" height="30" style="fill:#334f39; stroke-width:0px;"/><rect x=".5" y=".5" width="30" height="30" style="fill:#334f39; stroke-width:0px;"/></g></g></svg>