<?xml version="1.0" encoding="UTF-8"?><svg id="uuid-96bcece2-8748-44ab-aebb-ac668a416280" xmlns="http://www.w3.org/2000/svg" width="31.48" height="18.9" viewBox="0 0 31.48 18.9"><path d="m11.89,18.26c-2.75,0-5.55-.58-8.21-1.8-1.05-.48-2.06-1.05-2.99-1.7l-.06-.04.02-.07c.25-.84.57-1.67.94-2.48C6.13,2.26,17.89-2.1,27.8,2.44c1.05.48,2.06,1.06,2.99,1.7l.06.04-.02.07c-.26.84-.57,1.67-.94,2.48-3.32,7.25-10.51,11.53-18,11.53ZM.86,14.64c.91.62,1.88,1.17,2.9,1.64,9.81,4.5,21.45.18,25.95-9.63.36-.77.66-1.58.91-2.38-.91-.62-1.88-1.17-2.9-1.64C17.91-1.88,6.27,2.44,1.77,12.25c-.36.78-.66,1.58-.91,2.39Z" style="fill:#000072; stroke-width:0px;"/><path d="m11.89,18.9c-2.84,0-5.73-.6-8.48-1.86-1.08-.5-2.12-1.09-3.09-1.75-.27-.18-.38-.52-.29-.83.26-.86.59-1.73.97-2.56C5.7,1.67,17.84-2.83,28.07,1.86c1.09.5,2.13,1.09,3.09,1.76.27.18.38.52.29.83-.26.87-.59,1.73-.97,2.56h0c-3.43,7.48-10.85,11.9-18.59,11.9ZM1.62,14.37c.76.49,1.57.94,2.41,1.32,9.49,4.35,20.75.17,25.1-9.32h0c.28-.6.52-1.22.73-1.85-.76-.49-1.57-.94-2.41-1.32C17.96-1.14,6.7,3.03,2.35,12.52c-.28.61-.52,1.23-.73,1.85Zm28.18-7.69h0,0Z" style="fill:#210124; stroke-width:0px;"/><path d="m.48,13.98l5.86-2.19c1.96-.72,3.9-1.48,5.84-2.23,1.94-.76,3.92-1.41,5.91-2.06,1.99-.64,3.99-1.24,6.02-1.76.1-.03.2.03.23.13.02.09-.02.17-.1.21-1.87.94-3.78,1.8-5.7,2.62-1.92.82-3.85,1.62-5.81,2.33-1.96.71-3.92,1.41-5.87,2.15l-5.86,2.19c-.38.14-.81-.05-.96-.44-.14-.38.05-.81.44-.96Z" style="fill:#210124; stroke-width:0px;"/><path d="m16.3,8.29l5.49,2.34c.09.04.14.15.1.24-.04.08-.13.13-.21.11l-5.83-1.28c-.4-.09-.66-.49-.57-.89.09-.4.49-.66.89-.57.04,0,.09.03.13.04Z" style="fill:#210124; stroke-width:0px;"/><path d="m12.89,6.54l-3.58,5.6c-.22.35-.68.45-1.03.23-.35-.22-.45-.68-.23-1.03.02-.03.05-.07.08-.1l4.46-4.93c.07-.08.19-.08.26-.01.07.06.08.16.03.24Z" style="fill:#210124; stroke-width:0px;"/></svg>