<?xml version="1.0" encoding="UTF-8"?><svg id="uuid-708a8767-9861-49c6-8c99-428800a6a9a3" xmlns="http://www.w3.org/2000/svg" width="744.29" height="446.88" viewBox="0 0 744.29 446.88"><path d="m704.58,158.09c-107.06,233.47-383.15,336-616.67,228.93-25.01-11.47-48.47-24.83-70.36-39.94,5.97-19.66,13.37-39.15,22.16-58.33C146.77,55.27,422.89-47.2,656.37,59.86c25.01,11.47,48.51,24.85,70.38,39.99-5.99,19.6-13.37,39.05-22.17,58.23Z" style="fill:#73c612; stroke-width:0px;"/><path d="m281.08,431.66c-65.1,0-131.19-13.66-194.14-42.52-24.81-11.38-48.6-24.88-70.71-40.14l-1.4-.97.5-1.63c6-19.77,13.5-39.49,22.27-58.63C145.02,53.5,423.04-49.71,657.34,57.74c24.92,11.42,48.71,24.95,70.73,40.2l1.4.97-.5,1.63c-6.06,19.81-13.55,39.5-22.27,58.52-78.57,171.35-248.41,272.6-425.62,272.6ZM20.29,346.13c21.49,14.7,44.56,27.74,68.6,38.77,231.96,106.36,507.21,4.18,613.57-227.78,8.4-18.31,15.64-37.25,21.55-56.31-21.4-14.7-44.48-27.75-68.62-38.82C423.43-44.38,148.19,57.78,41.84,289.72c-8.44,18.42-15.69,37.39-21.55,56.41Z" style="fill:#000072; stroke-width:0px;"/><g style="opacity:.3;"><path d="m726.76,99.84c-6.01,19.63-13.4,39.04-22.17,58.22-107.05,233.51-383.16,336.02-616.66,228.97-25.01-11.48-48.47-24.84-70.37-39.97,4.05-13.26,8.73-26.48,14.07-39.57,9.35,5.12,18.96,9.93,28.8,14.42,233.51,107.05,509.61,4.54,616.66-228.97,2.85-6.19,5.56-12.46,8.06-18.69,14.47,7.88,28.31,16.42,41.62,25.59Z" style="fill:#000072; stroke-width:0px;"/></g><g style="opacity:.6;"><path d="m726.76,99.84c-1.51,4.9-3.07,9.79-4.76,14.69-13.89-8.28-28.35-15.85-43.35-22.7C445.13-15.26,169.03,87.25,61.97,320.71c-6.59,14.38-12.42,28.93-17.45,43.62-9.26-5.47-18.25-11.22-26.97-17.27,5.97-19.63,13.35-39.13,22.17-58.31C146.77,55.29,422.88-47.18,656.38,59.87c24.97,11.44,48.47,24.84,70.37,39.97Z" style="fill:#fff; stroke-width:0px;"/></g><path d="m281.05,446.88c-67.23,0-135.46-14.1-200.46-43.91-25.61-11.75-50.18-25.69-73.01-41.45-6.29-4.34-9.05-12.24-6.83-19.55,6.2-20.42,13.94-40.79,23-60.55C134.69,39.53,421.76-67.02,663.68,43.91c25.73,11.79,50.3,25.76,73.06,41.52,6.28,4.35,9.02,12.26,6.79,19.56-6.25,20.46-13.99,40.79-22.99,60.41h0c-81.13,176.93-256.49,281.47-439.48,281.47Zm-242.75-107.04c18.05,11.67,37.15,22.15,56.93,31.23,224.33,102.87,490.53,4.04,593.4-220.29h0c6.54-14.26,12.36-28.92,17.36-43.71-17.99-11.67-37.09-22.15-56.94-31.25C424.72-27.05,158.53,71.75,55.67,296.06c-6.57,14.34-12.39,29.01-17.37,43.78Zm666.28-181.75h.05-.05Z" style="fill:#210124; stroke-width:0px;"/><path d="m11.41,330.64l138.48-51.82c46.23-17.09,92.16-34.99,138.12-52.79,45.94-17.87,92.73-33.45,139.67-48.65,46.99-15.05,94.24-29.42,142.28-41.67,2.36-.6,4.77.82,5.37,3.18.52,2.05-.48,4.12-2.29,5.03-44.28,22.29-89.36,42.46-134.69,61.96-45.39,19.34-90.91,38.31-137.3,54.98-46.36,16.74-92.76,33.39-138.85,50.84l-138.48,51.82c-9.08,3.4-19.19-1.21-22.59-10.29-3.4-9.08,1.21-19.19,10.29-22.59Z" style="fill:#210124; stroke-width:0px;"/><path d="m385.32,195.93l129.87,55.29c2.24.95,3.28,3.54,2.33,5.78-.84,1.98-2.97,3.02-5,2.58l-137.88-30.21c-9.51-2.08-15.53-11.48-13.45-20.99,2.08-9.51,11.48-15.53,20.99-13.45,1.06.23,2.17.6,3.13,1Z" style="fill:#210124; stroke-width:0px;"/><path d="m304.73,154.67l-84.55,132.45c-5.23,8.2-16.12,10.6-24.32,5.37-8.2-5.23-10.6-16.12-5.37-24.32.52-.82,1.17-1.65,1.79-2.35l105.48-116.48c1.63-1.8,4.42-1.94,6.22-.31,1.62,1.46,1.89,3.86.76,5.63Z" style="fill:#210124; stroke-width:0px;"/><g style="opacity:.3;"><path d="m37.89,347.08C207.51,157.47,403.55,65.92,637.69,115.74L37.89,347.08Z" style="fill:#210124; stroke-width:0px;"/></g></svg>