<?xml version="1.0" encoding="UTF-8"?><svg xmlns="http://www.w3.org/2000/svg" width="1367" height="460" xmlns:xlink="http://www.w3.org/1999/xlink" viewBox="0 0 1367 460"><defs><linearGradient id="uuid-2919fe98-7c2c-45d8-89c6-74c2502a59bd" x1="941.46" y1="676.8" x2="425.54" y2="-216.8" gradientUnits="userSpaceOnUse"><stop offset="0" stop-color="#0733a3"/><stop offset="1" stop-color="#1c54e3"/></linearGradient></defs><g id="uuid-a84dd1c1-b2ac-4e1c-a981-9692eca9ce95"><rect x=".5" y=".5" width="1366" height="459" rx="66.5" ry="66.5" style="fill:url(#uuid-2919fe98-7c2c-45d8-89c6-74c2502a59bd); stroke:#0733a3; stroke-miterlimit:10;"/></g><g id="uuid-750ed8ca-60c1-4130-a261-b0afafc14b65"><g style="opacity:.8;"><path d="m507.74,129.57l2.88-3.72v34.2h-6.78v-36h14.88c3.08,0,5.62.46,7.62,1.38,2,.92,3.5,2.31,4.5,4.17,1,1.86,1.5,4.17,1.5,6.93,0,2.32-.51,4.4-1.53,6.24-1.02,1.84-2.52,3.3-4.5,4.38-1.98,1.08-4.45,1.62-7.41,1.62h-11.22v-5.22h10.5c2.88,0,4.88-.57,6-1.71,1.12-1.14,1.68-2.89,1.68-5.25,0-1.64-.22-2.97-.66-3.99-.44-1.02-1.23-1.78-2.37-2.28-1.14-.5-2.73-.75-4.77-.75h-10.32Z" style="fill:#fff; stroke-width:0px;"/><path d="m550.22,160.83c-3,0-5.56-.6-7.68-1.8-2.12-1.2-3.73-2.93-4.83-5.19-1.1-2.26-1.65-4.91-1.65-7.95s.58-5.78,1.74-7.98c1.16-2.2,2.8-3.88,4.92-5.04,2.12-1.16,4.62-1.74,7.5-1.74s5.38.58,7.5,1.74c2.12,1.16,3.75,2.84,4.89,5.04,1.14,2.2,1.71,4.86,1.71,7.98,0,4.64-1.23,8.29-3.69,10.95-2.46,2.66-5.93,3.99-10.41,3.99Zm0-24.6c-2.76,0-4.73.82-5.91,2.46-1.18,1.64-1.77,4.02-1.77,7.14,0,2.08.25,3.85.75,5.31.5,1.46,1.31,2.58,2.43,3.36,1.12.78,2.6,1.17,4.44,1.17,2.8,0,4.79-.86,5.97-2.58,1.18-1.72,1.77-4.14,1.77-7.26,0-2.08-.27-3.83-.81-5.25-.54-1.42-1.37-2.5-2.49-3.24-1.12-.74-2.58-1.11-4.38-1.11Z" style="fill:#fff; stroke-width:0px;"/><path d="m594.85,131.79l2.64,11.1c.56,2.48,1.11,5.02,1.65,7.62.54,2.6.99,5.3,1.35,8.1l-1.44-3.78h3.54l-1.32,3.78c.4-2.8.89-5.45,1.47-7.95.58-2.5,1.19-5.13,1.83-7.89l2.46-10.98h6.42l-8.28,28.26h-9l-2.76-12.3c-.48-2.32-.93-4.67-1.35-7.05-.42-2.38-.79-4.73-1.11-7.05l1.44,3.18h-3.78l1.5-3.18c-.28,2.32-.64,4.68-1.08,7.08-.44,2.4-.9,4.74-1.38,7.02l-2.64,12.3h-8.7l-8.16-28.26h6.6l2.58,10.98c.76,2.72,1.43,5.33,2.01,7.83.58,2.5,1.05,5.17,1.41,8.01l-1.26-3.78h3.54l-1.32,3.78c.28-2.72.69-5.4,1.23-8.04.54-2.64,1.09-5.2,1.65-7.68l2.64-11.1h7.62Z" style="fill:#fff; stroke-width:0px;"/><path d="m631.27,160.77c-2.88,0-5.37-.53-7.47-1.59-2.1-1.06-3.72-2.67-4.86-4.83-1.14-2.16-1.71-4.84-1.71-8.04s.55-5.94,1.65-8.22c1.1-2.28,2.7-4.02,4.8-5.22s4.61-1.8,7.53-1.8,5.23.52,7.05,1.56c1.82,1.04,3.18,2.52,4.08,4.44s1.35,4.16,1.35,6.72c0,.56-.01,1.17-.03,1.83-.02.66-.07,1.31-.15,1.95h-21.78v-3.9h17.64l-1.56,1.5c.12-3.16-.35-5.54-1.41-7.14-1.06-1.6-2.85-2.4-5.37-2.4s-4.34.83-5.58,2.49c-1.24,1.66-1.86,4.27-1.86,7.83,0,3.32.62,5.81,1.86,7.47,1.24,1.66,3.2,2.49,5.88,2.49,1.48,0,2.66-.21,3.54-.63.88-.42,1.55-.98,2.01-1.68.46-.7.83-1.47,1.11-2.31l5.4,1.44c-.44,1.6-1.12,3-2.04,4.2-.92,1.2-2.18,2.14-3.78,2.82-1.6.68-3.7,1.02-6.3,1.02Z" style="fill:#fff; stroke-width:0px;"/><path d="m656.59,139.53l2.16.12-1.62,3.72c.48-2.32,1.02-4.26,1.62-5.82.6-1.56,1.29-2.8,2.07-3.72.78-.92,1.66-1.58,2.64-1.98.98-.4,2.05-.6,3.21-.6h.36v7.26h-.36c-2.24,0-4.02.3-5.34.9-1.32.6-2.26,1.56-2.82,2.88-.56,1.32-.84,3.1-.84,5.34v12.42h-6.48v-28.2h5.88v11.82l-.48-4.14Z" style="fill:#fff; stroke-width:0px;"/><path d="m685.99,160.77c-2.88,0-5.37-.53-7.47-1.59-2.1-1.06-3.72-2.67-4.86-4.83-1.14-2.16-1.71-4.84-1.71-8.04s.55-5.94,1.65-8.22c1.1-2.28,2.7-4.02,4.8-5.22s4.61-1.8,7.53-1.8,5.23.52,7.05,1.56c1.82,1.04,3.18,2.52,4.08,4.44.9,1.92,1.35,4.16,1.35,6.72,0,.56-.01,1.17-.03,1.83-.02.66-.07,1.31-.15,1.95h-21.78v-3.9h17.64l-1.56,1.5c.12-3.16-.35-5.54-1.41-7.14-1.06-1.6-2.85-2.4-5.37-2.4s-4.34.83-5.58,2.49c-1.24,1.66-1.86,4.27-1.86,7.83,0,3.32.62,5.81,1.86,7.47,1.24,1.66,3.2,2.49,5.88,2.49,1.48,0,2.66-.21,3.54-.63s1.55-.98,2.01-1.68c.46-.7.83-1.47,1.11-2.31l5.4,1.44c-.44,1.6-1.12,3-2.04,4.2-.92,1.2-2.18,2.14-3.78,2.82-1.6.68-3.7,1.02-6.3,1.02Z" style="fill:#fff; stroke-width:0px;"/><path d="m704.17,146.13c0-5.04.85-8.8,2.55-11.28,1.7-2.48,4.07-3.72,7.11-3.72,2,0,3.7.53,5.1,1.59,1.4,1.06,2.53,2.45,3.39,4.17.86,1.72,1.47,3.56,1.83,5.52l-.3,1.86c0-2.12-.62-3.87-1.86-5.25-1.24-1.38-2.92-2.07-5.04-2.07s-3.84.7-4.92,2.1c-1.08,1.4-1.62,3.76-1.62,7.08s.53,5.57,1.59,6.99c1.06,1.42,2.73,2.13,5.01,2.13,1.36,0,2.56-.31,3.6-.93s1.84-1.47,2.4-2.55c.56-1.08.84-2.28.84-3.6l.3.66c-.12,1.44-.45,2.87-.99,4.29s-1.27,2.71-2.19,3.87c-.92,1.16-1.99,2.09-3.21,2.79-1.22.7-2.61,1.05-4.17,1.05-2.84,0-5.12-1.21-6.84-3.63-1.72-2.42-2.58-6.11-2.58-11.07Zm20.52-3.9h-.96l-.96-3.72h2.1l-.18,3.72Zm.3,10.86h-2.16l1.02-3.06h1.14v3.06Zm-1.14,6.96v-40.2h6.48v40.2h-6.48Z" style="fill:#fff; stroke-width:0px;"/><path d="m753.67,124.05h6.78v36h-6.78v-36Zm18.42,16.56v2.88l-3.48-.78c3.36,0,6.09.2,8.19.6,2.1.4,3.64,1.14,4.62,2.22.98,1.08,1.47,2.66,1.47,4.74,0,1.96-.43,3.67-1.29,5.13-.86,1.46-2.24,2.6-4.14,3.42-1.9.82-4.43,1.23-7.59,1.23h-13.86v-4.5h13.8c2.2,0,3.83-.49,4.89-1.47,1.06-.98,1.59-2.33,1.59-4.05,0-1.2-.19-2.21-.57-3.03-.38-.82-1.07-1.43-2.07-1.83-1-.4-2.42-.6-4.26-.6h-12.6v-4.44h11.82c1.28,0,2.39-.19,3.33-.57.94-.38,1.68-.99,2.22-1.83.54-.84.81-1.96.81-3.36,0-1.96-.44-3.37-1.32-4.23-.88-.86-2.42-1.29-4.62-1.29h-12.54v-4.8h12.24c4.4,0,7.59.74,9.57,2.22,1.98,1.48,2.97,3.8,2.97,6.96,0,2.04-.53,3.67-1.59,4.89-1.06,1.22-2.54,2.11-4.44,2.67-1.9.56-4.11.88-6.63.96l3.48-1.14Z" style="fill:#fff; stroke-width:0px;"/><path d="m797.71,158.01l3.48,2.04-4.08.36-11.52-28.62h7.08l3,10.26c.28,1.2.62,2.48,1.02,3.84.4,1.36.81,2.76,1.23,4.2.42,1.44.81,2.84,1.17,4.2.36,1.36.68,2.66.96,3.9l-1.92-2.94h4.2l-1.86,2.94c.44-1.68.92-3.46,1.44-5.34.52-1.88,1.03-3.75,1.53-5.61.5-1.86.95-3.55,1.35-5.07l2.88-10.38h6.84l-11.7,28.62c-.92,2.36-1.97,4.29-3.15,5.79-1.18,1.5-2.55,2.61-4.11,3.33-1.56.72-3.42,1.08-5.58,1.08-.92,0-1.73-.05-2.43-.15-.7-.1-1.39-.19-2.07-.27l1.08-5.58c.6.12,1.21.22,1.83.3.62.08,1.23.12,1.83.12,1.16,0,2.17-.18,3.03-.54.86-.36,1.63-1.05,2.31-2.07.68-1.02,1.4-2.49,2.16-4.41Z" style="fill:#fff; stroke-width:0px;"/></g><path d="m521.5,248.53c-4.72,0-8.66-.41-11.82-1.24-3.16-.83-5.69-1.98-7.59-3.45-1.9-1.47-3.3-3.14-4.19-5.01-.89-1.87-1.43-3.85-1.61-5.93l15.27-3.4c.43,1.84,1.13,3.28,2.12,4.32.98,1.04,2.18,1.76,3.59,2.16,1.41.4,2.94.6,4.6.6,2.51,0,4.4-.29,5.66-.87,1.26-.58,1.89-1.52,1.89-2.81,0-1.04-.28-1.98-.83-2.81-.55-.83-1.69-1.59-3.4-2.3-1.72-.7-4.39-1.33-8-1.89-5.09-.86-9.09-2.05-12.01-3.59-2.91-1.53-4.97-3.51-6.16-5.93-1.2-2.42-1.79-5.32-1.79-8.69,0-5.64,1.99-9.9,5.98-12.79,3.99-2.88,10.12-4.32,18.4-4.32,5.21,0,9.44.6,12.7,1.79,3.25,1.2,5.67,2.88,7.27,5.06,1.59,2.18,2.51,4.77,2.76,7.77l-16.56,2.85c-.18-1.23-.48-2.28-.87-3.17-.4-.89-1.07-1.56-2.02-2.02-.95-.46-2.35-.69-4.19-.69-2.45,0-4.29.29-5.52.87-1.23.58-1.84,1.64-1.84,3.17,0,.86.2,1.66.6,2.39.4.74,1.3,1.41,2.71,2.02,1.41.61,3.62,1.23,6.62,1.84,4.97.98,8.95,2.12,11.96,3.4,3,1.29,5.27,2.71,6.81,4.28,1.53,1.56,2.56,3.28,3.08,5.15.52,1.87.78,3.88.78,6.03,0,3.74-.84,6.9-2.53,9.48-1.69,2.58-4.32,4.51-7.91,5.8-3.59,1.29-8.23,1.93-13.94,1.93Z" style="fill:#fff; stroke-width:0px;"/><path d="m571.82,247.15h-16.56v-55.2h16.56v55.2Zm-9.75-55.2h37.17v12.88h-37.17v-12.88Zm0,32.84v-10.76h35.33v10.76h-35.33Zm0,9.48h37.17v12.88h-37.17v-12.88Z" style="fill:#fff; stroke-width:0px;"/><path d="m626.1,235.1h8.92l-4.32,9.38c.55-2.58,1.06-5.18,1.52-7.82.46-2.64.95-5.29,1.47-7.96.52-2.67,1.06-5.35,1.61-8.05l6.07-28.7h17.02l-15.18,55.2h-25.48l-15.27-55.2h17.76l5.89,28.7c.55,2.7,1.09,5.37,1.61,8,.52,2.64,1.01,5.26,1.47,7.87.46,2.61.87,5.26,1.24,7.96l-4.32-9.38Z" style="fill:#fff; stroke-width:0px;"/><path d="m680.01,247.15h-16.56v-55.2h16.56v55.2Zm-9.75-55.2h37.17v12.88h-37.17v-12.88Zm0,32.84v-10.76h35.33v10.76h-35.33Zm0,9.48h37.17v12.88h-37.17v-12.88Z" style="fill:#fff; stroke-width:0px;"/><path d="m749.47,247.15l-8.65-17.94c-.8-1.66-1.64-3.68-2.53-6.07-.89-2.39-1.78-4.97-2.67-7.73-.89-2.76-1.75-5.49-2.58-8.19-.83-2.7-1.55-5.18-2.16-7.45l3.86,4.78-6.81,1.56,1.75-6.16c.18,1.35.4,3.19.64,5.52.24,2.33.47,4.94.69,7.82.21,2.88.41,5.8.6,8.74.18,2.94.34,5.7.46,8.28.12,2.58.18,4.75.18,6.53v10.3h-14.72v-55.2h20.98l7.82,14.72c1.16,2.15,2.28,4.63,3.36,7.45,1.07,2.82,2.07,5.7,2.99,8.65.92,2.94,1.7,5.66,2.35,8.14.64,2.48,1.12,4.46,1.43,5.93l-2.12-3.68,4.23-1.01.28,5.89c-.43-1.9-.84-4.35-1.24-7.36-.4-3-.74-6.21-1.01-9.61s-.51-6.67-.69-9.8c-.18-3.13-.28-5.8-.28-8v-11.32h14.72v55.2h-20.88Z" style="fill:#fff; stroke-width:0px;"/><path d="m777.72,206.67v-14.72h45.63v14.72h-45.63Zm14.54-14.72h16.56v55.2h-16.56v-55.2Z" style="fill:#fff; stroke-width:0px;"/><path d="m847.27,247.15h-16.56v-55.2h16.56v55.2Zm-9.75-55.2h37.17v12.88h-37.17v-12.88Zm0,32.84v-10.76h35.33v10.76h-35.33Zm0,9.48h37.17v12.88h-37.17v-12.88Z" style="fill:#fff; stroke-width:0px;"/><path d="m901.36,247.15h-16.56v-55.2h16.56v55.2Zm-9.75-55.2h37.17v12.88h-37.17v-12.88Zm0,32.84v-10.76h35.33v10.76h-35.33Zm0,9.48h37.17v12.88h-37.17v-12.88Z" style="fill:#fff; stroke-width:0px;"/><path d="m970.82,247.15l-8.65-17.94c-.8-1.66-1.64-3.68-2.53-6.07-.89-2.39-1.78-4.97-2.67-7.73-.89-2.76-1.75-5.49-2.58-8.19-.83-2.7-1.55-5.18-2.16-7.45l3.86,4.78-6.81,1.56,1.75-6.16c.18,1.35.4,3.19.64,5.52.25,2.33.47,4.94.69,7.82.21,2.88.41,5.8.6,8.74.18,2.94.34,5.7.46,8.28.12,2.58.18,4.75.18,6.53v10.3h-14.72v-55.2h20.98l7.82,14.72c1.16,2.15,2.28,4.63,3.36,7.45,1.07,2.82,2.07,5.7,2.99,8.65.92,2.94,1.7,5.66,2.35,8.14.64,2.48,1.12,4.46,1.43,5.93l-2.12-3.68,4.23-1.01.28,5.89c-.43-1.9-.84-4.35-1.24-7.36-.4-3-.74-6.21-1.01-9.61-.28-3.4-.51-6.67-.69-9.8-.18-3.13-.28-5.8-.28-8v-11.32h14.72v55.2h-20.88Z" style="fill:#fff; stroke-width:0px;"/><path d="m514.88,327.15h-16.56v-55.2h16.56v55.2Z" style="fill:#fff; stroke-width:0px;"/><path d="m557.84,327.15l-8.65-17.94c-.8-1.66-1.64-3.68-2.53-6.07-.89-2.39-1.78-4.97-2.67-7.73-.89-2.76-1.75-5.49-2.58-8.19-.83-2.7-1.55-5.18-2.16-7.45l3.86,4.78-6.81,1.56,1.75-6.16c.18,1.35.4,3.19.64,5.52.24,2.33.47,4.94.69,7.82.21,2.88.41,5.8.6,8.74.18,2.94.34,5.7.46,8.28.12,2.58.18,4.75.18,6.53v10.3h-14.72v-55.2h20.98l7.82,14.72c1.16,2.15,2.28,4.63,3.36,7.45,1.07,2.82,2.07,5.7,2.99,8.65.92,2.94,1.7,5.66,2.35,8.14.64,2.48,1.12,4.46,1.43,5.93l-2.12-3.68,4.23-1.01.28,5.89c-.43-1.9-.84-4.35-1.24-7.36-.4-3-.74-6.21-1.01-9.61-.28-3.4-.51-6.67-.69-9.8-.18-3.13-.28-5.8-.28-8v-11.32h14.72v55.2h-20.88Z" style="fill:#fff; stroke-width:0px;"/><path d="m606.32,327.15h-16.56v-55.2h16.56v55.2Zm-9.75-55.2h35.33v14.72h-35.33v-14.72Zm0,40.11v-12.79h33.49v12.79h-33.49Z" style="fill:#fff; stroke-width:0px;"/><path d="m665.94,328.53c-4.42,0-8.36-.6-11.82-1.79-3.47-1.2-6.38-3-8.74-5.43-2.36-2.42-4.16-5.46-5.38-9.11-1.23-3.65-1.84-7.93-1.84-12.83,0-6.56,1.13-11.96,3.4-16.19,2.27-4.23,5.49-7.39,9.66-9.48,4.17-2.08,9.08-3.13,14.72-3.13,4.29,0,8.16.58,11.59,1.75,3.43,1.17,6.35,2.93,8.74,5.29,2.39,2.36,4.23,5.35,5.52,8.97,1.29,3.62,1.93,7.88,1.93,12.79,0,6.5-1.09,11.91-3.27,16.24-2.18,4.32-5.32,7.56-9.43,9.71-4.11,2.15-9.14,3.22-15.09,3.22Zm-.18-13.43c2.94,0,5.26-.6,6.95-1.79,1.69-1.2,2.87-2.97,3.54-5.34.67-2.36,1.01-5.23,1.01-8.6s-.34-6.24-1.01-8.42c-.68-2.18-1.83-3.8-3.45-4.88-1.63-1.07-3.91-1.61-6.85-1.61s-5.15.54-6.81,1.61c-1.66,1.07-2.82,2.71-3.5,4.92-.68,2.21-1.01,5-1.01,8.37s.34,6.23,1.01,8.56c.67,2.33,1.82,4.11,3.45,5.34,1.62,1.23,3.85,1.84,6.67,1.84Z" style="fill:#fff; stroke-width:0px;"/><path d="m711.84,284.83l7.27-9.75v52.07h-16.56v-55.2h25.39c4.97,0,9.17.72,12.6,2.16,3.43,1.44,6.04,3.65,7.82,6.62,1.78,2.98,2.67,6.73,2.67,11.27s-.95,8.25-2.85,11.13c-1.9,2.88-4.57,5.01-8,6.39-3.44,1.38-7.48,2.07-12.14,2.07h-15.92l.09-11.22h14.08c3.31,0,5.53-.63,6.67-1.89,1.13-1.26,1.7-3.2,1.7-5.84,0-1.9-.29-3.42-.87-4.55-.58-1.13-1.5-1.96-2.76-2.48-1.26-.52-2.93-.78-5.01-.78h-14.17Zm28.15,21.16l13.8,19.32v1.84h-19.23l-11.68-21.16h17.11Z" style="fill:#fff; stroke-width:0px;"/><path d="m795.84,316.48c.18-1.96.49-4.19.92-6.67.43-2.48.9-5,1.43-7.54.52-2.54,1.04-4.92,1.56-7.13.52-2.21.97-4.02,1.33-5.43l4.6-17.76h24.84v55.2h-16.56v-20.24c0-3.56.06-7.24.18-11.04.12-3.8.26-7.45.41-10.95.15-3.5.23-6.53.23-9.11l3.68,9.48h-8l3.96-10.03c-.55,3.01-1.21,6.32-1.98,9.94-.77,3.62-1.64,7.39-2.62,11.32-.98,3.93-2.15,7.88-3.5,11.87l-4.42,13.43h-15l-4.23-13.8c-1.29-4.23-2.39-8.2-3.31-11.91-.92-3.71-1.73-7.28-2.44-10.72-.71-3.43-1.4-6.9-2.07-10.4l3.68,10.3h-7.08l3.04-9.66c.12,2.76.2,5.89.23,9.38.03,3.5.05,7.13.05,10.9v31.23h-14.63v-55.2h26.5l4.69,18.4c.31,1.29.72,2.96,1.24,5.01.52,2.06,1.07,4.32,1.66,6.81.58,2.48,1.13,4.97,1.66,7.45.52,2.48.97,4.8,1.33,6.95l-5.34-10.49h7.91l-3.96,10.4Z" style="fill:#fff; stroke-width:0px;"/><path d="m868.79,284h-9.84l4.69-9.38c-.49,2.58-1,5.18-1.52,7.82-.52,2.64-1.04,5.29-1.56,7.96s-1.09,5.35-1.7,8.05l-6.26,28.7h-17.02l15.18-55.2h26.4l15.27,55.2h-17.76l-6.07-28.7c-.55-2.7-1.09-5.38-1.61-8.05-.52-2.67-1.01-5.32-1.47-7.96-.46-2.64-.94-5.24-1.43-7.82l4.69,9.38Zm9.02,31.56h-28.89v-10.49h28.89v10.49Z" style="fill:#fff; stroke-width:0px;"/><path d="m890.14,286.67v-14.72h45.63v14.72h-45.63Zm14.54-14.72h16.56v55.2h-16.56v-55.2Z" style="fill:#fff; stroke-width:0px;"/><path d="m959.69,327.15h-16.56v-55.2h16.56v55.2Z" style="fill:#fff; stroke-width:0px;"/><path d="m996.3,328.53c-4.42,0-8.36-.6-11.82-1.79-3.47-1.2-6.38-3-8.74-5.43-2.36-2.42-4.16-5.46-5.38-9.11-1.23-3.65-1.84-7.93-1.84-12.83,0-6.56,1.13-11.96,3.4-16.19,2.27-4.23,5.49-7.39,9.66-9.48,4.17-2.08,9.08-3.13,14.72-3.13,4.29,0,8.16.58,11.59,1.75,3.43,1.17,6.35,2.93,8.74,5.29,2.39,2.36,4.23,5.35,5.52,8.97,1.29,3.62,1.93,7.88,1.93,12.79,0,6.5-1.09,11.91-3.27,16.24-2.18,4.32-5.32,7.56-9.43,9.71-4.11,2.15-9.14,3.22-15.09,3.22Zm-.18-13.43c2.94,0,5.26-.6,6.95-1.79,1.69-1.2,2.87-2.97,3.54-5.34.67-2.36,1.01-5.23,1.01-8.6s-.34-6.24-1.01-8.42c-.68-2.18-1.83-3.8-3.45-4.88-1.63-1.07-3.91-1.61-6.85-1.61s-5.15.54-6.81,1.61c-1.66,1.07-2.82,2.71-3.5,4.92-.68,2.21-1.01,5-1.01,8.37s.34,6.23,1.01,8.56c.67,2.33,1.82,4.11,3.45,5.34,1.62,1.23,3.85,1.84,6.67,1.84Zm26.13,19.41v1.84h-16.74l-6.72-12.14,11.13-6.9,12.33,17.2Z" style="fill:#fff; stroke-width:0px;"/><path d="m1058.59,315.1c2.33,0,4.14-.31,5.43-.92,1.29-.61,2.19-1.59,2.71-2.94.52-1.35.78-3.13.78-5.34v-33.95h16.56v34.13c0,7.36-2.19,12.93-6.58,16.7-4.39,3.77-10.69,5.66-18.91,5.66s-14.6-1.89-18.95-5.66c-4.36-3.77-6.53-9.34-6.53-16.7v-34.13h16.56v33.95c0,2.21.26,3.99.78,5.34.52,1.35,1.43,2.33,2.71,2.94,1.29.61,3.1.92,5.43.92Z" style="fill:#fff; stroke-width:0px;"/><path d="m1111.49,327.15h-16.56v-55.2h16.56v55.2Zm-9.75-55.2h37.17v12.88h-37.17v-12.88Zm0,32.84v-10.76h35.33v10.76h-35.33Zm0,9.48h37.17v12.88h-37.17v-12.88Z" style="fill:#fff; stroke-width:0px;"/><path d="m399.78,151.24l-20.46,27.16c-1.57,2.08-4.91,3.76-7.46,3.76l-67.03-.14c-7.66-.02-12.25,6.17-10.26,13.8l6.44,24.67c.66,2.54-.07,6.3-1.64,8.38l-20.46,27.16c-1.57,2.08-3.32,1.69-3.92-.87l-13.08-56.03c-1.79-7.69.56-18.99,5.26-25.23l10.33-13.72c4.7-6.24,14.73-11.38,22.39-11.47l98.09-1.18c2.55-.03,3.35,1.63,1.78,3.71Z" style="fill:#fff; stroke-width:0px;"/><path d="m225.3,309.76l20.46-27.16c1.57-2.08,4.91-3.76,7.46-3.76l67.03.14c7.66.02,12.25-6.17,10.26-13.8l-6.44-24.67c-.66-2.54.07-6.3,1.64-8.38l20.46-27.16c1.57-2.08,3.32-1.69,3.92.87l13.08,56.03c1.79,7.69-.56,18.99-5.26,25.23l-10.33,13.72c-4.7,6.24-14.73,11.38-22.39,11.47l-98.09,1.18c-2.55.03-3.35-1.63-1.78-3.71Z" style="fill:#c2ceec; stroke-width:0px;"/></g></svg>