<?xml version="1.0" encoding="UTF-8" standalone="no"?><!-- Generator: Gravit.io --><svg xmlns="http://www.w3.org/2000/svg" xmlns:xlink="http://www.w3.org/1999/xlink" style="isolation:isolate" viewBox="0 0 168 168" width="168pt" height="168pt"><defs><clipPath id="_clipPath_HB8JILgZQ6cFKJQvu6YD52ZsXR6PBwdO"><rect width="168" height="168"/></clipPath></defs><g clip-path="url(#_clipPath_HB8JILgZQ6cFKJQvu6YD52ZsXR6PBwdO)"><g><g><path d=" M 23.405 125.265 L 23.405 117.015 L 40.975 99.445 L 40.975 85.335 L 60.395 65.915 L 144.595 65.825 L 144.595 89.665 L 108.995 125.265 L 23.405 125.265 L 23.405 125.265 Z " fill="rgb(4,4,4)"/><path d=" M 58.575 67.295 L 40.975 84.905 L 125.525 84.905 L 143.125 67.295 L 58.575 67.295 L 58.575 67.295 Z " fill="rgb(76,76,76)"/><rect x="40.975" y="84.905" width="84.55" height="21.33" transform="matrix(1,0,0,1,0,0)" fill="rgb(230,230,230)"/><rect x="40.975" y="96.725" width="84.55" height="2.29" transform="matrix(1,0,0,1,0,0)" fill="rgb(153,153,153)"/><path d=" M 125.525 106.225 L 125.525 84.905 L 143.125 67.295 L 143.125 88.625 L 125.525 106.225 L 125.525 106.225 Z " fill="rgb(102,102,102)"/><rect x="46.775" y="89.805" width="7.79" height="4.14" transform="matrix(1,0,0,1,0,0)" fill="rgb(34,181,1)"/><path d=" M 52.725 89.805 L 52.725 92.575 L 46.775 92.575 L 46.775 93.955 L 54.565 93.955 L 54.565 89.805 L 52.725 89.805 L 52.725 89.805 Z " fill="rgb(34,181,1)"/><rect x="100.345" y="89.805" width="22.97" height="4.14" transform="matrix(1,0,0,1,0,0)" fill="rgb(88,88,88)"/><rect x="100.345" y="91.885" width="22.97" height="2.07" transform="matrix(1,0,0,1,0,0)" fill="rgb(4,4,4)"/><path d=" M 40.975 99.015 L 23.405 116.585 L 107.955 116.585 L 125.525 99.015 L 40.975 99.015 L 40.975 99.015 Z " fill="rgb(230,230,230)"/><rect x="23.405" y="116.585" width="84.55" height="7.21" transform="matrix(1,0,0,1,0,0)" fill="rgb(153,153,153)"/><path d=" M 107.955 123.795 L 107.955 116.585 L 125.525 99.015 L 125.525 106.225 L 107.955 123.795 L 107.955 123.795 Z " fill="rgb(102,102,102)"/><path d=" M 33.305 114.815 C 33.115 114.815 32.925 114.745 32.785 114.595 C 32.495 114.305 32.495 113.845 32.785 113.555 L 34.345 111.995 C 34.635 111.705 35.095 111.705 35.385 111.995 C 35.675 112.285 35.675 112.755 35.385 113.035 L 33.825 114.595 C 33.685 114.735 33.495 114.815 33.305 114.815 Z  M 36.955 111.165 C 36.765 111.165 36.575 111.095 36.435 110.945 C 36.145 110.655 36.145 110.195 36.435 109.905 L 38.005 108.335 C 38.295 108.045 38.755 108.045 39.045 108.335 C 39.335 108.625 39.335 109.095 39.045 109.375 L 37.475 110.945 C 37.335 111.085 37.145 111.165 36.955 111.165 Z  M 40.605 107.515 C 40.415 107.515 40.225 107.445 40.085 107.295 C 39.795 107.005 39.795 106.535 40.085 106.255 L 41.655 104.685 C 41.945 104.395 42.405 104.395 42.695 104.685 C 42.985 104.975 42.985 105.445 42.695 105.725 L 41.125 107.295 C 40.985 107.435 40.795 107.515 40.605 107.515 Z  M 44.255 103.865 C 44.065 103.865 43.875 103.795 43.735 103.645 C 43.445 103.355 43.445 102.885 43.735 102.605 L 45.165 101.175 C 45.455 100.885 45.925 100.885 46.205 101.175 C 46.485 101.465 46.495 101.925 46.205 102.215 L 44.775 103.645 C 44.635 103.785 44.445 103.865 44.255 103.865 Z " fill="rgb(102,102,102)"/><path d=" M 40.285 114.815 C 40.095 114.815 39.905 114.745 39.765 114.595 C 39.475 114.305 39.475 113.845 39.765 113.555 L 41.325 111.995 C 41.615 111.705 42.075 111.705 42.365 111.995 C 42.655 112.285 42.655 112.755 42.365 113.035 L 40.805 114.595 C 40.665 114.735 40.475 114.815 40.285 114.815 Z  M 43.935 111.165 C 43.745 111.165 43.555 111.095 43.415 110.945 C 43.125 110.655 43.125 110.195 43.415 109.905 L 44.985 108.335 C 45.275 108.045 45.735 108.045 46.025 108.335 C 46.315 108.625 46.315 109.095 46.025 109.375 L 44.455 110.945 C 44.315 111.085 44.125 111.165 43.935 111.165 Z  M 47.585 107.515 C 47.395 107.515 47.205 107.445 47.065 107.295 C 46.775 107.005 46.775 106.535 47.065 106.255 L 48.635 104.685 C 48.925 104.395 49.385 104.395 49.675 104.685 C 49.965 104.975 49.965 105.445 49.675 105.725 L 48.105 107.295 C 47.965 107.435 47.775 107.515 47.585 107.515 Z  M 51.235 103.865 C 51.045 103.865 50.855 103.795 50.715 103.645 C 50.425 103.355 50.425 102.885 50.715 102.605 L 52.145 101.175 C 52.435 100.885 52.905 100.885 53.185 101.175 C 53.465 101.465 53.475 101.925 53.185 102.215 L 51.755 103.645 C 51.615 103.785 51.425 103.865 51.235 103.865 Z " fill="rgb(102,102,102)"/><path d=" M 47.275 114.815 C 47.085 114.815 46.895 114.745 46.755 114.595 C 46.465 114.305 46.465 113.845 46.755 113.555 L 48.315 111.995 C 48.605 111.705 49.065 111.705 49.355 111.995 C 49.645 112.285 49.645 112.755 49.355 113.035 L 47.795 114.595 C 47.655 114.735 47.465 114.815 47.275 114.815 Z  M 50.925 111.165 C 50.735 111.165 50.545 111.095 50.405 110.945 C 50.115 110.655 50.115 110.195 50.405 109.905 L 51.975 108.335 C 52.265 108.045 52.725 108.045 53.015 108.335 C 53.305 108.625 53.305 109.095 53.015 109.375 L 51.445 110.945 C 51.305 111.085 51.115 111.165 50.925 111.165 Z  M 54.575 107.515 C 54.385 107.515 54.195 107.445 54.055 107.295 C 53.765 107.005 53.765 106.535 54.055 106.255 L 55.625 104.685 C 55.915 104.395 56.375 104.395 56.665 104.685 C 56.955 104.975 56.955 105.445 56.665 105.725 L 55.095 107.295 C 54.955 107.435 54.765 107.515 54.575 107.515 Z  M 58.225 103.865 C 58.035 103.865 57.845 103.795 57.705 103.645 C 57.415 103.355 57.415 102.885 57.705 102.605 L 59.135 101.175 C 59.425 100.885 59.885 100.885 60.175 101.175 C 60.465 101.465 60.465 101.925 60.175 102.215 L 58.745 103.645 C 58.605 103.785 58.415 103.865 58.225 103.865 Z " fill="rgb(102,102,102)"/><path d=" M 54.265 114.815 C 54.075 114.815 53.885 114.745 53.745 114.595 C 53.455 114.305 53.455 113.845 53.745 113.555 L 55.305 111.995 C 55.595 111.705 56.065 111.705 56.345 111.995 C 56.635 112.285 56.635 112.755 56.345 113.035 L 54.785 114.595 C 54.645 114.735 54.455 114.815 54.265 114.815 Z  M 57.915 111.165 C 57.725 111.165 57.535 111.095 57.395 110.945 C 57.105 110.655 57.105 110.195 57.395 109.905 L 58.965 108.335 C 59.255 108.045 59.725 108.045 60.005 108.335 C 60.295 108.625 60.295 109.095 60.005 109.375 L 58.435 110.945 C 58.295 111.085 58.105 111.165 57.915 111.165 Z  M 61.565 107.515 C 61.375 107.515 61.185 107.445 61.045 107.295 C 60.755 107.005 60.755 106.535 61.045 106.255 L 62.615 104.685 C 62.905 104.395 63.375 104.395 63.655 104.685 C 63.945 104.975 63.945 105.445 63.655 105.725 L 62.085 107.295 C 61.945 107.435 61.755 107.515 61.565 107.515 Z  M 65.215 103.865 C 65.025 103.865 64.835 103.795 64.695 103.645 C 64.405 103.355 64.405 102.885 64.695 102.605 L 66.125 101.175 C 66.415 100.885 66.875 100.885 67.165 101.175 C 67.455 101.465 67.455 101.925 67.165 102.215 L 65.735 103.645 C 65.595 103.785 65.405 103.865 65.215 103.865 Z " fill="rgb(102,102,102)"/><path d=" M 61.245 114.815 C 61.055 114.815 60.865 114.745 60.725 114.595 C 60.435 114.305 60.435 113.845 60.725 113.555 L 62.285 111.995 C 62.575 111.705 63.045 111.705 63.325 111.995 C 63.615 112.285 63.615 112.755 63.325 113.035 L 61.765 114.595 C 61.625 114.735 61.435 114.815 61.245 114.815 Z  M 64.895 111.165 C 64.705 111.165 64.515 111.095 64.375 110.945 C 64.085 110.655 64.085 110.195 64.375 109.905 L 65.945 108.335 C 66.235 108.045 66.705 108.045 66.985 108.335 C 67.275 108.625 67.275 109.095 66.985 109.375 L 65.415 110.945 C 65.275 111.085 65.085 111.165 64.895 111.165 Z  M 68.545 107.515 C 68.355 107.515 68.165 107.445 68.025 107.295 C 67.735 107.005 67.735 106.535 68.025 106.255 L 69.595 104.685 C 69.885 104.395 70.345 104.395 70.635 104.685 C 70.925 104.975 70.925 105.445 70.635 105.725 L 69.065 107.295 C 68.925 107.435 68.735 107.515 68.545 107.515 Z  M 72.195 103.865 C 72.005 103.865 71.815 103.795 71.675 103.645 C 71.385 103.355 71.385 102.885 71.675 102.605 L 73.105 101.175 C 73.395 100.885 73.855 100.885 74.145 101.175 C 74.435 101.465 74.435 101.925 74.145 102.215 L 72.715 103.645 C 72.575 103.785 72.385 103.865 72.195 103.865 Z " fill="rgb(102,102,102)"/><path d=" M 68.235 114.815 C 68.045 114.815 67.855 114.745 67.715 114.595 C 67.425 114.305 67.425 113.845 67.715 113.555 L 69.275 111.995 C 69.565 111.705 70.035 111.705 70.315 111.995 C 70.605 112.285 70.605 112.755 70.315 113.035 L 68.755 114.595 C 68.615 114.735 68.425 114.815 68.235 114.815 Z  M 71.885 111.165 C 71.695 111.165 71.505 111.095 71.365 110.945 C 71.075 110.655 71.075 110.195 71.365 109.905 L 72.935 108.335 C 73.225 108.045 73.695 108.045 73.975 108.335 C 74.265 108.625 74.265 109.095 73.975 109.375 L 72.405 110.945 C 72.265 111.085 72.075 111.165 71.885 111.165 Z  M 75.535 107.515 C 75.345 107.515 75.155 107.445 75.015 107.295 C 74.725 107.005 74.725 106.535 75.015 106.255 L 76.585 104.685 C 76.875 104.395 77.345 104.395 77.625 104.685 C 77.915 104.975 77.915 105.445 77.625 105.725 L 76.055 107.295 C 75.915 107.435 75.725 107.515 75.535 107.515 Z  M 79.185 103.865 C 78.995 103.865 78.805 103.795 78.665 103.645 C 78.375 103.355 78.375 102.885 78.665 102.605 L 80.095 101.175 C 80.385 100.885 80.845 100.885 81.135 101.175 C 81.425 101.465 81.425 101.925 81.135 102.215 L 79.705 103.645 C 79.565 103.785 79.375 103.865 79.185 103.865 Z " fill="rgb(102,102,102)"/><path d=" M 75.225 114.815 C 75.035 114.815 74.845 114.745 74.705 114.595 C 74.415 114.305 74.415 113.845 74.705 113.555 L 76.265 111.995 C 76.555 111.705 77.025 111.705 77.305 111.995 C 77.595 112.285 77.595 112.755 77.305 113.035 L 75.745 114.595 C 75.605 114.735 75.415 114.815 75.225 114.815 Z  M 78.875 111.165 C 78.685 111.165 78.495 111.095 78.355 110.945 C 78.065 110.655 78.065 110.195 78.355 109.905 L 79.925 108.335 C 80.215 108.045 80.685 108.045 80.965 108.335 C 81.255 108.625 81.255 109.095 80.965 109.375 L 79.395 110.945 C 79.255 111.085 79.065 111.165 78.875 111.165 Z  M 82.525 107.515 C 82.335 107.515 82.145 107.445 82.005 107.295 C 81.715 107.005 81.715 106.535 82.005 106.255 L 83.575 104.685 C 83.865 104.395 84.335 104.395 84.615 104.685 C 84.905 104.975 84.905 105.445 84.615 105.725 L 83.045 107.295 C 82.905 107.435 82.715 107.515 82.525 107.515 Z  M 86.175 103.865 C 85.985 103.865 85.795 103.795 85.655 103.645 C 85.365 103.355 85.365 102.885 85.655 102.605 L 87.085 101.175 C 87.375 100.885 87.835 100.885 88.125 101.175 C 88.415 101.465 88.415 101.925 88.125 102.215 L 86.695 103.645 C 86.555 103.785 86.365 103.865 86.175 103.865 Z " fill="rgb(102,102,102)"/><path d=" M 82.215 114.815 C 82.025 114.815 81.835 114.745 81.695 114.595 C 81.405 114.305 81.405 113.845 81.695 113.555 L 83.255 111.995 C 83.545 111.705 84.015 111.705 84.295 111.995 C 84.585 112.285 84.585 112.755 84.295 113.035 L 82.735 114.595 C 82.595 114.735 82.405 114.815 82.215 114.815 Z  M 85.865 111.165 C 85.675 111.165 85.485 111.095 85.345 110.945 C 85.055 110.655 85.055 110.195 85.345 109.905 L 86.915 108.335 C 87.205 108.045 87.675 108.045 87.955 108.335 C 88.245 108.625 88.245 109.095 87.955 109.375 L 86.385 110.945 C 86.245 111.085 86.055 111.165 85.865 111.165 Z  M 89.515 107.515 C 89.325 107.515 89.135 107.445 88.995 107.295 C 88.705 107.005 88.705 106.535 88.995 106.255 L 90.565 104.685 C 90.855 104.395 91.325 104.395 91.605 104.685 C 91.895 104.975 91.895 105.445 91.605 105.725 L 90.035 107.295 C 89.895 107.435 89.705 107.515 89.515 107.515 L 89.515 107.515 Z  M 93.165 103.865 C 92.975 103.865 92.785 103.795 92.645 103.645 C 92.355 103.355 92.355 102.885 92.645 102.605 L 94.075 101.175 C 94.365 100.885 94.825 100.885 95.115 101.175 C 95.405 101.465 95.405 101.925 95.115 102.215 L 93.685 103.645 C 93.545 103.785 93.355 103.865 93.165 103.865 L 93.165 103.865 Z " fill="rgb(102,102,102)"/><path d=" M 89.195 114.815 C 89.005 114.815 88.815 114.745 88.675 114.595 C 88.385 114.305 88.385 113.845 88.675 113.555 L 90.235 111.995 C 90.525 111.705 90.995 111.705 91.275 111.995 C 91.565 112.285 91.565 112.755 91.275 113.035 L 89.715 114.595 C 89.575 114.735 89.385 114.815 89.195 114.815 L 89.195 114.815 Z  M 92.845 111.165 C 92.655 111.165 92.465 111.095 92.325 110.945 C 92.035 110.655 92.035 110.195 92.325 109.905 L 93.895 108.335 C 94.185 108.045 94.645 108.045 94.935 108.335 C 95.225 108.625 95.225 109.095 94.935 109.375 L 93.365 110.945 C 93.225 111.085 93.035 111.165 92.845 111.165 L 92.845 111.165 Z  M 96.495 107.515 C 96.305 107.515 96.115 107.445 95.975 107.295 C 95.685 107.005 95.685 106.535 95.975 106.255 L 97.545 104.685 C 97.835 104.395 98.305 104.395 98.585 104.685 C 98.875 104.975 98.875 105.445 98.585 105.725 L 97.015 107.295 C 96.875 107.435 96.685 107.515 96.495 107.515 L 96.495 107.515 Z  M 100.145 103.865 C 99.955 103.865 99.765 103.795 99.625 103.645 C 99.335 103.355 99.335 102.885 99.625 102.605 L 101.055 101.175 C 101.345 100.885 101.805 100.885 102.095 101.175 C 102.385 101.465 102.385 101.925 102.095 102.215 L 100.665 103.645 C 100.525 103.785 100.335 103.865 100.145 103.865 L 100.145 103.865 Z " fill="rgb(102,102,102)"/><path d=" M 96.185 114.815 C 95.995 114.815 95.805 114.745 95.665 114.595 C 95.375 114.305 95.375 113.845 95.665 113.555 L 97.225 111.995 C 97.515 111.705 97.975 111.705 98.265 111.995 C 98.555 112.285 98.555 112.755 98.265 113.035 L 96.705 114.595 C 96.565 114.735 96.375 114.815 96.185 114.815 L 96.185 114.815 Z  M 99.835 111.165 C 99.645 111.165 99.455 111.095 99.315 110.945 C 99.025 110.655 99.025 110.195 99.315 109.905 L 100.885 108.335 C 101.175 108.045 101.635 108.045 101.925 108.335 C 102.215 108.625 102.215 109.095 101.925 109.375 L 100.355 110.945 C 100.215 111.085 100.025 111.165 99.835 111.165 L 99.835 111.165 Z  M 103.485 107.515 C 103.295 107.515 103.105 107.445 102.965 107.295 C 102.675 107.005 102.675 106.535 102.965 106.255 L 104.535 104.685 C 104.825 104.395 105.285 104.395 105.575 104.685 C 105.865 104.975 105.865 105.445 105.575 105.725 L 104.005 107.295 C 103.865 107.435 103.675 107.515 103.485 107.515 L 103.485 107.515 Z  M 107.135 103.865 C 106.945 103.865 106.755 103.795 106.615 103.645 C 106.325 103.355 106.325 102.885 106.615 102.605 L 108.045 101.175 C 108.335 100.885 108.795 100.885 109.085 101.175 C 109.375 101.465 109.375 101.925 109.085 102.215 L 107.655 103.645 C 107.515 103.785 107.325 103.865 107.135 103.865 L 107.135 103.865 Z " fill="rgb(102,102,102)"/><path d=" M 103.175 114.815 C 102.985 114.815 102.795 114.745 102.655 114.595 C 102.365 114.305 102.365 113.845 102.655 113.555 L 104.215 111.995 C 104.505 111.705 104.965 111.705 105.255 111.995 C 105.545 112.285 105.545 112.755 105.255 113.035 L 103.695 114.595 C 103.555 114.735 103.365 114.815 103.175 114.815 L 103.175 114.815 Z  M 106.825 111.165 C 106.635 111.165 106.445 111.095 106.305 110.945 C 106.015 110.655 106.015 110.195 106.305 109.905 L 107.875 108.335 C 108.165 108.045 108.625 108.045 108.915 108.335 C 109.205 108.625 109.205 109.095 108.915 109.375 L 107.345 110.945 C 107.205 111.085 107.015 111.165 106.825 111.165 L 106.825 111.165 Z  M 110.475 107.515 C 110.285 107.515 110.095 107.445 109.955 107.295 C 109.665 107.005 109.665 106.535 109.955 106.255 L 111.525 104.685 C 111.815 104.395 112.275 104.395 112.565 104.685 C 112.855 104.975 112.855 105.445 112.565 105.725 L 110.995 107.295 C 110.855 107.435 110.665 107.515 110.475 107.515 L 110.475 107.515 Z  M 114.125 103.865 C 113.935 103.865 113.745 103.795 113.605 103.645 C 113.315 103.355 113.315 102.885 113.605 102.605 L 115.035 101.175 C 115.325 100.885 115.785 100.885 116.075 101.175 C 116.365 101.465 116.365 101.925 116.075 102.215 L 114.645 103.645 C 114.505 103.785 114.315 103.865 114.125 103.865 L 114.125 103.865 Z " fill="rgb(102,102,102)"/><path d=" M 46.775 82.785 L 46.775 14.525 L 55.355 5.945 L 61.795 2.225 L 139.265 2.225 L 139.265 67.865 L 124.355 82.785 L 46.775 82.785 L 46.775 82.785 Z " fill="rgb(4,4,4)"/><path d=" M 46.775 14.095 L 46.775 81.305 L 51.985 76.095 L 118.105 19.295 L 123.305 14.095 L 46.775 14.095 L 46.775 14.095 Z " fill="rgb(242,242,242)"/><path d=" M 123.305 14.095 L 123.305 81.305 L 46.775 81.305 L 50.395 77.695 L 51.985 76.095 L 118.105 19.295 L 119.695 17.705 L 123.305 14.095 L 123.305 14.095 Z " fill="rgb(230,230,230)"/><path d=" M 51.985 76.095 L 51.985 19.295 L 50.395 17.705 L 50.395 77.695 L 51.985 76.095 L 51.985 76.095 Z " fill="rgb(76,76,76)"/><path d=" M 51.985 19.295 L 50.395 17.705 L 119.695 17.705 L 118.105 19.295 L 51.985 19.295 L 51.985 19.295 Z " fill="rgb(76,76,76)"/><path d=" M 51.985 76.095 L 50.395 77.695 L 119.695 77.695 L 118.105 76.095 L 51.985 76.095 L 51.985 76.095 Z " fill="rgb(242,242,242)"/><path d=" M 118.105 19.295 L 118.105 76.095 L 119.695 77.695 L 119.695 17.705 L 118.105 19.295 L 118.105 19.295 Z " fill="rgb(242,242,242)"/><linearGradient id="_lgradient_0" x1="0.03523895946763461" y1="-0.04102112676056335" x2="0.9647610405323654" y2="0.8885009543041679" gradientTransform="matrix(66.12,0,0,56.8,51.985,19.295)" gradientUnits="userSpaceOnUse"><stop offset="0%" stop-opacity="1" style="stop-color:rgb(48,190,191)"/><stop offset="50%" stop-opacity="1" style="stop-color:rgb(83,168,169)"/><stop offset="60%" stop-opacity="1" style="stop-color:rgb(74,163,164)"/><stop offset="75%" stop-opacity="1" style="stop-color:rgb(49,152,153)"/><stop offset="95%" stop-opacity="1" style="stop-color:rgb(10,133,134)"/><stop offset="100%" stop-opacity="1" style="stop-color:rgb(0,129,130)"/></linearGradient><rect x="51.985" y="19.295" width="66.12" height="56.8" transform="matrix(1,0,0,1,0,0)" fill="url(#_lgradient_0)"/><rect x="76.545" y="34.515" width="30.4" height="18.18" transform="matrix(1,0,0,1,0,0)" fill="rgb(230,230,230)"/><path d=" M 76.545 34.515 L 76.545 43.955 L 78.355 43.955 L 78.355 36.325 L 105.125 36.325 L 105.125 50.885 L 93.195 50.885 L 93.195 52.695 L 106.935 52.695 L 106.935 34.515 L 76.545 34.515 L 76.545 34.515 Z " fill="rgb(1,0,190)"/><rect x="77.445" y="35.415" width="28.59" height="2.31" transform="matrix(1,0,0,1,0,0)" fill="rgb(1,0,190)"/><path d=" M 93.545 60.885 L 63.145 60.885 L 63.145 42.705 L 93.545 42.705 L 93.545 60.885 Z  M 64.955 59.075 L 91.735 59.075 L 91.735 44.515 L 64.955 44.515 L 64.955 59.075 Z " fill="rgb(1,0,190)"/><rect x="64.055" y="43.605" width="28.59" height="2.31" transform="matrix(1,0,0,1,0,0)" fill="rgb(1,0,190)"/><path d=" M 64.965 59.075 L 91.745 59.075 L 91.745 44.515 L 64.965 44.515 L 64.965 59.075 Z " fill="rgb(255,255,255)"/><path d=" M 131.605 5.795 L 55.075 5.795 L 46.775 14.095 L 123.305 14.095 L 131.605 5.795 L 131.605 5.795 Z " fill="rgb(230,230,230)"/><path d=" M 137.795 2.225 L 61.255 2.225 L 55.075 5.795 L 131.605 5.795 L 137.795 2.225 L 137.795 2.225 Z " fill="rgb(153,153,153)"/><path d=" M 131.605 73.015 L 137.795 66.825 L 137.795 2.225 L 131.605 5.795 L 131.605 73.015 L 131.605 73.015 Z " fill="rgb(102,102,102)"/><path d=" M 123.305 81.305 L 131.605 73.015 L 131.605 5.795 L 123.305 14.095 L 123.305 81.305 L 123.305 81.305 Z " fill="rgb(153,153,153)"/><path d=" M 107.955 117.475 L 23.405 117.475 L 23.405 116.585 L 107.805 116.585 L 125.155 98.865 L 125.155 85.265 L 40.975 85.265 L 40.975 84.535 L 125.895 84.535 L 125.895 99.165 L 107.955 117.475 L 107.955 117.475 Z " fill="rgb(242,242,242)"/><path d=" M 27.245 151.495 C 27.245 148.515 27.985 146.175 29.465 144.485 C 30.945 142.795 33.065 141.945 35.835 141.945 C 37.455 141.945 38.795 142.215 39.845 142.765 C 40.905 143.315 41.665 144.065 42.125 145.025 C 42.365 145.515 42.325 145.855 42.015 146.045 L 41.005 146.635 C 40.665 146.835 40.365 146.665 40.095 146.145 C 39.815 145.605 39.355 145.105 38.715 144.635 C 38.075 144.165 37.155 143.935 35.965 143.935 C 33.835 143.935 32.285 144.595 31.315 145.925 C 30.345 147.255 29.865 149.105 29.865 151.495 C 29.865 153.885 30.345 155.735 31.315 157.065 C 32.285 158.385 33.835 159.055 35.965 159.055 C 37.195 159.055 38.175 158.775 38.915 158.215 C 39.655 157.655 40.185 157.065 40.515 156.455 C 40.775 155.965 41.085 155.815 41.435 156.005 L 42.495 156.605 C 42.805 156.785 42.825 157.125 42.575 157.625 C 42.075 158.605 41.255 159.425 40.125 160.075 C 38.995 160.725 37.565 161.055 35.845 161.055 C 33.075 161.055 30.955 160.205 29.475 158.515 C 27.995 156.825 27.255 154.485 27.255 151.505 L 27.245 151.495 Z " fill="rgb(0,0,0)"/><path d=" M 45.075 153.955 C 45.075 151.955 45.605 150.295 46.665 148.985 C 47.725 147.675 49.275 147.025 51.325 147.025 C 53.375 147.025 54.925 147.675 55.985 148.985 C 57.045 150.295 57.575 151.945 57.575 153.955 C 57.575 155.965 57.045 157.615 55.985 158.925 C 54.925 160.235 53.375 160.885 51.325 160.885 C 49.275 160.885 47.725 160.235 46.665 158.925 C 45.605 157.615 45.075 155.965 45.075 153.955 Z  M 47.455 153.955 C 47.455 155.745 47.805 157.065 48.515 157.925 C 49.225 158.785 50.155 159.215 51.325 159.215 C 52.495 159.215 53.425 158.785 54.135 157.925 C 54.845 157.065 55.195 155.735 55.195 153.955 C 55.195 152.175 54.845 150.845 54.135 149.985 C 53.425 149.125 52.495 148.695 51.325 148.695 C 50.155 148.695 49.225 149.125 48.515 149.985 C 47.805 150.845 47.455 152.175 47.455 153.955 Z " fill="rgb(0,0,0)"/><path d=" M 61.045 160.665 C 60.665 160.665 60.475 160.475 60.475 160.085 L 60.475 147.815 C 60.475 147.435 60.665 147.235 61.055 147.235 L 62.125 147.235 C 62.505 147.235 62.705 147.425 62.705 147.815 L 62.705 148.835 C 63.255 148.225 63.855 147.765 64.495 147.465 C 65.135 147.165 65.755 147.015 66.345 147.015 C 67.435 147.015 68.275 147.215 68.865 147.615 C 69.455 148.015 69.835 148.425 70.005 148.825 L 70.055 148.825 C 70.515 148.315 71.105 147.885 71.805 147.535 C 72.515 147.185 73.265 147.015 74.065 147.015 C 75.405 147.015 76.415 147.455 77.095 148.325 C 77.775 149.195 78.115 150.395 78.115 151.905 L 78.115 160.075 C 78.115 160.455 77.925 160.655 77.535 160.655 L 76.435 160.655 C 76.055 160.655 75.855 160.465 75.855 160.075 L 75.855 152.645 C 75.855 150.975 75.655 149.895 75.245 149.405 C 74.835 148.915 74.205 148.665 73.355 148.665 C 72.505 148.665 71.825 149.025 71.265 149.755 C 70.705 150.485 70.425 151.585 70.425 153.045 L 70.425 160.065 C 70.425 160.445 70.235 160.645 69.855 160.645 L 68.755 160.645 C 68.375 160.645 68.185 160.455 68.185 160.065 L 68.185 152.635 C 68.185 150.965 67.975 149.885 67.565 149.395 C 67.155 148.905 66.515 148.655 65.665 148.655 C 64.815 148.655 64.125 148.985 63.555 149.645 C 62.995 150.305 62.715 151.435 62.715 153.035 L 62.715 160.055 C 62.715 160.435 62.525 160.635 62.145 160.635 L 61.055 160.635 L 61.045 160.665 Z " fill="rgb(0,0,0)"/><path d=" M 82.465 165.775 C 82.105 165.775 81.925 165.585 81.925 165.205 L 81.925 147.825 C 81.925 147.445 82.115 147.245 82.505 147.245 L 83.575 147.245 C 83.885 147.245 84.035 147.435 84.035 147.825 L 84.035 148.845 C 84.515 148.285 85.045 147.835 85.645 147.515 C 86.245 147.195 87.035 147.025 88.035 147.025 C 89.765 147.025 91.075 147.725 91.975 149.115 C 92.875 150.505 93.325 152.125 93.325 153.955 C 93.325 155.785 92.875 157.395 91.975 158.795 C 91.075 160.185 89.765 160.885 88.035 160.885 C 87.045 160.885 86.245 160.725 85.645 160.395 C 85.045 160.075 84.515 159.625 84.035 159.065 L 84.005 159.065 C 84.025 159.325 84.035 159.585 84.035 159.845 L 84.035 165.205 C 84.035 165.585 83.855 165.775 83.495 165.775 L 82.465 165.775 Z  M 84.035 155.425 C 84.035 156.705 84.345 157.655 84.965 158.285 C 85.585 158.915 86.365 159.225 87.305 159.225 C 88.625 159.225 89.565 158.735 90.115 157.765 C 90.665 156.795 90.945 155.525 90.945 153.955 C 90.945 152.385 90.665 151.115 90.115 150.145 C 89.565 149.175 88.625 148.685 87.305 148.685 C 86.365 148.685 85.585 148.995 84.965 149.625 C 84.345 150.255 84.035 151.205 84.035 152.485 L 84.035 155.425 Z " fill="rgb(0,0,0)"/><path d=" M 96.205 155.985 L 96.205 147.815 C 96.205 147.435 96.395 147.235 96.785 147.235 L 97.885 147.235 C 98.265 147.235 98.465 147.425 98.465 147.815 L 98.465 155.365 C 98.465 157.035 98.745 158.095 99.295 158.545 C 99.845 158.995 100.535 159.215 101.355 159.215 C 102.435 159.215 103.265 158.885 103.845 158.225 C 104.425 157.565 104.705 156.435 104.705 154.835 L 104.705 147.815 C 104.705 147.435 104.895 147.235 105.275 147.235 L 106.365 147.235 C 106.745 147.235 106.935 147.425 106.935 147.815 L 106.935 160.085 C 106.935 160.465 106.745 160.665 106.365 160.665 L 105.295 160.665 C 104.915 160.665 104.725 160.475 104.725 160.085 L 104.725 159.065 C 104.165 159.675 103.565 160.135 102.915 160.435 C 102.265 160.735 101.475 160.885 100.545 160.885 C 99.055 160.885 97.965 160.445 97.275 159.575 C 96.585 158.705 96.235 157.505 96.235 155.995 L 96.205 155.985 Z " fill="rgb(0,0,0)"/><path d=" M 109.885 148.935 C 109.505 148.935 109.305 148.785 109.305 148.485 L 109.305 147.695 C 109.305 147.395 109.495 147.245 109.885 147.245 L 111.395 147.245 L 111.395 146.095 C 111.395 145.925 111.435 145.765 111.525 145.605 L 112.415 143.985 C 112.575 143.685 112.705 143.535 112.815 143.535 L 113.265 143.535 C 113.525 143.535 113.645 143.685 113.645 143.985 L 113.645 147.245 L 116.365 147.245 C 116.745 147.245 116.935 147.395 116.935 147.695 L 116.935 148.485 C 116.935 148.785 116.745 148.935 116.365 148.935 L 113.645 148.935 L 113.645 157.075 C 113.645 157.965 113.775 158.555 114.045 158.815 C 114.315 159.085 114.635 159.215 115.015 159.215 C 115.305 159.215 115.655 159.125 116.055 158.955 C 116.455 158.785 116.735 158.635 116.895 158.525 C 117.045 158.405 117.165 158.445 117.255 158.635 L 117.675 159.615 C 117.745 159.785 117.695 159.925 117.525 160.025 C 117.195 160.225 116.705 160.415 116.065 160.595 C 115.425 160.775 114.785 160.865 114.145 160.865 C 113.255 160.865 112.575 160.545 112.105 159.905 C 111.635 159.265 111.395 158.365 111.395 157.195 L 111.395 148.915 L 109.885 148.915 L 109.885 148.935 Z " fill="rgb(0,0,0)"/><path d=" M 119.485 153.955 C 119.485 151.845 120.015 150.155 121.065 148.905 C 122.125 147.655 123.635 147.025 125.605 147.025 C 127.245 147.025 128.595 147.595 129.675 148.745 C 130.755 149.895 131.295 151.725 131.295 154.235 C 131.295 154.615 131.115 154.815 130.765 154.815 L 121.805 154.815 C 121.955 156.465 122.395 157.615 123.145 158.255 C 123.895 158.905 124.735 159.225 125.685 159.225 C 126.685 159.225 127.445 159.055 127.975 158.725 C 128.505 158.395 128.895 158.065 129.145 157.735 C 129.415 157.375 129.685 157.305 129.935 157.535 L 130.685 158.185 C 130.885 158.355 130.885 158.595 130.685 158.885 C 130.525 159.135 130.065 159.525 129.295 160.065 C 128.535 160.605 127.335 160.875 125.695 160.875 C 123.565 160.875 121.995 160.245 120.985 158.995 C 119.975 157.745 119.475 156.065 119.475 153.945 L 119.485 153.955 Z  M 121.815 153.145 L 129.035 153.145 C 129.005 151.955 128.695 150.905 128.115 150.005 C 127.535 149.105 126.685 148.655 125.555 148.655 C 124.565 148.655 123.725 148.985 123.035 149.645 C 122.345 150.305 121.935 151.475 121.805 153.145 L 121.815 153.145 Z " fill="rgb(0,0,0)"/><path d=" M 134.815 160.665 C 134.435 160.665 134.245 160.475 134.245 160.085 L 134.245 147.815 C 134.245 147.435 134.435 147.235 134.825 147.235 L 135.895 147.235 C 136.275 147.235 136.475 147.425 136.475 147.815 L 136.475 149.345 C 136.885 148.575 137.375 147.995 137.935 147.605 C 138.495 147.215 139.195 147.015 140.025 147.015 C 140.575 147.015 140.965 147.065 141.185 147.155 C 141.385 147.235 141.455 147.355 141.405 147.535 L 141.115 148.585 C 141.075 148.735 140.965 148.795 140.785 148.765 C 140.485 148.705 140.205 148.675 139.935 148.675 C 138.935 148.675 138.105 149.125 137.455 150.025 C 136.805 150.925 136.475 152.145 136.475 153.695 L 136.475 160.075 C 136.475 160.455 136.285 160.655 135.905 160.655 L 134.815 160.655 L 134.815 160.665 Z " fill="rgb(0,0,0)"/></g></g></g></svg>