<?xml version="1.0" encoding="UTF-8"?><svg xmlns="http://www.w3.org/2000/svg" width="121.19" height="163.55" xmlns:xlink="http://www.w3.org/1999/xlink" viewBox="0 0 121.19 163.55"><defs><linearGradient id="uuid-b94ceefb-55b7-42bb-b22f-028c83f86bda" x1="30.91" y1="14.74" x2="92.37" y2="76.2" gradientUnits="userSpaceOnUse"><stop offset="0" stop-color="#30bebf"/><stop offset=".5" stop-color="#53a8a9"/><stop offset=".6" stop-color="#4aa3a4"/><stop offset=".75" stop-color="#319899"/><stop offset=".95" stop-color="#0a8586"/><stop offset="1" stop-color="#008182"/></linearGradient></defs><g style="isolation:isolate;"><g id="uuid-7c2da7c4-8a1e-412f-8209-cb4ce55b8ff5"><polygon points="0 123.04 0 114.79 17.57 97.22 17.57 83.11 36.99 63.69 121.19 63.6 121.19 87.44 85.59 123.04 0 123.04" style="fill:#040404; stroke-width:0px;"/><polygon points="35.17 65.07 17.57 82.68 102.12 82.68 119.72 65.07 35.17 65.07" style="fill:#4c4c4c; stroke-width:0px;"/><rect x="17.57" y="82.68" width="84.55" height="21.33" style="fill:#e6e6e6; stroke-width:0px;"/><rect x="17.57" y="94.5" width="84.55" height="2.29" style="fill:#999; stroke-width:0px;"/><polygon points="102.12 104 102.12 82.68 119.72 65.07 119.72 86.4 102.12 104" style="fill:#666; stroke-width:0px;"/><rect x="23.37" y="87.58" width="7.79" height="4.14" style="fill:#22b501; stroke-width:0px;"/><polygon points="29.32 87.58 29.32 90.35 23.37 90.35 23.37 91.73 31.16 91.73 31.16 87.58 29.32 87.58" style="fill:#22b501; mix-blend-mode:multiply; stroke-width:0px;"/><rect x="76.94" y="87.58" width="22.97" height="4.14" style="fill:#585858; stroke-width:0px;"/><rect x="76.94" y="89.66" width="22.97" height="2.07" style="fill:#040404; stroke-width:0px;"/><polygon points="17.57 96.79 0 114.36 84.55 114.36 102.12 96.79 17.57 96.79" style="fill:#e6e6e6; stroke-width:0px;"/><rect y="114.36" width="84.55" height="7.21" style="fill:#999; stroke-width:0px;"/><polygon points="84.55 121.57 84.55 114.36 102.12 96.79 102.12 104 84.55 121.57" style="fill:#666; stroke-width:0px;"/><path d="m9.9,112.59c-.19,0-.38-.07-.52-.22-.29-.29-.29-.75,0-1.04l1.56-1.56c.29-.29.75-.29,1.04,0s.29.76,0,1.04l-1.56,1.56c-.14.14-.33.22-.52.22Zm3.65-3.65c-.19,0-.38-.07-.52-.22-.29-.29-.29-.75,0-1.04l1.57-1.57c.29-.29.75-.29,1.04,0s.29.76,0,1.04l-1.57,1.57c-.14.14-.33.22-.52.22Zm3.65-3.65c-.19,0-.38-.07-.52-.22-.29-.29-.29-.76,0-1.04l1.57-1.57c.29-.29.75-.29,1.04,0,.29.29.29.76,0,1.04l-1.57,1.57c-.14.14-.33.22-.52.22Zm3.65-3.65c-.19,0-.38-.07-.52-.22-.29-.29-.29-.76,0-1.04l1.43-1.43c.29-.29.76-.29,1.04,0s.29.75,0,1.04l-1.43,1.43c-.14.14-.33.22-.52.22Z" style="fill:#666; stroke-width:0px;"/><path d="m16.88,112.59c-.19,0-.38-.07-.52-.22-.29-.29-.29-.75,0-1.04l1.56-1.56c.29-.29.75-.29,1.04,0s.29.76,0,1.04l-1.56,1.56c-.14.14-.33.22-.52.22Zm3.65-3.65c-.19,0-.38-.07-.52-.22-.29-.29-.29-.75,0-1.04l1.57-1.57c.29-.29.75-.29,1.04,0,.29.29.29.76,0,1.04l-1.57,1.57c-.14.14-.33.22-.52.22Zm3.65-3.65c-.19,0-.38-.07-.52-.22-.29-.29-.29-.76,0-1.04l1.57-1.57c.29-.29.75-.29,1.04,0,.29.29.29.76,0,1.04l-1.57,1.57c-.14.14-.33.22-.52.22Zm3.65-3.65c-.19,0-.38-.07-.52-.22-.29-.29-.29-.76,0-1.04l1.43-1.43c.29-.29.76-.29,1.04,0s.29.75,0,1.04l-1.43,1.43c-.14.14-.33.22-.52.22Z" style="fill:#666; stroke-width:0px;"/><path d="m23.87,112.59c-.19,0-.38-.07-.52-.22-.29-.29-.29-.75,0-1.04l1.56-1.56c.29-.29.75-.29,1.04,0,.29.29.29.76,0,1.04l-1.56,1.56c-.14.14-.33.22-.52.22Zm3.65-3.65c-.19,0-.38-.07-.52-.22-.29-.29-.29-.75,0-1.04l1.57-1.57c.29-.29.75-.29,1.04,0,.29.29.29.76,0,1.04l-1.57,1.57c-.14.14-.33.22-.52.22Zm3.65-3.65c-.19,0-.38-.07-.52-.22-.29-.29-.29-.76,0-1.04l1.57-1.57c.29-.29.75-.29,1.04,0,.29.29.29.76,0,1.04l-1.57,1.57c-.14.14-.33.22-.52.22Zm3.65-3.65c-.19,0-.38-.07-.52-.22-.29-.29-.29-.76,0-1.04l1.43-1.43c.29-.29.75-.29,1.04,0,.29.29.29.75,0,1.04l-1.43,1.43c-.14.14-.33.22-.52.22Z" style="fill:#666; stroke-width:0px;"/><path d="m30.86,112.59c-.19,0-.38-.07-.52-.22-.29-.29-.29-.75,0-1.04l1.56-1.56c.29-.29.76-.29,1.04,0,.29.29.29.76,0,1.04l-1.56,1.56c-.14.14-.33.22-.52.22Zm3.65-3.65c-.19,0-.38-.07-.52-.22-.29-.29-.29-.75,0-1.04l1.57-1.57c.29-.29.76-.29,1.04,0,.29.29.29.76,0,1.04l-1.57,1.57c-.14.14-.33.22-.52.22Zm3.65-3.65c-.19,0-.38-.07-.52-.22-.29-.29-.29-.76,0-1.04l1.57-1.57c.29-.29.76-.29,1.04,0,.29.29.29.76,0,1.04l-1.57,1.57c-.14.14-.33.22-.52.22Zm3.65-3.65c-.19,0-.38-.07-.52-.22-.29-.29-.29-.76,0-1.04l1.43-1.43c.29-.29.75-.29,1.04,0,.29.29.29.75,0,1.04l-1.43,1.43c-.14.14-.33.22-.52.22Z" style="fill:#666; stroke-width:0px;"/><path d="m37.84,112.59c-.19,0-.38-.07-.52-.22-.29-.29-.29-.75,0-1.04l1.56-1.56c.29-.29.76-.29,1.04,0,.29.29.29.76,0,1.04l-1.56,1.56c-.14.14-.33.22-.52.22Zm3.65-3.65c-.19,0-.38-.07-.52-.22-.29-.29-.29-.75,0-1.04l1.57-1.57c.29-.29.76-.29,1.04,0,.29.29.29.76,0,1.04l-1.57,1.57c-.14.14-.33.22-.52.22Zm3.65-3.65c-.19,0-.38-.07-.52-.22-.29-.29-.29-.76,0-1.04l1.57-1.57c.29-.29.75-.29,1.04,0,.29.29.29.76,0,1.04l-1.57,1.57c-.14.14-.33.22-.52.22Zm3.65-3.65c-.19,0-.38-.07-.52-.22-.29-.29-.29-.76,0-1.04l1.43-1.43c.29-.29.75-.29,1.04,0,.29.29.29.75,0,1.04l-1.43,1.43c-.14.14-.33.22-.52.22Z" style="fill:#666; stroke-width:0px;"/><path d="m44.83,112.59c-.19,0-.38-.07-.52-.22-.29-.29-.29-.75,0-1.04l1.56-1.56c.29-.29.76-.29,1.04,0,.29.29.29.76,0,1.04l-1.56,1.56c-.14.14-.33.22-.52.22Zm3.65-3.65c-.19,0-.38-.07-.52-.22-.29-.29-.29-.75,0-1.04l1.57-1.57c.29-.29.76-.29,1.04,0,.29.29.29.76,0,1.04l-1.57,1.57c-.14.14-.33.22-.52.22Zm3.65-3.65c-.19,0-.38-.07-.52-.22-.29-.29-.29-.76,0-1.04l1.57-1.57c.29-.29.76-.29,1.04,0,.29.29.29.76,0,1.04l-1.57,1.57c-.14.14-.33.22-.52.22Zm3.65-3.65c-.19,0-.38-.07-.52-.22-.29-.29-.29-.76,0-1.04l1.43-1.43c.29-.29.75-.29,1.04,0,.29.29.29.75,0,1.04l-1.43,1.43c-.14.14-.33.22-.52.22Z" style="fill:#666; stroke-width:0px;"/><path d="m51.82,112.59c-.19,0-.38-.07-.52-.22-.29-.29-.29-.75,0-1.04l1.56-1.56c.29-.29.76-.29,1.04,0,.29.29.29.76,0,1.04l-1.56,1.56c-.14.14-.33.22-.52.22Zm3.65-3.65c-.19,0-.38-.07-.52-.22-.29-.29-.29-.75,0-1.04l1.57-1.57c.29-.29.76-.29,1.04,0,.29.29.29.76,0,1.04l-1.57,1.57c-.14.14-.33.22-.52.22Zm3.65-3.65c-.19,0-.38-.07-.52-.22-.29-.29-.29-.76,0-1.04l1.57-1.57c.29-.29.76-.29,1.04,0,.29.29.29.76,0,1.04l-1.57,1.57c-.14.14-.33.22-.52.22Zm3.65-3.65c-.19,0-.38-.07-.52-.22-.29-.29-.29-.76,0-1.04l1.43-1.43c.29-.29.75-.29,1.04,0,.29.29.29.75,0,1.04l-1.43,1.43c-.14.14-.33.22-.52.22Z" style="fill:#666; stroke-width:0px;"/><path d="m58.81,112.59c-.19,0-.38-.07-.52-.22-.29-.29-.29-.75,0-1.04l1.56-1.56c.29-.29.76-.29,1.04,0,.29.29.29.76,0,1.04l-1.56,1.56c-.14.14-.33.22-.52.22Zm3.65-3.65c-.19,0-.38-.07-.52-.22-.29-.29-.29-.75,0-1.04l1.57-1.57c.29-.29.76-.29,1.04,0,.29.29.29.76,0,1.04l-1.57,1.57c-.14.14-.33.22-.52.22Zm3.65-3.65c-.19,0-.38-.07-.52-.22-.29-.29-.29-.76,0-1.04l1.57-1.57c.29-.29.76-.29,1.04,0,.29.29.29.76,0,1.04l-1.57,1.57c-.14.14-.33.22-.52.22Zm3.65-3.65c-.19,0-.38-.07-.52-.22-.29-.29-.29-.76,0-1.04l1.43-1.43c.29-.29.75-.29,1.04,0,.29.29.29.75,0,1.04l-1.43,1.43c-.14.14-.33.22-.52.22Z" style="fill:#666; stroke-width:0px;"/><path d="m65.79,112.59c-.19,0-.38-.07-.52-.22-.29-.29-.29-.75,0-1.04l1.56-1.56c.29-.29.76-.29,1.04,0,.29.29.29.76,0,1.04l-1.56,1.56c-.14.14-.33.22-.52.22Zm3.65-3.65c-.19,0-.38-.07-.52-.22-.29-.29-.29-.75,0-1.04l1.57-1.57c.29-.29.75-.29,1.04,0,.29.29.29.76,0,1.04l-1.57,1.57c-.14.14-.33.22-.52.22Zm3.65-3.65c-.19,0-.38-.07-.52-.22-.29-.29-.29-.76,0-1.04l1.57-1.57c.29-.29.76-.29,1.04,0,.29.29.29.76,0,1.04l-1.57,1.57c-.14.14-.33.22-.52.22Zm3.65-3.65c-.19,0-.38-.07-.52-.22-.29-.29-.29-.76,0-1.04l1.43-1.43c.29-.29.75-.29,1.04,0,.29.29.29.75,0,1.04l-1.43,1.43c-.14.14-.33.22-.52.22Z" style="fill:#666; stroke-width:0px;"/><path d="m72.78,112.59c-.19,0-.38-.07-.52-.22-.29-.29-.29-.75,0-1.04l1.56-1.56c.29-.29.75-.29,1.04,0,.29.29.29.76,0,1.04l-1.56,1.56c-.14.14-.33.22-.52.22Zm3.65-3.65c-.19,0-.38-.07-.52-.22-.29-.29-.29-.75,0-1.04l1.57-1.57c.29-.29.75-.29,1.04,0,.29.29.29.76,0,1.04l-1.57,1.57c-.14.14-.33.22-.52.22Zm3.65-3.65c-.19,0-.38-.07-.52-.22-.29-.29-.29-.76,0-1.04l1.57-1.57c.29-.29.75-.29,1.04,0,.29.29.29.76,0,1.04l-1.57,1.57c-.14.14-.33.22-.52.22Zm3.65-3.65c-.19,0-.38-.07-.52-.22-.29-.29-.29-.76,0-1.04l1.43-1.43c.29-.29.75-.29,1.04,0,.29.29.29.75,0,1.04l-1.43,1.43c-.14.14-.33.22-.52.22Z" style="fill:#666; stroke-width:0px;"/><path d="m79.77,112.59c-.19,0-.38-.07-.52-.22-.29-.29-.29-.75,0-1.04l1.56-1.56c.29-.29.75-.29,1.04,0,.29.29.29.76,0,1.04l-1.56,1.56c-.14.14-.33.22-.52.22Zm3.65-3.65c-.19,0-.38-.07-.52-.22-.29-.29-.29-.75,0-1.04l1.57-1.57c.29-.29.75-.29,1.04,0,.29.29.29.76,0,1.04l-1.57,1.57c-.14.14-.33.22-.52.22Zm3.65-3.65c-.19,0-.38-.07-.52-.22-.29-.29-.29-.76,0-1.04l1.57-1.57c.29-.29.75-.29,1.04,0,.29.29.29.76,0,1.04l-1.57,1.57c-.14.14-.33.22-.52.22Zm3.65-3.65c-.19,0-.38-.07-.52-.22-.29-.29-.29-.76,0-1.04l1.43-1.43c.29-.29.75-.29,1.04,0s.29.75,0,1.04l-1.43,1.43c-.14.14-.33.22-.52.22Z" style="fill:#666; stroke-width:0px;"/><polygon points="23.37 80.56 23.37 12.3 31.95 3.72 38.39 0 115.86 0 115.86 65.64 100.95 80.56 23.37 80.56" style="fill:#040404; stroke-width:0px;"/><polygon points="23.37 11.87 23.37 79.08 28.58 73.87 94.7 17.07 99.9 11.87 23.37 11.87" style="fill:#f2f2f2; stroke-width:0px;"/><polygon points="99.9 11.87 99.9 79.08 23.37 79.08 26.99 75.47 28.58 73.87 94.7 17.07 96.29 15.48 99.9 11.87" style="fill:#e6e6e6; stroke-width:0px;"/><polygon points="28.58 73.87 28.58 17.07 26.99 15.48 26.99 75.47 28.58 73.87" style="fill:#4c4c4c; stroke-width:0px;"/><polygon points="28.58 17.07 26.99 15.48 96.29 15.48 94.7 17.07 28.58 17.07" style="fill:#4c4c4c; stroke-width:0px;"/><polygon points="28.58 73.87 26.99 75.47 96.29 75.47 94.7 73.87 28.58 73.87" style="fill:#f2f2f2; stroke-width:0px;"/><polygon points="94.7 17.07 94.7 73.87 96.29 75.47 96.29 15.48 94.7 17.07" style="fill:#f2f2f2; stroke-width:0px;"/><rect x="28.58" y="17.07" width="66.12" height="56.8" style="fill:url(#uuid-b94ceefb-55b7-42bb-b22f-028c83f86bda); stroke-width:0px;"/><rect x="53.14" y="32.29" width="30.4" height="18.18" style="fill:#e6e6e6; stroke-width:0px;"/><polygon points="53.14 32.29 53.14 41.73 54.95 41.73 54.95 34.1 81.72 34.1 81.72 48.66 69.79 48.66 69.79 50.47 83.53 50.47 83.53 32.29 53.14 32.29" style="fill:#0100be; stroke-width:0px;"/><rect x="54.04" y="33.19" width="28.59" height="2.31" style="fill:#0100be; stroke-width:0px;"/><path d="m70.14,58.66h-30.4v-18.18h30.4v18.18Zm-28.59-1.81h26.78v-14.56h-26.78v14.56Z" style="fill:#0100be; stroke-width:0px;"/><rect x="40.65" y="41.38" width="28.59" height="2.31" style="fill:#0100be; stroke-width:0px;"/><path d="m41.56,56.85h26.78v-14.56h-26.78v14.56Z" style="fill:#fff; stroke-width:0px;"/><polygon points="108.2 3.57 31.67 3.57 23.37 11.87 99.9 11.87 108.2 3.57" style="fill:#e6e6e6; stroke-width:0px;"/><polygon points="114.39 0 37.85 0 31.67 3.57 108.2 3.57 114.39 0" style="fill:#999; stroke-width:0px;"/><polygon points="108.2 70.79 114.39 64.6 114.39 0 108.2 3.57 108.2 70.79" style="fill:#666; stroke-width:0px;"/><polygon points="99.9 79.08 108.2 70.79 108.2 3.57 99.9 11.87 99.9 79.08" style="fill:#999; stroke-width:0px;"/><polygon points="84.55 115.25 0 115.25 0 114.36 84.4 114.36 101.75 96.64 101.75 83.04 17.57 83.04 17.57 82.31 102.49 82.31 102.49 96.94 84.55 115.25" style="fill:#f2f2f2; stroke-width:0px;"/><path d="m3.84,149.27c0-2.98.74-5.32,2.22-7.01,1.48-1.69,3.6-2.54,6.37-2.54,1.62,0,2.96.27,4.01.82,1.06.55,1.82,1.3,2.28,2.26.24.49.2.83-.11,1.02l-1.01.59c-.34.2-.64.03-.91-.49-.28-.54-.74-1.04-1.38-1.51-.64-.47-1.56-.7-2.75-.7-2.13,0-3.68.66-4.65,1.99-.97,1.33-1.45,3.18-1.45,5.57s.48,4.24,1.45,5.57c.97,1.32,2.52,1.99,4.65,1.99,1.23,0,2.21-.28,2.95-.84.74-.56,1.27-1.15,1.6-1.76.26-.49.57-.64.92-.45l1.06.6c.31.18.33.52.08,1.02-.5.98-1.32,1.8-2.45,2.45-1.13.65-2.56.98-4.28.98-2.77,0-4.89-.85-6.37-2.54-1.48-1.69-2.22-4.03-2.22-7.01Z" style="stroke-width:0px;"/><path d="m21.67,151.73c0-2,.53-3.66,1.59-4.97,1.06-1.31,2.61-1.96,4.66-1.96s3.6.65,4.66,1.96c1.06,1.31,1.59,2.96,1.59,4.97s-.53,3.66-1.59,4.97c-1.06,1.31-2.61,1.96-4.66,1.96s-3.6-.65-4.66-1.96-1.59-2.96-1.59-4.97Zm2.38,0c0,1.79.35,3.11,1.06,3.97.71.86,1.64,1.29,2.81,1.29s2.1-.43,2.81-1.29c.71-.86,1.06-2.19,1.06-3.97s-.35-3.11-1.06-3.97c-.71-.86-1.64-1.29-2.81-1.29s-2.1.43-2.81,1.29c-.71.86-1.06,2.19-1.06,3.97Z" style="stroke-width:0px;"/><path d="m37.64,158.44c-.38,0-.57-.19-.57-.58v-12.27c0-.38.19-.58.58-.58h1.07c.38,0,.58.19.58.58v1.02c.55-.61,1.15-1.07,1.79-1.37.64-.3,1.26-.45,1.85-.45,1.09,0,1.93.2,2.52.6.59.4.97.81,1.14,1.21h.05c.46-.51,1.05-.94,1.75-1.29.71-.35,1.46-.52,2.26-.52,1.34,0,2.35.44,3.03,1.31.68.87,1.02,2.07,1.02,3.58v8.17c0,.38-.19.58-.58.58h-1.1c-.38,0-.58-.19-.58-.58v-7.43c0-1.67-.2-2.75-.61-3.24-.41-.49-1.04-.74-1.89-.74s-1.53.36-2.09,1.09c-.56.73-.84,1.83-.84,3.29v7.02c0,.38-.19.58-.57.58h-1.1c-.38,0-.57-.19-.57-.58v-7.43c0-1.67-.21-2.75-.62-3.24-.41-.49-1.05-.74-1.9-.74s-1.54.33-2.11.99c-.56.66-.84,1.79-.84,3.39v7.02c0,.38-.19.58-.57.58h-1.09Z" style="stroke-width:0px;"/><path d="m59.06,163.55c-.36,0-.54-.19-.54-.57v-17.38c0-.38.19-.58.58-.58h1.07c.31,0,.46.19.46.58v1.02c.48-.56,1.01-1.01,1.61-1.33.6-.32,1.39-.49,2.39-.49,1.73,0,3.04.7,3.94,2.09.9,1.39,1.35,3.01,1.35,4.84s-.45,3.44-1.35,4.84c-.9,1.39-2.21,2.09-3.94,2.09-.99,0-1.79-.16-2.39-.49-.6-.32-1.13-.77-1.61-1.33h-.03c.02.26.03.52.03.78v5.36c0,.38-.18.57-.54.57h-1.03Zm1.57-10.35c0,1.28.31,2.23.93,2.86.62.63,1.4.94,2.34.94,1.32,0,2.26-.49,2.81-1.46.55-.97.83-2.24.83-3.81s-.28-2.84-.83-3.81c-.55-.97-1.49-1.46-2.81-1.46-.94,0-1.72.31-2.34.94-.62.63-.93,1.58-.93,2.86v2.94Z" style="stroke-width:0px;"/><path d="m72.8,153.76v-8.17c0-.38.19-.58.58-.58h1.1c.38,0,.58.19.58.58v7.55c0,1.67.28,2.73.83,3.18.55.45,1.24.67,2.06.67,1.08,0,1.91-.33,2.49-.99.58-.66.86-1.79.86-3.39v-7.02c0-.38.19-.58.57-.58h1.09c.38,0,.57.19.57.58v12.27c0,.38-.19.58-.57.58h-1.07c-.38,0-.57-.19-.57-.58v-1.02c-.56.61-1.16,1.07-1.81,1.37-.65.3-1.44.45-2.37.45-1.49,0-2.58-.44-3.27-1.31-.69-.87-1.04-2.07-1.04-3.58Z" style="stroke-width:0px;"/><path d="m86.48,146.71c-.38,0-.58-.15-.58-.45v-.79c0-.3.19-.45.58-.45h1.51v-1.15c0-.17.04-.33.13-.49l.89-1.62c.16-.3.29-.45.4-.45h.45c.26,0,.38.15.38.45v3.26h2.72c.38,0,.57.15.57.45v.79c0,.3-.19.45-.57.45h-2.72v8.14c0,.89.13,1.48.4,1.74.27.27.59.4.97.4.29,0,.64-.09,1.04-.26.4-.17.68-.32.84-.43.15-.12.27-.08.36.11l.42.98c.07.17.02.31-.15.41-.33.2-.82.39-1.46.57-.64.18-1.28.27-1.92.27-.89,0-1.57-.32-2.04-.96-.47-.64-.71-1.54-.71-2.71v-8.28h-1.51Z" style="stroke-width:0px;"/><path d="m96.08,151.73c0-2.11.53-3.8,1.58-5.05,1.06-1.25,2.57-1.88,4.54-1.88,1.64,0,2.99.57,4.07,1.72,1.08,1.15,1.62,2.98,1.62,5.49,0,.38-.18.58-.53.58h-8.96c.15,1.65.59,2.8,1.34,3.44.75.65,1.59.97,2.54.97,1,0,1.76-.17,2.29-.5.53-.33.92-.66,1.17-.99.27-.36.54-.43.79-.2l.75.65c.2.17.2.41,0,.7-.16.25-.62.64-1.39,1.18-.76.54-1.96.81-3.6.81-2.13,0-3.7-.63-4.71-1.88-1.01-1.25-1.51-2.93-1.51-5.05Zm2.33-.81h7.22c-.03-1.19-.34-2.24-.92-3.14-.58-.9-1.43-1.35-2.56-1.35-.99,0-1.83.33-2.52.99-.69.66-1.1,1.83-1.23,3.5Z" style="stroke-width:0px;"/><path d="m111.41,158.44c-.38,0-.57-.19-.57-.58v-12.27c0-.38.19-.58.58-.58h1.07c.38,0,.58.19.58.58v1.53c.41-.77.9-1.35,1.46-1.74.56-.39,1.26-.59,2.09-.59.55,0,.94.05,1.16.14.2.08.27.2.22.38l-.29,1.05c-.04.15-.15.21-.33.18-.3-.06-.58-.09-.85-.09-1,0-1.83.45-2.48,1.35-.65.9-.98,2.12-.98,3.67v6.38c0,.38-.19.58-.57.58h-1.09Z" style="stroke-width:0px;"/></g></g></svg>