<?xml version="1.0" encoding="UTF-8"?><svg id="uuid-3a90bee5-712f-4493-b507-4f1e8ae3eb87" xmlns="http://www.w3.org/2000/svg" width="116.53" height="169.5" viewBox="0 0 116.53 169.5"><path d="m58.26,116.53C26.14,116.53,0,90.39,0,58.26S26.14,0,58.26,0s58.26,26.14,58.26,58.26-26.14,58.26-58.26,58.26Zm0-70.12c-6.54,0-11.86,5.32-11.86,11.86s5.32,11.86,11.86,11.86,11.86-5.32,11.86-11.86-5.32-11.86-11.86-11.86Z" style="fill:#040404; stroke-width:0px;"/><path d="m58.26,1.48C26.9,1.48,1.48,26.9,1.48,58.26s25.42,56.79,56.79,56.79,56.79-25.42,56.79-56.79S89.63,1.48,58.26,1.48Zm0,68.03c-6.21,0-11.25-5.03-11.25-11.25s5.03-11.25,11.25-11.25,11.25,5.03,11.25,11.25-5.03,11.25-11.25,11.25Z" style="fill:#666; stroke-width:0px;"/><path d="m58.26,115.05C26.95,115.05,1.48,89.58,1.48,58.26S26.95,1.48,58.26,1.48s56.79,25.47,56.79,56.79-25.47,56.79-56.79,56.79Zm0-70.12c-7.35,0-13.34,5.98-13.34,13.34s5.98,13.34,13.34,13.34,13.34-5.98,13.34-13.34-5.98-13.34-13.34-13.34Z" style="fill:#f2f2f2; stroke-width:0px;"/><path d="m41.68,112.57c-1.75-.54-3.46-1.15-5.14-1.85.1-.23,17.09-41.26,16.63-40.14.39.16.79.31,1.21.43l-12.69,41.56Z" style="fill:#f4f353; stroke-width:0px;"/><path d="m47.03,113.93c3.63.73,7.39,1.12,11.23,1.12,0-1.06,0-44.94,0-43.45-.9,0-1.78-.09-2.64-.26l-8.6,42.59Z" style="fill:#18ffc5; stroke-width:0px;"/><path d="m48.85,67.7l-30.71,30.71c5.23,5.23,11.47,9.44,18.4,12.32l16.63-40.14c-1.63-.68-3.09-1.66-4.32-2.89Z" style="fill:#18ffc5; stroke-width:0px;"/><path d="m44.93,58.26c0-1.8.36-3.52,1.01-5.09L5.8,36.55c-2.78,6.69-4.32,14.03-4.32,21.71,0,0,0,.01,0,.02h43.45s0-.01,0-.02Z" style="fill:#c4c4c4; stroke-width:0px;"/><path d="m110.72,80.01l-40.14-16.63c-.68,1.63-1.67,3.09-2.9,4.32l30.71,30.71c5.23-5.23,9.44-11.47,12.32-18.4Z" style="fill:#c4c4c4; stroke-width:0px;"/><path d="m110.73,36.55c-1.44-3.47-3.21-6.76-5.28-9.85-2.07-3.08-4.43-5.95-7.04-8.57l-29.06,32.73,41.38-14.31Z" style="fill:#f4f353; stroke-width:0px;"/><path d="m70.58,63.38l40.14,16.63c2.79-6.7,4.33-14.03,4.34-21.73h-43.45c0,1.81-.37,3.53-1.02,5.1Z" style="fill:#18ffc5; stroke-width:0px;"/><path d="m11.08,26.7s-1.99,3.14-2.87,4.78l38.97,19.38c.24-.36-36.1-24.16-36.1-24.16Z" style="fill:#f4f353; stroke-width:0px;"/><path d="m49.79,47.97c-.34.28-.66.57-.97.88.86.86-30.53-30.53-30.71-30.71,1.31-1.31,2.68-2.55,4.11-3.73l27.57,33.56Z" style="fill:#c4c4c4; stroke-width:0px;"/><path d="m63.37,45.95L80,5.81c-6.7-2.79-14.04-4.33-21.74-4.33v43.45c1.81,0,3.53.37,5.11,1.02Z" style="fill:#18ffc5; stroke-width:0px;"/><polygon points="69.33 65.69 68.56 66.73 102.12 94.3 105.43 89.85 69.33 65.69" style="fill:#f2f2f2; stroke-width:0px;"/><path d="m18.84,123.16h6.41c1.41,0,2.58.13,3.53.39s1.7.83,2.26,1.7.83,1.85.83,2.92c0,1.73-.55,3.05-1.65,3.95s-2.7,1.35-4.78,1.35h-4.32v6.87h-2.27v-17.18Zm2.27,8.27h4.35c1.46,0,2.5-.27,3.12-.82s.93-1.34.93-2.37c0-.69-.17-1.3-.52-1.83s-.78-.87-1.31-1.01-1.29-.21-2.28-.21h-4.3v6.23Z" style="stroke-width:0px;"/><path d="m39.6,127.62c1.77,0,3.19.57,4.25,1.7s1.59,2.73,1.59,4.8-.53,3.66-1.59,4.8-2.47,1.71-4.25,1.71-3.18-.57-4.24-1.71-1.59-2.74-1.59-4.8.53-3.67,1.59-4.8,2.47-1.7,4.24-1.7Zm0,11.27c1.05,0,1.91-.4,2.57-1.2s.98-1.99.98-3.57-.33-2.78-.98-3.58-1.51-1.2-2.57-1.2-1.91.4-2.57,1.2-.98,1.99-.98,3.58.33,2.77.98,3.57,1.51,1.2,2.57,1.2Z" style="stroke-width:0px;"/><path d="m64.71,140.34h-2.21v-8.04c0-1.03-.15-1.77-.45-2.2s-.79-.66-1.49-.66c-1.07,0-2.12.66-3.15,1.99v8.91h-2.2v-8.04c0-1.03-.15-1.77-.45-2.2s-.8-.66-1.5-.66c-1.07,0-2.12.66-3.14,1.99v8.91h-2.21v-12.43h2.21v1.58c1.05-1.24,2.21-1.86,3.48-1.86,1.82,0,2.98.75,3.48,2.25.83-.98,1.53-1.6,2.11-1.86s1.14-.39,1.7-.39c2.55,0,3.82,1.53,3.82,4.58v8.13Z" style="stroke-width:0px;"/><path d="m84.7,140.34h-2.21v-8.04c0-1.03-.15-1.77-.45-2.2s-.79-.66-1.49-.66c-1.07,0-2.12.66-3.15,1.99v8.91h-2.2v-8.04c0-1.03-.15-1.77-.45-2.2s-.8-.66-1.5-.66c-1.07,0-2.12.66-3.14,1.99v8.91h-2.21v-12.43h2.21v1.58c1.05-1.24,2.21-1.86,3.48-1.86,1.82,0,2.98.75,3.48,2.25.83-.98,1.53-1.6,2.11-1.86s1.14-.39,1.7-.39c2.55,0,3.82,1.53,3.82,4.58v8.13Z" style="stroke-width:0px;"/><path d="m93.17,140.63c-1.83,0-3.3-.57-4.41-1.72s-1.66-2.74-1.66-4.79.54-3.62,1.61-4.78,2.48-1.73,4.21-1.73,3.19.57,4.25,1.7,1.59,2.73,1.59,4.8v.53h-9.36c.09,1.44.49,2.5,1.19,3.2s1.56,1.04,2.58,1.04c.77,0,1.47-.2,2.09-.59s.95-.96.98-1.68h2.29c-.17,1.28-.75,2.27-1.74,2.96s-2.19,1.04-3.62,1.04Zm3.26-7.71c-.18-1.2-.58-2.09-1.21-2.68s-1.39-.89-2.3-.89-1.64.29-2.27.88-1.04,1.49-1.21,2.69h6.98Z" style="stroke-width:0px;"/><path d="m12.75,146.16h6.41c1.41,0,2.58.13,3.53.39s1.7.83,2.26,1.7.83,1.85.83,2.92c0,1.73-.55,3.05-1.65,3.95s-2.7,1.35-4.78,1.35h-4.32v6.87h-2.27v-17.18Zm2.27,8.27h4.35c1.46,0,2.5-.27,3.12-.82s.93-1.34.93-2.37c0-.69-.17-1.3-.52-1.83s-.78-.87-1.31-1.01-1.29-.21-2.28-.21h-4.3v6.23Z" style="stroke-width:0px;"/><path d="m36.34,162.06c-1.12,1.05-2.57,1.57-4.35,1.57-1.23,0-2.25-.33-3.05-1s-1.2-1.53-1.2-2.58c0-2.91,2.5-4.36,7.51-4.36h1.08c0-.89-.05-1.54-.14-1.94s-.36-.74-.79-1-1.11-.4-2.05-.4c-1.97,0-2.98.7-3.05,2.11h-2.2c.16-2.55,1.95-3.83,5.37-3.83,1.59,0,2.84.32,3.73.95s1.34,1.88,1.34,3.73v8.04h-2.2v-1.28Zm0-1.99v-2.75h-1.51c-3.2,0-4.8.87-4.8,2.61,0,.63.23,1.12.7,1.46s1.1.51,1.9.51c.73,0,1.43-.16,2.11-.49s1.21-.77,1.61-1.34Z" style="stroke-width:0px;"/><path d="m48.27,152.92c-.31-.09-.76-.14-1.35-.14-1.12,0-2.09.59-2.89,1.77v8.79h-2.21v-12.43h2.21v1.73c.93-1.34,2.01-2.02,3.23-2.02.31,0,.65.03,1.01.09v2.2Z" style="stroke-width:0px;"/><path d="m57.68,162.06c-1.12,1.05-2.57,1.57-4.35,1.57-1.23,0-2.25-.33-3.05-1s-1.2-1.53-1.2-2.58c0-2.91,2.5-4.36,7.51-4.36h1.08c0-.89-.05-1.54-.14-1.94s-.36-.74-.79-1-1.11-.4-2.05-.4c-1.97,0-2.98.7-3.05,2.11h-2.2c.16-2.55,1.95-3.83,5.37-3.83,1.59,0,2.84.32,3.73.95s1.34,1.88,1.34,3.73v8.04h-2.2v-1.28Zm0-1.99v-2.75h-1.51c-3.2,0-4.8.87-4.8,2.61,0,.63.23,1.12.7,1.46s1.1.51,1.9.51c.73,0,1.43-.16,2.11-.49s1.21-.77,1.61-1.34Z" style="stroke-width:0px;"/><path d="m71.03,161.85c-.98,1.19-2.17,1.78-3.55,1.78-1.62,0-2.88-.58-3.77-1.73s-1.34-2.71-1.34-4.68.5-3.64,1.49-4.82,2.25-1.78,3.76-1.78c1.34,0,2.48.41,3.41,1.24v-5.71h2.2v17.18h-2.2v-1.49Zm0-2.09v-5.91c-.95-1.01-2.04-1.51-3.27-1.51-.95,0-1.7.41-2.27,1.22s-.85,2.03-.85,3.65c0,1.53.27,2.69.8,3.49s1.28,1.19,2.22,1.19c1.23,0,2.36-.71,3.36-2.13Z" style="stroke-width:0px;"/><path d="m78.72,148.55h-2.21v-2.39h2.21v2.39Zm0,14.79h-2.21v-12.43h2.21v12.43Z" style="stroke-width:0px;"/><path d="m86.42,163.63c-3.4,0-5.18-1.34-5.33-4.01h2.21c.02,1.52,1.05,2.27,3.09,2.27.91,0,1.61-.19,2.09-.57s.72-.85.72-1.42-.23-.96-.7-1.19-1.44-.53-2.9-.9-2.54-.78-3.21-1.23-1.01-1.25-1.01-2.39c0-1.03.42-1.88,1.26-2.56s1.96-1.01,3.37-1.01c3.26,0,4.92,1.16,4.99,3.48h-2.2c-.08-1.17-.96-1.76-2.64-1.76-.74,0-1.36.14-1.85.42s-.73.69-.73,1.23c0,.48.19.83.56,1.05s1.31.5,2.82.87,2.62.79,3.35,1.27,1.1,1.32,1.1,2.51-.45,2.07-1.35,2.82-2.12,1.12-3.64,1.12Z" style="stroke-width:0px;"/><path d="m99.26,163.63c-1.83,0-3.3-.57-4.41-1.72s-1.66-2.74-1.66-4.79.54-3.62,1.61-4.78,2.48-1.73,4.21-1.73,3.19.57,4.25,1.7,1.59,2.73,1.59,4.8v.53h-9.36c.09,1.44.49,2.5,1.19,3.2s1.56,1.04,2.58,1.04c.77,0,1.47-.2,2.09-.59s.95-.96.98-1.68h2.29c-.17,1.28-.75,2.27-1.74,2.96s-2.19,1.04-3.62,1.04Zm3.26-7.71c-.18-1.2-.58-2.09-1.21-2.68s-1.39-.89-2.3-.89-1.64.29-2.27.88-1.04,1.49-1.21,2.69h6.98Z" style="stroke-width:0px;"/></svg>