<?xml version="1.0" encoding="UTF-8" standalone="no"?><!-- Generator: Gravit.io --><svg xmlns="http://www.w3.org/2000/svg" xmlns:xlink="http://www.w3.org/1999/xlink" style="isolation:isolate" viewBox="0 0 168 168" width="168pt" height="168pt"><defs><clipPath id="_clipPath_XYhtJMGfZugxxT8Xs6vGFLGKFHWcY0Dn"><rect width="168" height="168"/></clipPath></defs><g clip-path="url(#_clipPath_XYhtJMGfZugxxT8Xs6vGFLGKFHWcY0Dn)"><g><path d=" M 84 118.715 C 51.88 118.715 25.74 92.575 25.74 60.445 C 25.74 28.315 51.88 2.185 84 2.185 C 116.12 2.185 142.26 28.325 142.26 60.445 C 142.26 92.565 116.12 118.705 84 118.705 L 84 118.715 Z  M 84 48.595 C 77.46 48.595 72.14 53.915 72.14 60.455 C 72.14 66.995 77.46 72.315 84 72.315 C 90.54 72.315 95.86 66.995 95.86 60.455 C 95.86 53.915 90.54 48.595 84 48.595 Z " fill="rgb(4,4,4)"/><path d=" M 84 3.665 C 52.64 3.665 27.22 29.085 27.22 60.445 C 27.22 91.805 52.64 117.235 84.01 117.235 C 115.38 117.235 140.8 91.815 140.8 60.445 C 140.8 29.075 115.37 3.665 84 3.665 Z  M 84 71.695 C 77.79 71.695 72.75 66.665 72.75 60.445 C 72.75 54.225 77.78 49.195 84 49.195 C 90.22 49.195 95.25 54.225 95.25 60.445 C 95.25 66.665 90.22 71.695 84 71.695 Z " fill="rgb(102,102,102)"/><path d=" M 84 117.235 C 52.69 117.235 27.22 91.765 27.22 60.445 C 27.22 29.125 52.69 3.665 84 3.665 C 115.31 3.665 140.79 29.135 140.79 60.455 C 140.79 91.775 115.32 117.245 84 117.245 L 84 117.235 Z  M 84 47.115 C 76.65 47.115 70.66 53.095 70.66 60.455 C 70.66 67.815 76.64 73.795 84 73.795 C 91.36 73.795 97.34 67.815 97.34 60.455 C 97.34 53.095 91.36 47.115 84 47.115 Z " fill="rgb(242,242,242)"/><path d=" M 67.42 114.755 C 65.67 114.215 63.96 113.605 62.28 112.905 C 62.38 112.675 79.37 71.645 78.91 72.765 C 79.3 72.925 79.7 73.075 80.12 73.195 L 67.43 114.755 L 67.42 114.755 Z " fill="rgb(244,243,83)"/><path d=" M 72.77 116.115 C 76.4 116.845 80.16 117.235 84 117.235 C 84 116.175 84 72.295 84 73.785 C 83.1 73.785 82.22 73.695 81.36 73.525 L 72.76 116.115 L 72.77 116.115 Z " fill="rgb(24,255,197)"/><path d=" M 74.59 69.885 L 43.88 100.595 C 49.11 105.825 55.35 110.035 62.28 112.915 L 78.91 72.775 C 77.28 72.095 75.82 71.115 74.59 69.885 L 74.59 69.885 Z " fill="rgb(24,255,197)"/><path d=" M 70.67 60.445 C 70.67 58.645 71.03 56.925 71.68 55.355 L 31.54 38.735 C 28.76 45.425 27.22 52.765 27.22 60.445 C 27.22 60.445 27.22 60.455 27.22 60.465 L 70.67 60.465 C 70.67 60.465 70.67 60.455 70.67 60.445 Z " fill="rgb(196,196,196)"/><path d=" M 136.46 82.195 L 96.32 65.565 C 95.64 67.195 94.65 68.655 93.42 69.885 L 124.13 100.595 C 129.36 95.365 133.57 89.125 136.45 82.195 L 136.46 82.195 Z " fill="rgb(196,196,196)"/><path d=" M 136.47 38.735 C 135.03 35.265 133.26 31.975 131.19 28.885 C 129.12 25.805 126.76 22.935 124.15 20.315 L 95.09 53.045 L 136.47 38.735 L 136.47 38.735 Z " fill="rgb(244,243,83)"/><path d=" M 96.32 65.565 L 136.46 82.195 C 139.25 75.495 140.79 68.165 140.8 60.465 L 97.35 60.465 C 97.35 62.275 96.98 63.995 96.33 65.565 L 96.32 65.565 Z " fill="rgb(24,255,197)"/><path d=" M 36.82 28.885 C 36.82 28.885 34.83 32.025 33.95 33.665 L 72.92 53.045 C 73.16 52.685 36.82 28.885 36.82 28.885 Z " fill="rgb(244,243,83)"/><path d=" M 75.53 50.155 C 75.19 50.435 74.87 50.725 74.56 51.035 C 75.42 51.895 44.03 20.505 43.85 20.325 C 45.16 19.015 46.53 17.775 47.96 16.595 L 75.53 50.155 Z " fill="rgb(196,196,196)"/><path d=" M 89.11 48.135 L 105.74 7.995 C 99.04 5.205 91.7 3.665 84 3.665 L 84 47.115 C 85.81 47.115 87.53 47.485 89.11 48.135 Z " fill="rgb(24,255,197)"/><path d=" M 95.07 67.875 L 94.3 68.915 L 127.86 96.485 L 131.17 92.035 L 95.07 67.875 L 95.07 67.875 Z " fill="rgb(242,242,242)"/><path d=" M 44.58 125.345 L 50.99 125.345 C 52.4 125.345 53.57 125.475 54.52 125.735 C 55.47 125.995 56.22 126.565 56.78 127.435 C 57.34 128.305 57.61 129.285 57.61 130.355 C 57.61 132.085 57.06 133.405 55.96 134.305 C 54.86 135.205 53.26 135.655 51.18 135.655 L 46.86 135.655 L 46.86 142.525 L 44.59 142.525 L 44.59 125.345 L 44.58 125.345 Z  M 46.85 133.615 L 51.2 133.615 C 52.66 133.615 53.7 133.345 54.32 132.795 C 54.94 132.245 55.25 131.455 55.25 130.425 C 55.25 129.735 55.08 129.125 54.73 128.595 C 54.38 128.065 53.95 127.725 53.42 127.585 C 52.89 127.445 52.13 127.375 51.14 127.375 L 46.84 127.375 L 46.84 133.605 L 46.85 133.615 Z " fill="rgb(0,0,0)"/><path d=" M 65.34 129.805 C 67.11 129.805 68.53 130.375 69.59 131.505 C 70.65 132.635 71.18 134.235 71.18 136.305 C 71.18 138.375 70.65 139.965 69.59 141.105 C 68.53 142.245 67.12 142.815 65.34 142.815 C 63.56 142.815 62.16 142.245 61.1 141.105 C 60.04 139.965 59.51 138.365 59.51 136.305 C 59.51 134.245 60.04 132.635 61.1 131.505 C 62.16 130.375 63.57 129.805 65.34 129.805 L 65.34 129.805 Z  M 65.34 141.075 C 66.39 141.075 67.25 140.675 67.91 139.875 C 68.57 139.075 68.89 137.885 68.89 136.305 C 68.89 134.725 68.56 133.525 67.91 132.725 C 67.26 131.925 66.4 131.525 65.34 131.525 C 64.28 131.525 63.43 131.925 62.77 132.725 C 62.11 133.525 61.79 134.715 61.79 136.305 C 61.79 137.895 62.12 139.075 62.77 139.875 C 63.42 140.675 64.28 141.075 65.34 141.075 Z " fill="rgb(0,0,0)"/><path d=" M 90.45 142.525 L 88.24 142.525 L 88.24 134.485 C 88.24 133.455 88.09 132.715 87.79 132.285 C 87.49 131.855 87 131.625 86.3 131.625 C 85.23 131.625 84.18 132.285 83.15 133.615 L 83.15 142.525 L 80.95 142.525 L 80.95 134.485 C 80.95 133.455 80.8 132.715 80.5 132.285 C 80.2 131.855 79.7 131.625 79 131.625 C 77.93 131.625 76.88 132.285 75.86 133.615 L 75.86 142.525 L 73.65 142.525 L 73.65 130.095 L 75.86 130.095 L 75.86 131.675 C 76.91 130.435 78.07 129.815 79.34 129.815 C 81.16 129.815 82.32 130.565 82.82 132.065 C 83.65 131.085 84.35 130.465 84.93 130.205 C 85.51 129.945 86.07 129.815 86.63 129.815 C 89.18 129.815 90.45 131.345 90.45 134.395 L 90.45 142.525 L 90.45 142.525 Z " fill="rgb(0,0,0)"/><path d=" M 110.44 142.525 L 108.23 142.525 L 108.23 134.485 C 108.23 133.455 108.08 132.715 107.78 132.285 C 107.48 131.855 106.99 131.625 106.29 131.625 C 105.22 131.625 104.17 132.285 103.14 133.615 L 103.14 142.525 L 100.94 142.525 L 100.94 134.485 C 100.94 133.455 100.79 132.715 100.49 132.285 C 100.19 131.855 99.69 131.625 98.99 131.625 C 97.92 131.625 96.87 132.285 95.85 133.615 L 95.85 142.525 L 93.64 142.525 L 93.64 130.095 L 95.85 130.095 L 95.85 131.675 C 96.9 130.435 98.06 129.815 99.33 129.815 C 101.15 129.815 102.31 130.565 102.81 132.065 C 103.64 131.085 104.34 130.465 104.92 130.205 C 105.5 129.945 106.06 129.815 106.62 129.815 C 109.17 129.815 110.44 131.345 110.44 134.395 L 110.44 142.525 L 110.44 142.525 Z " fill="rgb(0,0,0)"/><path d=" M 118.91 142.815 C 117.08 142.815 115.61 142.245 114.5 141.095 C 113.39 139.945 112.84 138.355 112.84 136.305 C 112.84 134.255 113.38 132.685 114.45 131.525 C 115.52 130.365 116.93 129.795 118.66 129.795 C 120.39 129.795 121.85 130.365 122.91 131.495 C 123.97 132.625 124.5 134.225 124.5 136.295 L 124.5 136.825 L 115.14 136.825 C 115.23 138.265 115.63 139.325 116.33 140.025 C 117.03 140.725 117.89 141.065 118.91 141.065 C 119.68 141.065 120.38 140.865 121 140.475 C 121.62 140.085 121.95 139.515 121.98 138.795 L 124.27 138.795 C 124.1 140.075 123.52 141.065 122.53 141.755 C 121.54 142.445 120.34 142.795 118.91 142.795 L 118.91 142.815 Z  M 122.17 135.105 C 121.99 133.905 121.59 133.015 120.96 132.425 C 120.33 131.835 119.57 131.535 118.66 131.535 C 117.75 131.535 117.02 131.825 116.39 132.415 C 115.76 133.005 115.35 133.905 115.18 135.105 L 122.16 135.105 L 122.17 135.105 Z " fill="rgb(0,0,0)"/><path d=" M 38.49 148.345 L 44.9 148.345 C 46.31 148.345 47.48 148.475 48.43 148.735 C 49.38 148.995 50.13 149.565 50.69 150.435 C 51.25 151.305 51.52 152.285 51.52 153.355 C 51.52 155.085 50.97 156.405 49.87 157.305 C 48.77 158.205 47.17 158.655 45.09 158.655 L 40.77 158.655 L 40.77 165.525 L 38.5 165.525 L 38.5 148.345 L 38.49 148.345 Z  M 40.76 156.615 L 45.11 156.615 C 46.57 156.615 47.61 156.345 48.23 155.795 C 48.85 155.245 49.16 154.455 49.16 153.425 C 49.16 152.735 48.99 152.125 48.64 151.595 C 48.29 151.065 47.86 150.725 47.33 150.585 C 46.8 150.445 46.04 150.375 45.05 150.375 L 40.75 150.375 L 40.75 156.605 L 40.76 156.615 Z " fill="rgb(0,0,0)"/><path d=" M 62.08 164.245 C 60.96 165.295 59.51 165.815 57.73 165.815 C 56.5 165.815 55.48 165.485 54.68 164.815 C 53.88 164.145 53.48 163.285 53.48 162.235 C 53.48 159.325 55.98 157.875 60.99 157.875 L 62.07 157.875 C 62.07 156.985 62.02 156.335 61.93 155.935 C 61.84 155.535 61.57 155.195 61.14 154.935 C 60.71 154.675 60.03 154.535 59.09 154.535 C 57.12 154.535 56.11 155.235 56.04 156.645 L 53.84 156.645 C 54 154.095 55.79 152.815 59.21 152.815 C 60.8 152.815 62.05 153.135 62.94 153.765 C 63.83 154.395 64.28 155.645 64.28 157.495 L 64.28 165.535 L 62.08 165.535 L 62.08 164.255 L 62.08 164.245 Z  M 62.08 162.255 L 62.08 159.505 L 60.57 159.505 C 57.37 159.505 55.77 160.375 55.77 162.115 C 55.77 162.745 56 163.235 56.47 163.575 C 56.94 163.915 57.57 164.085 58.37 164.085 C 59.1 164.085 59.8 163.925 60.48 163.595 C 61.16 163.265 61.69 162.825 62.09 162.255 L 62.08 162.255 Z " fill="rgb(0,0,0)"/><path d=" M 74.01 155.105 C 73.7 155.015 73.25 154.965 72.66 154.965 C 71.54 154.965 70.57 155.555 69.77 156.735 L 69.77 165.525 L 67.56 165.525 L 67.56 153.095 L 69.77 153.095 L 69.77 154.825 C 70.7 153.485 71.78 152.805 73 152.805 C 73.31 152.805 73.65 152.835 74.01 152.895 L 74.01 155.095 L 74.01 155.105 Z " fill="rgb(0,0,0)"/><path d=" M 83.42 164.245 C 82.3 165.295 80.85 165.815 79.07 165.815 C 77.84 165.815 76.82 165.485 76.02 164.815 C 75.22 164.145 74.82 163.285 74.82 162.235 C 74.82 159.325 77.32 157.875 82.33 157.875 L 83.41 157.875 C 83.41 156.985 83.36 156.335 83.27 155.935 C 83.18 155.535 82.91 155.195 82.48 154.935 C 82.05 154.675 81.37 154.535 80.43 154.535 C 78.46 154.535 77.45 155.235 77.38 156.645 L 75.18 156.645 C 75.34 154.095 77.13 152.815 80.55 152.815 C 82.14 152.815 83.39 153.135 84.28 153.765 C 85.17 154.395 85.62 155.645 85.62 157.495 L 85.62 165.535 L 83.42 165.535 L 83.42 164.255 L 83.42 164.245 Z  M 83.42 162.255 L 83.42 159.505 L 81.91 159.505 C 78.71 159.505 77.11 160.375 77.11 162.115 C 77.11 162.745 77.34 163.235 77.81 163.575 C 78.28 163.915 78.91 164.085 79.71 164.085 C 80.44 164.085 81.14 163.925 81.82 163.595 C 82.5 163.265 83.03 162.825 83.43 162.255 L 83.42 162.255 Z " fill="rgb(0,0,0)"/><path d=" M 96.77 164.035 C 95.79 165.225 94.6 165.815 93.22 165.815 C 91.6 165.815 90.34 165.235 89.45 164.085 C 88.56 162.935 88.11 161.375 88.11 159.405 C 88.11 157.435 88.61 155.765 89.6 154.585 C 90.59 153.405 91.85 152.805 93.36 152.805 C 94.7 152.805 95.84 153.215 96.77 154.045 L 96.77 148.335 L 98.97 148.335 L 98.97 165.515 L 96.77 165.515 L 96.77 164.025 L 96.77 164.035 Z  M 96.77 161.945 L 96.77 156.035 C 95.82 155.025 94.73 154.525 93.5 154.525 C 92.55 154.525 91.8 154.935 91.23 155.745 C 90.66 156.555 90.38 157.775 90.38 159.395 C 90.38 160.925 90.65 162.085 91.18 162.885 C 91.71 163.685 92.46 164.075 93.4 164.075 C 94.63 164.075 95.76 163.365 96.76 161.945 L 96.77 161.945 Z " fill="rgb(0,0,0)"/><path d=" M 104.46 150.735 L 102.25 150.735 L 102.25 148.345 L 104.46 148.345 L 104.46 150.735 Z  M 104.46 165.525 L 102.25 165.525 L 102.25 153.095 L 104.46 153.095 L 104.46 165.525 Z " fill="rgb(0,0,0)"/><path d=" M 112.16 165.815 C 108.76 165.815 106.98 164.475 106.83 161.805 L 109.04 161.805 C 109.06 163.325 110.09 164.075 112.13 164.075 C 113.04 164.075 113.74 163.885 114.22 163.505 C 114.7 163.125 114.94 162.655 114.94 162.085 C 114.94 161.515 114.71 161.125 114.24 160.895 C 113.77 160.665 112.8 160.365 111.34 159.995 C 109.88 159.625 108.8 159.215 108.13 158.765 C 107.46 158.315 107.12 157.515 107.12 156.375 C 107.12 155.345 107.54 154.495 108.38 153.815 C 109.22 153.135 110.34 152.805 111.75 152.805 C 115.01 152.805 116.67 153.965 116.74 156.285 L 114.54 156.285 C 114.46 155.115 113.58 154.525 111.9 154.525 C 111.16 154.525 110.54 154.665 110.05 154.945 C 109.56 155.225 109.32 155.635 109.32 156.175 C 109.32 156.655 109.51 157.005 109.88 157.225 C 110.25 157.445 111.19 157.725 112.7 158.095 C 114.21 158.465 115.32 158.885 116.05 159.365 C 116.78 159.845 117.15 160.685 117.15 161.875 C 117.15 163.065 116.7 163.945 115.8 164.695 C 114.9 165.445 113.68 165.815 112.16 165.815 L 112.16 165.815 Z " fill="rgb(0,0,0)"/><path d=" M 125 165.815 C 123.17 165.815 121.7 165.245 120.59 164.095 C 119.48 162.945 118.93 161.355 118.93 159.305 C 118.93 157.255 119.47 155.685 120.54 154.525 C 121.61 153.365 123.02 152.795 124.75 152.795 C 126.48 152.795 127.94 153.365 129 154.495 C 130.06 155.625 130.59 157.225 130.59 159.295 L 130.59 159.825 L 121.23 159.825 C 121.32 161.265 121.72 162.325 122.42 163.025 C 123.12 163.725 123.98 164.065 125 164.065 C 125.77 164.065 126.47 163.865 127.09 163.475 C 127.71 163.085 128.04 162.515 128.07 161.795 L 130.36 161.795 C 130.19 163.075 129.61 164.065 128.62 164.755 C 127.63 165.445 126.43 165.795 125 165.795 L 125 165.815 Z  M 128.26 158.105 C 128.08 156.905 127.68 156.015 127.05 155.425 C 126.42 154.835 125.66 154.535 124.75 154.535 C 123.84 154.535 123.11 154.825 122.48 155.415 C 121.85 156.005 121.44 156.905 121.27 158.105 L 128.25 158.105 L 128.26 158.105 Z " fill="rgb(0,0,0)"/></g></g></svg>