<?xml version="1.0" encoding="UTF-8"?><svg id="uuid-23d342ae-5af9-4e8d-8b2d-1d6d37326dda" xmlns="http://www.w3.org/2000/svg" width="156.36" height="124.27" xmlns:xlink="http://www.w3.org/1999/xlink" viewBox="0 0 156.36 124.27"><defs><linearGradient id="uuid-984bcc8b-74a1-4c9b-9b38-652bd464d190" x1="14.24" y1="44.1" x2="142.69" y2="44.1" gradientUnits="userSpaceOnUse"><stop offset="0" stop-color="#f2f2f2"/><stop offset="1" stop-color="#fff"/></linearGradient></defs><path d="m23.97,124.05c-.43,0-.64-.23-.64-.7v-16.92c0-.47.21-.7.64-.7h4.72c3.61,0,6.12.8,7.53,2.4,1.41,1.6,2.12,3.84,2.12,6.74s-.7,5.15-2.12,6.77c-1.41,1.61-3.92,2.42-7.53,2.42h-4.72Zm1.81-2.1h2.79c2.81,0,4.71-.6,5.68-1.79.98-1.19,1.46-2.96,1.46-5.3s-.49-4.11-1.46-5.29c-.98-1.18-2.87-1.78-5.68-1.78h-2.79v14.16Z" style="stroke-width:0px;"/><path d="m40.6,117.34c0-2,.53-3.66,1.59-4.97,1.06-1.31,2.61-1.96,4.66-1.96s3.6.65,4.66,1.96c1.06,1.31,1.59,2.96,1.59,4.97s-.53,3.66-1.59,4.97c-1.06,1.31-2.61,1.96-4.66,1.96s-3.6-.65-4.66-1.96c-1.06-1.31-1.59-2.96-1.59-4.97Zm2.38,0c0,1.79.35,3.11,1.06,3.97.71.86,1.64,1.29,2.81,1.29s2.1-.43,2.81-1.29c.71-.86,1.06-2.19,1.06-3.97s-.35-3.11-1.06-3.97c-.71-.86-1.64-1.29-2.81-1.29s-2.1.43-2.81,1.29-1.06,2.19-1.06,3.97Z" style="stroke-width:0px;"/><path d="m55.27,117.34c0-2,.5-3.66,1.49-4.97.99-1.31,2.51-1.96,4.56-1.96,1.38,0,2.43.24,3.16.73.73.49,1.25.99,1.58,1.5.18.28.14.51-.12.68l-.81.52c-.26.18-.51.06-.77-.35-.25-.39-.59-.73-1.04-1.01-.45-.28-1.12-.42-2.01-.42-1.17,0-2.07.43-2.71,1.29s-.96,2.19-.96,3.97.32,3.11.96,3.97c.64.86,1.54,1.29,2.71,1.29.95,0,1.67-.18,2.17-.54.5-.36.87-.76,1.1-1.18.22-.4.47-.52.75-.35l.86.51c.26.15.29.38.11.69-.21.37-.7.88-1.45,1.54-.75.66-1.94.99-3.55.99-2.04,0-3.56-.65-4.56-1.96-.99-1.31-1.49-2.96-1.49-4.97Z" style="stroke-width:0px;"/><path d="m69.09,119.37v-8.17c0-.38.19-.58.58-.58h1.1c.38,0,.58.19.58.58v7.55c0,1.67.28,2.73.83,3.18.55.45,1.24.67,2.06.67,1.08,0,1.91-.33,2.49-.99.58-.66.86-1.79.86-3.39v-7.02c0-.38.19-.58.57-.58h1.09c.38,0,.57.19.57.58v12.27c0,.38-.19.58-.57.58h-1.07c-.38,0-.57-.19-.57-.58v-1.02c-.56.61-1.16,1.07-1.81,1.37-.65.3-1.44.45-2.37.45-1.49,0-2.58-.44-3.27-1.31-.69-.87-1.04-2.07-1.04-3.58Z" style="stroke-width:0px;"/><path d="m84,124.05c-.38,0-.57-.19-.57-.58v-12.27c0-.38.19-.58.58-.58h1.07c.38,0,.58.19.58.58v1.02c.55-.61,1.15-1.07,1.79-1.37.64-.3,1.26-.45,1.85-.45,1.09,0,1.93.2,2.52.6.59.4.97.81,1.14,1.21h.05c.46-.51,1.05-.94,1.75-1.29.71-.35,1.46-.52,2.26-.52,1.34,0,2.35.44,3.03,1.31.68.87,1.02,2.07,1.02,3.58v8.17c0,.38-.19.58-.58.58h-1.1c-.38,0-.58-.19-.58-.58v-7.43c0-1.67-.2-2.75-.61-3.24-.41-.49-1.04-.74-1.89-.74s-1.53.36-2.09,1.09c-.56.73-.84,1.83-.84,3.29v7.02c0,.38-.19.58-.57.58h-1.1c-.38,0-.57-.19-.57-.58v-7.43c0-1.67-.21-2.75-.62-3.24-.41-.49-1.05-.74-1.9-.74s-1.54.33-2.11.99c-.56.66-.84,1.79-.84,3.39v7.02c0,.38-.19.58-.57.58h-1.09Z" style="stroke-width:0px;"/><path d="m104.15,117.34c0-2.11.53-3.8,1.58-5.05,1.06-1.25,2.57-1.88,4.54-1.88,1.64,0,2.99.57,4.07,1.72,1.08,1.15,1.62,2.98,1.62,5.49,0,.38-.18.58-.53.58h-8.96c.15,1.65.59,2.8,1.34,3.44.75.65,1.59.97,2.54.97,1,0,1.76-.17,2.29-.5.53-.33.92-.66,1.17-.99.27-.36.54-.43.79-.2l.75.65c.2.17.2.41,0,.7-.16.25-.62.64-1.39,1.18-.76.54-1.96.81-3.6.81-2.13,0-3.7-.63-4.71-1.88-1.01-1.25-1.51-2.93-1.51-5.05Zm2.33-.81h7.22c-.03-1.19-.34-2.24-.92-3.14-.58-.9-1.43-1.35-2.56-1.35-.99,0-1.83.33-2.52.99-.69.66-1.1,1.83-1.23,3.5Z" style="stroke-width:0px;"/><path d="m119.48,124.05c-.38,0-.57-.19-.57-.58v-12.27c0-.38.19-.58.58-.58h1.07c.38,0,.58.19.58.58v1.02c.56-.61,1.16-1.07,1.8-1.37.64-.3,1.44-.45,2.4-.45,1.56,0,2.68.44,3.36,1.31.68.87,1.02,2.07,1.02,3.58v8.17c0,.38-.19.58-.58.58h-1.1c-.38,0-.58-.19-.58-.58v-7.55c0-1.67-.28-2.73-.83-3.18-.56-.45-1.26-.67-2.12-.67-1.11,0-1.95.33-2.53.99-.57.66-.86,1.79-.86,3.39v7.02c0,.38-.19.58-.57.58h-1.09Z" style="stroke-width:0px;"/><path d="m132.67,112.32c-.38,0-.58-.15-.58-.45v-.79c0-.3.19-.45.58-.45h1.51v-1.15c0-.17.04-.33.13-.49l.89-1.62c.16-.3.29-.45.4-.45h.45c.26,0,.38.15.38.45v3.26h2.72c.38,0,.57.15.57.45v.79c0,.3-.19.45-.57.45h-2.72v8.14c0,.89.13,1.48.4,1.74.27.27.59.4.97.4.29,0,.64-.09,1.04-.26.4-.17.68-.32.84-.43.15-.12.27-.08.36.11l.42.98c.07.17.02.31-.15.41-.33.2-.82.39-1.46.57-.64.18-1.28.27-1.92.27-.89,0-1.57-.32-2.04-.96-.47-.64-.71-1.54-.71-2.71v-8.28h-1.51Z" style="stroke-width:0px;"/><path d="m142.48,122.8c-.26-.25-.32-.48-.17-.69l.58-.81c.19-.26.46-.24.83.04.5.38,1.06.69,1.68.92.62.23,1.32.35,2.12.35.47,0,.89-.06,1.25-.17.37-.12.69-.33.97-.65.28-.32.42-.74.42-1.27,0-.31-.07-.6-.2-.87-.13-.27-.34-.49-.61-.66-.28-.17-.55-.3-.81-.39-.43-.16-.87-.3-1.3-.41-.43-.11-.99-.27-1.69-.5-.47-.14-.91-.35-1.33-.62s-.78-.63-1.09-1.09c-.31-.46-.47-1.09-.47-1.9s.25-1.54.75-2.13c.5-.6,1.13-1,1.89-1.22.76-.22,1.5-.33,2.21-.33,1.06,0,1.91.12,2.55.36s1.2.53,1.67.86c.27.2.31.42.12.68l-.58.77c-.18.25-.46.24-.83-.03-.32-.22-.76-.43-1.34-.63-.58-.2-1.09-.29-1.52-.29-.54,0-1,.06-1.38.18-.38.12-.69.32-.93.61-.24.29-.36.63-.36,1.02,0,.3.05.56.14.8.09.23.27.45.52.65.26.2.61.35,1.07.47.72.19,1.37.36,1.96.51.59.15,1.13.34,1.6.56.62.29,1.1.61,1.44.96.34.35.57.73.7,1.13.13.4.19.85.19,1.35,0,.91-.27,1.68-.81,2.31-.54.63-1.14,1.05-1.81,1.26-.66.21-1.47.31-2.4.31-1.27,0-2.36-.18-3.27-.54-.91-.36-1.49-.67-1.76-.93Z" style="stroke-width:0px;"/><polygon points="18.85 88.65 18.85 15.79 84.06 15.79 156.36 15.79 156.36 88.65 18.85 88.65" style="fill:#c4c4c4; stroke-width:0px;"/><polygon points="152.62 19.53 152.62 84.91 155.16 87.45 155.16 16.99 152.62 19.53" style="fill:#b8a83e; stroke-width:0px;"/><polygon points="20.05 16.99 20.05 87.45 21.32 86.18 21.32 18.26 20.05 16.99" style="fill:#f2f2f2; stroke-width:0px;"/><polygon points="22.6 19.53 21.32 18.26 21.32 86.18 22.6 84.91 22.6 19.53" style="fill:#ffffa6; stroke-width:0px;"/><polygon points="22.6 84.91 20.05 87.45 155.16 87.45 152.62 84.91 22.6 84.91" style="fill:#4c4c4c; stroke-width:0px;"/><polygon points="22.6 84.91 21.32 86.18 153.89 86.18 152.62 84.91 22.6 84.91" style="fill:#b8a83e; stroke-width:0px;"/><polygon points="152.62 19.53 152.62 84.91 155.16 87.45 155.16 16.99 152.62 19.53" style="fill:#4c4c4c; stroke-width:0px;"/><polygon points="153.89 18.26 152.62 19.53 152.62 84.91 153.89 86.18 153.89 18.26" style="fill:#b8a83e; stroke-width:0px;"/><rect x="22.6" y="19.53" width="130.02" height="65.38" style="fill:#f4f353; stroke-width:0px;"/><polygon points="21.32 18.26 22.6 19.53 152.62 19.53 153.89 18.26 21.32 18.26" style="fill:#ffffa6; stroke-width:0px;"/><polygon points="155.16 16.99 20.05 16.99 21.32 18.26 153.89 18.26 155.16 16.99" style="fill:#f2f2f2; stroke-width:0px;"/><polygon points="156.36 15.79 155.16 16.99 155.16 87.45 156.36 88.65 156.36 15.79" style="fill:#2a2927; stroke-width:0px;"/><polygon points="156.36 88.65 155.16 87.45 20.05 87.45 18.85 88.65 156.36 88.65" style="fill:#2a2927; stroke-width:0px;"/><polygon points="69.04 0 32.11 0 18.85 15.79 82.3 15.79 69.04 0" style="fill:#f4f353; stroke-width:0px;"/><polygon points="68.02 2.2 79.43 15.79 82.3 15.79 69.04 0 32.11 0 18.85 15.79 21.72 15.79 33.13 2.2 68.02 2.2" style="fill:#ffffa6; stroke-width:0px;"/><polygon points="32.11 0 18.85 15.79 20.05 15.79 32.39 1.1 32.11 0" style="fill:#c4c4c4; stroke-width:0px;"/><path d="m32.11,0l.28,1.1h36.37l.28-1.1h-36.93Z" style="fill:#c4c4c4; stroke-width:0px;"/><polygon points="69.04 0 68.76 1.1 81.09 15.79 82.3 15.79 69.04 0" style="fill:#c4c4c4; stroke-width:0px;"/><polygon points="142.69 14.14 142.69 74.07 145.23 76.61 145.23 11.6 142.69 14.14" style="fill:#b8a83e; stroke-width:0px;"/><polygon points="11.7 11.6 11.7 44.1 12.97 42.83 12.97 12.87 11.7 11.6" style="fill:#c4c4c4; stroke-width:0px;"/><polygon points="14.24 14.14 12.97 12.87 12.97 42.83 14.24 41.56 14.24 14.14" style="fill:#fff; stroke-width:0px;"/><polygon points="14.24 41.56 11.7 44.1 145.23 76.61 142.69 74.07 14.24 41.56" style="fill:#4c4c4c; stroke-width:0px;"/><polygon points="14.24 41.56 12.97 42.83 143.96 75.34 142.69 74.07 14.24 41.56" style="fill:#f2f2f2; stroke-width:0px;"/><polygon points="142.69 14.14 142.69 74.07 145.23 76.61 145.23 11.6 142.69 14.14" style="fill:#4c4c4c; stroke-width:0px;"/><polygon points="143.96 12.87 142.69 14.14 142.69 74.07 143.96 75.34 143.96 12.87" style="fill:#f2f2f2; stroke-width:0px;"/><polygon points="14.24 41.56 14.24 14.14 142.69 14.14 142.69 74.07 14.24 41.56" style="fill:url(#uuid-984bcc8b-74a1-4c9b-9b38-652bd464d190); stroke-width:0px;"/><polygon points="12.97 12.87 14.24 14.14 142.69 14.14 143.96 12.87 12.97 12.87" style="fill:#fff; stroke-width:0px;"/><polygon points="145.23 11.6 11.7 11.6 12.97 12.87 143.96 12.87 145.23 11.6" style="fill:#c4c4c4; stroke-width:0px;"/><polygon points="18.85 88.65 0 28.44 65.21 28.44 137.51 28.44 156.36 88.65 18.85 88.65" style="fill:#c4c4c4; stroke-width:0px;"/><polygon points="134.74 31.54 151.65 85.56 154.85 87.66 136.62 29.44 134.74 31.54" style="fill:#b8a83e; stroke-width:0px;"/><polygon points="1.52 29.44 19.74 87.66 20.68 86.61 3.12 30.49 1.52 29.44" style="fill:#f2f2f2; stroke-width:0px;"/><polygon points="4.72 31.54 3.12 30.49 20.68 86.61 21.63 85.56 4.72 31.54" style="fill:#ffffa6; stroke-width:0px;"/><polygon points="21.63 85.56 19.74 87.66 154.85 87.66 151.65 85.56 21.63 85.56" style="fill:#4c4c4c; stroke-width:0px;"/><polygon points="21.63 85.56 20.68 86.61 153.25 86.61 151.65 85.56 21.63 85.56" style="fill:#b8a83e; stroke-width:0px;"/><polygon points="134.74 31.54 151.65 85.56 154.85 87.66 136.62 29.44 134.74 31.54" style="fill:#4c4c4c; stroke-width:0px;"/><polygon points="135.68 30.49 134.74 31.54 151.65 85.56 153.25 86.61 135.68 30.49" style="fill:#b8a83e; stroke-width:0px;"/><polygon points="21.63 85.56 4.72 31.54 134.74 31.54 151.65 85.56 21.63 85.56" style="fill:#f4f353; stroke-width:0px;"/><polygon points="3.12 30.49 4.72 31.54 134.74 31.54 135.68 30.49 3.12 30.49" style="fill:#ffffa6; stroke-width:0px;"/><polygon points="136.62 29.44 1.52 29.44 3.12 30.49 135.68 30.49 136.62 29.44" style="fill:#f2f2f2; stroke-width:0px;"/><polygon points="137.51 28.44 136.62 29.44 154.85 87.66 156.36 88.65 137.51 28.44" style="fill:#2a2927; stroke-width:0px;"/><polygon points="156.36 88.65 154.85 87.66 19.74 87.66 18.85 88.65 156.36 88.65" style="fill:#2a2927; stroke-width:0px;"/></svg>