<?xml version="1.0" encoding="UTF-8" standalone="no"?><!-- Generator: Gravit.io --><svg xmlns="http://www.w3.org/2000/svg" xmlns:xlink="http://www.w3.org/1999/xlink" style="isolation:isolate" viewBox="0 0 168 168" width="168pt" height="168pt"><defs><clipPath id="_clipPath_uJCm90TngCYNNWvWJk1U4GG4ufwxcUoY"><rect width="168" height="168"/></clipPath></defs><g clip-path="url(#_clipPath_uJCm90TngCYNNWvWJk1U4GG4ufwxcUoY)"><g><path d=" M 29.79 145.915 C 29.36 145.915 29.15 145.685 29.15 145.215 L 29.15 128.295 C 29.15 127.825 29.36 127.595 29.79 127.595 L 34.51 127.595 C 38.12 127.595 40.63 128.395 42.04 129.995 C 43.45 131.595 44.16 133.835 44.16 136.735 C 44.16 139.635 43.46 141.885 42.04 143.505 C 40.63 145.115 38.12 145.925 34.51 145.925 L 29.79 145.925 L 29.79 145.915 Z  M 31.6 143.815 L 34.39 143.815 C 37.2 143.815 39.1 143.215 40.07 142.025 C 41.05 140.835 41.53 139.065 41.53 136.725 C 41.53 134.385 41.04 132.615 40.07 131.435 C 39.09 130.255 37.2 129.655 34.39 129.655 L 31.6 129.655 L 31.6 143.815 L 31.6 143.815 Z " fill="rgb(0,0,0)"/><path d=" M 46.42 139.205 C 46.42 137.205 46.95 135.545 48.01 134.235 C 49.07 132.925 50.62 132.275 52.67 132.275 C 54.72 132.275 56.27 132.925 57.33 134.235 C 58.39 135.545 58.92 137.195 58.92 139.205 C 58.92 141.215 58.39 142.865 57.33 144.175 C 56.27 145.485 54.72 146.135 52.67 146.135 C 50.62 146.135 49.07 145.485 48.01 144.175 C 46.95 142.865 46.42 141.215 46.42 139.205 Z  M 48.8 139.205 C 48.8 140.995 49.15 142.315 49.86 143.175 C 50.57 144.035 51.5 144.465 52.67 144.465 C 53.84 144.465 54.77 144.035 55.48 143.175 C 56.19 142.315 56.54 140.985 56.54 139.205 C 56.54 137.425 56.19 136.095 55.48 135.235 C 54.77 134.375 53.84 133.945 52.67 133.945 C 51.5 133.945 50.57 134.375 49.86 135.235 C 49.15 136.095 48.8 137.425 48.8 139.205 Z " fill="rgb(0,0,0)"/><path d=" M 61.09 139.205 C 61.09 137.205 61.59 135.545 62.58 134.235 C 63.57 132.925 65.09 132.275 67.14 132.275 C 68.52 132.275 69.57 132.515 70.3 133.005 C 71.03 133.495 71.55 133.995 71.88 134.505 C 72.06 134.785 72.02 135.015 71.76 135.185 L 70.95 135.705 C 70.69 135.885 70.44 135.765 70.18 135.355 C 69.93 134.965 69.59 134.625 69.14 134.345 C 68.69 134.065 68.02 133.925 67.13 133.925 C 65.96 133.925 65.06 134.355 64.42 135.215 C 63.78 136.075 63.46 137.405 63.46 139.185 C 63.46 140.965 63.78 142.295 64.42 143.155 C 65.06 144.015 65.96 144.445 67.13 144.445 C 68.08 144.445 68.8 144.265 69.3 143.905 C 69.8 143.545 70.17 143.145 70.4 142.725 C 70.62 142.325 70.87 142.205 71.15 142.375 L 72.01 142.885 C 72.27 143.035 72.3 143.265 72.12 143.575 C 71.91 143.945 71.42 144.455 70.67 145.115 C 69.92 145.775 68.73 146.105 67.12 146.105 C 65.08 146.105 63.56 145.455 62.56 144.145 C 61.57 142.835 61.07 141.185 61.07 139.175 L 61.09 139.205 Z " fill="rgb(0,0,0)"/><path d=" M 74.91 141.235 L 74.91 133.065 C 74.91 132.685 75.1 132.485 75.49 132.485 L 76.59 132.485 C 76.97 132.485 77.17 132.675 77.17 133.065 L 77.17 140.615 C 77.17 142.285 77.45 143.345 78 143.795 C 78.55 144.245 79.24 144.465 80.06 144.465 C 81.14 144.465 81.97 144.135 82.55 143.475 C 83.13 142.815 83.41 141.685 83.41 140.085 L 83.41 133.065 C 83.41 132.685 83.6 132.485 83.98 132.485 L 85.07 132.485 C 85.45 132.485 85.64 132.675 85.64 133.065 L 85.64 145.335 C 85.64 145.715 85.45 145.915 85.07 145.915 L 84 145.915 C 83.62 145.915 83.43 145.725 83.43 145.335 L 83.43 144.315 C 82.87 144.925 82.27 145.385 81.62 145.685 C 80.97 145.985 80.18 146.135 79.25 146.135 C 77.76 146.135 76.67 145.695 75.98 144.825 C 75.29 143.955 74.94 142.755 74.94 141.245 L 74.91 141.235 Z " fill="rgb(0,0,0)"/><path d=" M 89.82 145.915 C 89.44 145.915 89.25 145.725 89.25 145.335 L 89.25 133.065 C 89.25 132.685 89.44 132.485 89.83 132.485 L 90.9 132.485 C 91.28 132.485 91.48 132.675 91.48 133.065 L 91.48 134.085 C 92.03 133.475 92.63 133.015 93.27 132.715 C 93.91 132.415 94.53 132.265 95.12 132.265 C 96.21 132.265 97.05 132.465 97.64 132.865 C 98.23 133.265 98.61 133.675 98.78 134.075 L 98.83 134.075 C 99.29 133.565 99.88 133.135 100.58 132.785 C 101.29 132.435 102.04 132.265 102.84 132.265 C 104.18 132.265 105.19 132.705 105.87 133.575 C 106.55 134.445 106.89 135.645 106.89 137.155 L 106.89 145.325 C 106.89 145.705 106.7 145.905 106.31 145.905 L 105.21 145.905 C 104.83 145.905 104.63 145.715 104.63 145.325 L 104.63 137.895 C 104.63 136.225 104.43 135.145 104.02 134.655 C 103.61 134.165 102.98 133.915 102.13 133.915 C 101.28 133.915 100.6 134.275 100.04 135.005 C 99.48 135.735 99.2 136.835 99.2 138.295 L 99.2 145.315 C 99.2 145.695 99.01 145.895 98.63 145.895 L 97.53 145.895 C 97.15 145.895 96.96 145.705 96.96 145.315 L 96.96 137.885 C 96.96 136.215 96.75 135.135 96.34 134.645 C 95.93 134.155 95.29 133.905 94.44 133.905 C 93.59 133.905 92.9 134.235 92.33 134.895 C 91.77 135.555 91.49 136.685 91.49 138.285 L 91.49 145.305 C 91.49 145.685 91.3 145.885 90.92 145.885 L 89.83 145.885 L 89.82 145.915 Z " fill="rgb(0,0,0)"/><path d=" M 109.97 139.205 C 109.97 137.095 110.5 135.405 111.55 134.155 C 112.61 132.905 114.12 132.275 116.09 132.275 C 117.73 132.275 119.08 132.845 120.16 133.995 C 121.24 135.145 121.78 136.975 121.78 139.485 C 121.78 139.865 121.6 140.065 121.25 140.065 L 112.29 140.065 C 112.44 141.715 112.88 142.865 113.63 143.505 C 114.38 144.155 115.22 144.475 116.17 144.475 C 117.17 144.475 117.93 144.305 118.46 143.975 C 118.99 143.645 119.38 143.315 119.63 142.985 C 119.9 142.625 120.17 142.555 120.42 142.785 L 121.17 143.435 C 121.37 143.605 121.37 143.845 121.17 144.135 C 121.01 144.385 120.55 144.775 119.78 145.315 C 119.02 145.855 117.82 146.125 116.18 146.125 C 114.05 146.125 112.48 145.495 111.47 144.245 C 110.46 142.995 109.96 141.315 109.96 139.195 L 109.97 139.205 Z  M 112.3 138.395 L 119.52 138.395 C 119.49 137.205 119.18 136.155 118.6 135.255 C 118.02 134.355 117.17 133.905 116.04 133.905 C 115.05 133.905 114.21 134.235 113.52 134.895 C 112.83 135.555 112.42 136.725 112.29 138.395 L 112.3 138.395 Z " fill="rgb(0,0,0)"/><path d=" M 125.3 145.915 C 124.92 145.915 124.73 145.725 124.73 145.335 L 124.73 133.065 C 124.73 132.685 124.92 132.485 125.31 132.485 L 126.38 132.485 C 126.76 132.485 126.96 132.675 126.96 133.065 L 126.96 134.085 C 127.52 133.475 128.12 133.015 128.76 132.715 C 129.4 132.415 130.2 132.265 131.16 132.265 C 132.72 132.265 133.84 132.705 134.52 133.575 C 135.2 134.445 135.54 135.645 135.54 137.155 L 135.54 145.325 C 135.54 145.705 135.35 145.905 134.96 145.905 L 133.86 145.905 C 133.48 145.905 133.28 145.715 133.28 145.325 L 133.28 137.775 C 133.28 136.105 133 135.045 132.45 134.595 C 131.89 134.145 131.19 133.925 130.33 133.925 C 129.22 133.925 128.38 134.255 127.8 134.915 C 127.23 135.575 126.94 136.705 126.94 138.305 L 126.94 145.325 C 126.94 145.705 126.75 145.905 126.37 145.905 L 125.28 145.905 L 125.3 145.915 Z " fill="rgb(0,0,0)"/><path d=" M 138.49 134.185 C 138.11 134.185 137.91 134.035 137.91 133.735 L 137.91 132.945 C 137.91 132.645 138.1 132.495 138.49 132.495 L 140 132.495 L 140 131.345 C 140 131.175 140.04 131.015 140.13 130.855 L 141.02 129.235 C 141.18 128.935 141.31 128.785 141.42 128.785 L 141.87 128.785 C 142.13 128.785 142.25 128.935 142.25 129.235 L 142.25 132.495 L 144.97 132.495 C 145.35 132.495 145.54 132.645 145.54 132.945 L 145.54 133.735 C 145.54 134.035 145.35 134.185 144.97 134.185 L 142.25 134.185 L 142.25 142.325 C 142.25 143.215 142.38 143.805 142.65 144.065 C 142.92 144.335 143.24 144.465 143.62 144.465 C 143.91 144.465 144.26 144.375 144.66 144.205 C 145.06 144.035 145.34 143.885 145.5 143.775 C 145.65 143.655 145.77 143.695 145.86 143.885 L 146.28 144.865 C 146.35 145.035 146.3 145.175 146.13 145.275 C 145.8 145.475 145.31 145.665 144.67 145.845 C 144.03 146.025 143.39 146.115 142.75 146.115 C 141.86 146.115 141.18 145.795 140.71 145.155 C 140.24 144.515 140 143.615 140 142.445 L 140 134.165 L 138.49 134.165 L 138.49 134.185 Z " fill="rgb(0,0,0)"/><path d=" M 148.3 144.665 C 148.04 144.415 147.98 144.185 148.13 143.975 L 148.71 143.165 C 148.9 142.905 149.17 142.925 149.54 143.205 C 150.04 143.585 150.6 143.895 151.22 144.125 C 151.84 144.355 152.54 144.475 153.34 144.475 C 153.81 144.475 154.23 144.415 154.59 144.305 C 154.96 144.185 155.28 143.975 155.56 143.655 C 155.84 143.335 155.98 142.915 155.98 142.385 C 155.98 142.075 155.91 141.785 155.78 141.515 C 155.65 141.245 155.44 141.025 155.17 140.855 C 154.89 140.685 154.62 140.555 154.36 140.465 C 153.93 140.305 153.49 140.165 153.06 140.055 C 152.63 139.945 152.07 139.785 151.37 139.555 C 150.9 139.415 150.46 139.205 150.04 138.935 C 149.62 138.665 149.26 138.305 148.95 137.845 C 148.64 137.385 148.48 136.755 148.48 135.945 C 148.48 135.135 148.73 134.405 149.23 133.815 C 149.73 133.215 150.36 132.815 151.12 132.595 C 151.88 132.375 152.62 132.265 153.33 132.265 C 154.39 132.265 155.24 132.385 155.88 132.625 C 156.52 132.865 157.08 133.155 157.55 133.485 C 157.82 133.685 157.86 133.905 157.67 134.165 L 157.09 134.935 C 156.91 135.185 156.63 135.175 156.26 134.905 C 155.94 134.685 155.5 134.475 154.92 134.275 C 154.34 134.075 153.83 133.985 153.4 133.985 C 152.86 133.985 152.4 134.045 152.02 134.165 C 151.64 134.285 151.33 134.485 151.09 134.775 C 150.85 135.065 150.73 135.405 150.73 135.795 C 150.73 136.095 150.78 136.355 150.87 136.595 C 150.96 136.825 151.14 137.045 151.39 137.245 C 151.65 137.445 152 137.595 152.46 137.715 C 153.18 137.905 153.83 138.075 154.42 138.225 C 155.01 138.375 155.55 138.565 156.02 138.785 C 156.64 139.075 157.12 139.395 157.46 139.745 C 157.8 140.095 158.03 140.475 158.16 140.875 C 158.29 141.275 158.35 141.725 158.35 142.225 C 158.35 143.135 158.08 143.905 157.54 144.535 C 157 145.165 156.4 145.585 155.73 145.795 C 155.07 146.005 154.26 146.105 153.33 146.105 C 152.06 146.105 150.97 145.925 150.06 145.565 C 149.15 145.205 148.57 144.895 148.3 144.635 L 148.3 144.665 Z " fill="rgb(0,0,0)"/><path d=" M 24.67 110.515 L 24.67 37.655 L 89.88 37.655 L 162.18 37.655 L 162.18 110.515 L 24.67 110.515 L 24.67 110.515 Z " fill="rgb(196,196,196)"/><path d=" M 158.44 41.395 L 158.44 106.775 L 160.98 109.315 L 160.98 38.855 L 158.44 41.395 L 158.44 41.395 Z " fill="rgb(184,168,62)"/><path d=" M 25.87 38.855 L 25.87 109.315 L 27.14 108.045 L 27.14 40.125 L 25.87 38.855 L 25.87 38.855 Z " fill="rgb(242,242,242)"/><path d=" M 28.42 41.395 L 27.14 40.125 L 27.14 108.045 L 28.42 106.775 L 28.42 41.395 L 28.42 41.395 Z " fill="rgb(255,255,166)"/><path d=" M 28.42 106.775 L 25.87 109.315 L 160.98 109.315 L 158.44 106.775 L 28.42 106.775 L 28.42 106.775 Z " fill="rgb(76,76,76)"/><path d=" M 28.42 106.775 L 27.14 108.045 L 159.71 108.045 L 158.44 106.775 L 28.42 106.775 L 28.42 106.775 Z " fill="rgb(184,168,62)"/><path d=" M 158.44 41.395 L 158.44 106.775 L 160.98 109.315 L 160.98 38.855 L 158.44 41.395 L 158.44 41.395 Z " fill="rgb(76,76,76)"/><path d=" M 159.71 40.125 L 158.44 41.395 L 158.44 106.775 L 159.71 108.045 L 159.71 40.125 L 159.71 40.125 Z " fill="rgb(184,168,62)"/><rect x="28.42" y="41.395" width="130.02" height="65.38" transform="matrix(1,0,0,1,0,0)" fill="rgb(244,243,83)"/><path d=" M 27.14 40.125 L 28.42 41.395 L 158.44 41.395 L 159.71 40.125 L 27.14 40.125 L 27.14 40.125 Z " fill="rgb(255,255,166)"/><path d=" M 160.98 38.855 L 25.87 38.855 L 27.14 40.125 L 159.71 40.125 L 160.98 38.855 L 160.98 38.855 Z " fill="rgb(242,242,242)"/><path d=" M 162.18 37.655 L 160.98 38.855 L 160.98 109.315 L 162.18 110.515 L 162.18 37.655 L 162.18 37.655 Z " fill="rgb(42,41,39)"/><path d=" M 162.18 110.515 L 160.98 109.315 L 25.87 109.315 L 24.67 110.515 L 162.18 110.515 L 162.18 110.515 Z " fill="rgb(42,41,39)"/><path d=" M 74.86 21.865 L 37.93 21.865 L 24.67 37.655 L 88.12 37.655 L 74.86 21.865 L 74.86 21.865 Z " fill="rgb(244,243,83)"/><path d=" M 73.84 24.065 L 85.25 37.655 L 88.12 37.655 L 74.86 21.865 L 37.93 21.865 L 24.67 37.655 L 27.54 37.655 L 38.95 24.065 L 73.84 24.065 L 73.84 24.065 Z " fill="rgb(255,255,166)"/><path d=" M 37.93 21.865 L 24.67 37.655 L 25.87 37.655 L 38.21 22.965 L 37.93 21.865 L 37.93 21.865 Z " fill="rgb(196,196,196)"/><path d=" M 37.93 21.865 L 38.21 22.965 L 74.58 22.965 L 74.86 21.865 L 37.93 21.865 Z " fill="rgb(196,196,196)"/><path d=" M 74.86 21.865 L 74.58 22.965 L 86.91 37.655 L 88.12 37.655 L 74.86 21.865 L 74.86 21.865 Z " fill="rgb(196,196,196)"/><path d=" M 148.51 36.005 L 148.51 95.935 L 151.05 98.475 L 151.05 33.465 L 148.51 36.005 L 148.51 36.005 Z " fill="rgb(184,168,62)"/><path d=" M 17.52 33.465 L 17.52 65.965 L 18.79 64.695 L 18.79 34.735 L 17.52 33.465 L 17.52 33.465 Z " fill="rgb(196,196,196)"/><path d=" M 20.06 36.005 L 18.79 34.735 L 18.79 64.695 L 20.06 63.425 L 20.06 36.005 L 20.06 36.005 Z " fill="rgb(255,255,255)"/><path d=" M 20.06 63.425 L 17.52 65.965 L 151.05 98.475 L 148.51 95.935 L 20.06 63.425 L 20.06 63.425 Z " fill="rgb(76,76,76)"/><path d=" M 20.06 63.425 L 18.79 64.695 L 149.78 97.205 L 148.51 95.935 L 20.06 63.425 L 20.06 63.425 Z " fill="rgb(242,242,242)"/><path d=" M 148.51 36.005 L 148.51 95.935 L 151.05 98.475 L 151.05 33.465 L 148.51 36.005 L 148.51 36.005 Z " fill="rgb(76,76,76)"/><path d=" M 149.78 34.735 L 148.51 36.005 L 148.51 95.935 L 149.78 97.205 L 149.78 34.735 L 149.78 34.735 Z " fill="rgb(242,242,242)"/><linearGradient id="_lgradient_1" x1="0" y1="0.23306106573317775" x2="0.9999999999999999" y2="0.23306106573317775" gradientTransform="matrix(128.45,0,0,59.93,20.06,36.005)" gradientUnits="userSpaceOnUse"><stop offset="0%" stop-opacity="1" style="stop-color:rgb(242,242,242)"/><stop offset="100%" stop-opacity="1" style="stop-color:rgb(255,255,255)"/></linearGradient><path d=" M 20.06 63.425 L 20.06 36.005 L 148.51 36.005 L 148.51 95.935 L 20.06 63.425 L 20.06 63.425 Z " fill="url(#_lgradient_1)"/><path d=" M 18.79 34.735 L 20.06 36.005 L 148.51 36.005 L 149.78 34.735 L 18.79 34.735 L 18.79 34.735 Z " fill="rgb(255,255,255)"/><path d=" M 151.05 33.465 L 17.52 33.465 L 18.79 34.735 L 149.78 34.735 L 151.05 33.465 L 151.05 33.465 Z " fill="rgb(196,196,196)"/><path d=" M 24.67 110.515 L 5.82 50.305 L 71.03 50.305 L 143.33 50.305 L 162.18 110.515 L 24.67 110.515 L 24.67 110.515 Z " fill="rgb(196,196,196)"/><path d=" M 140.56 53.405 L 157.47 107.425 L 160.67 109.525 L 142.44 51.305 L 140.56 53.405 L 140.56 53.405 Z " fill="rgb(184,168,62)"/><path d=" M 7.34 51.305 L 25.56 109.525 L 26.5 108.475 L 8.94 52.355 L 7.34 51.305 L 7.34 51.305 Z " fill="rgb(242,242,242)"/><path d=" M 10.54 53.405 L 8.94 52.355 L 26.5 108.475 L 27.45 107.425 L 10.54 53.405 L 10.54 53.405 Z " fill="rgb(255,255,166)"/><path d=" M 27.45 107.425 L 25.56 109.525 L 160.67 109.525 L 157.47 107.425 L 27.45 107.425 L 27.45 107.425 Z " fill="rgb(76,76,76)"/><path d=" M 27.45 107.425 L 26.5 108.475 L 159.07 108.475 L 157.47 107.425 L 27.45 107.425 L 27.45 107.425 Z " fill="rgb(184,168,62)"/><path d=" M 140.56 53.405 L 157.47 107.425 L 160.67 109.525 L 142.44 51.305 L 140.56 53.405 L 140.56 53.405 Z " fill="rgb(76,76,76)"/><path d=" M 141.5 52.355 L 140.56 53.405 L 157.47 107.425 L 159.07 108.475 L 141.5 52.355 L 141.5 52.355 Z " fill="rgb(184,168,62)"/><path d=" M 27.45 107.425 L 10.54 53.405 L 140.56 53.405 L 157.47 107.425 L 27.45 107.425 L 27.45 107.425 Z " fill="rgb(244,243,83)"/><path d=" M 8.94 52.355 L 10.54 53.405 L 140.56 53.405 L 141.5 52.355 L 8.94 52.355 L 8.94 52.355 Z " fill="rgb(255,255,166)"/><path d=" M 142.44 51.305 L 7.34 51.305 L 8.94 52.355 L 141.5 52.355 L 142.44 51.305 L 142.44 51.305 Z " fill="rgb(242,242,242)"/><path d=" M 143.33 50.305 L 142.44 51.305 L 160.67 109.525 L 162.18 110.515 L 143.33 50.305 L 143.33 50.305 Z " fill="rgb(42,41,39)"/><path d=" M 162.18 110.515 L 160.67 109.525 L 25.56 109.525 L 24.67 110.515 L 162.18 110.515 L 162.18 110.515 Z " fill="rgb(42,41,39)"/></g></g></svg>