<?xml version="1.0" encoding="UTF-8" standalone="no"?><!-- Generator: Gravit.io --><svg xmlns="http://www.w3.org/2000/svg" xmlns:xlink="http://www.w3.org/1999/xlink" style="isolation:isolate" viewBox="0 0 168 168" width="168pt" height="168pt"><defs><clipPath id="_clipPath_NCiTo3OTLn9JAJ19OMi1fbdhfyiDlTrD"><rect width="168" height="168"/></clipPath></defs><g clip-path="url(#_clipPath_NCiTo3OTLn9JAJ19OMi1fbdhfyiDlTrD)"><g><path d=" M 15.245 110.52 L 15.245 37.66 L 80.455 37.66 L 152.755 37.66 L 152.755 110.52 L 15.245 110.52 L 15.245 110.52 Z " fill="rgb(196,196,196)"/><path d=" M 149.015 41.4 L 149.015 106.78 L 151.555 109.32 L 151.555 38.86 L 149.015 41.4 L 149.015 41.4 Z " fill="rgb(184,168,62)"/><path d=" M 16.445 38.86 L 16.445 109.32 L 17.725 108.05 L 17.725 40.13 L 16.445 38.86 L 16.445 38.86 Z " fill="rgb(242,242,242)"/><path d=" M 18.995 41.4 L 17.725 40.13 L 17.725 108.05 L 18.995 106.78 L 18.995 41.4 L 18.995 41.4 Z " fill="rgb(255,255,166)"/><path d=" M 18.995 106.78 L 16.445 109.32 L 151.555 109.32 L 149.015 106.78 L 18.995 106.78 L 18.995 106.78 Z " fill="rgb(76,76,76)"/><path d=" M 18.995 106.78 L 17.725 108.05 L 150.285 108.05 L 149.015 106.78 L 18.995 106.78 L 18.995 106.78 Z " fill="rgb(184,168,62)"/><path d=" M 149.015 41.4 L 149.015 106.78 L 151.555 109.32 L 151.555 38.86 L 149.015 41.4 L 149.015 41.4 Z " fill="rgb(76,76,76)"/><path d=" M 150.285 40.13 L 149.015 41.4 L 149.015 106.78 L 150.285 108.05 L 150.285 40.13 L 150.285 40.13 Z " fill="rgb(184,168,62)"/><rect x="18.995" y="41.4" width="130.02" height="65.38" transform="matrix(1,0,0,1,0,0)" fill="rgb(244,243,83)"/><path d=" M 17.725 40.13 L 18.995 41.4 L 149.015 41.4 L 150.285 40.13 L 17.725 40.13 L 17.725 40.13 Z " fill="rgb(255,255,166)"/><path d=" M 151.555 38.86 L 16.445 38.86 L 17.725 40.13 L 150.285 40.13 L 151.555 38.86 L 151.555 38.86 Z " fill="rgb(242,242,242)"/><path d=" M 152.755 37.66 L 151.555 38.86 L 151.555 109.32 L 152.755 110.52 L 152.755 37.66 L 152.755 37.66 Z " fill="rgb(42,41,39)"/><path d=" M 152.755 110.52 L 151.555 109.32 L 16.445 109.32 L 15.245 110.52 L 152.755 110.52 L 152.755 110.52 Z " fill="rgb(42,41,39)"/><path d=" M 65.435 21.87 L 28.505 21.87 L 15.245 37.66 L 78.695 37.66 L 65.435 21.87 L 65.435 21.87 Z " fill="rgb(244,243,83)"/><path d=" M 64.415 24.07 L 75.825 37.66 L 78.695 37.66 L 65.435 21.87 L 28.505 21.87 L 15.245 37.66 L 18.115 37.66 L 29.525 24.07 L 64.415 24.07 L 64.415 24.07 Z " fill="rgb(255,255,166)"/><path d=" M 28.505 21.87 L 15.245 37.66 L 16.445 37.66 L 28.785 22.97 L 28.505 21.87 L 28.505 21.87 Z " fill="rgb(196,196,196)"/><path d=" M 28.505 21.87 L 28.785 22.97 L 65.155 22.97 L 65.435 21.87 L 28.505 21.87 Z " fill="rgb(196,196,196)"/><path d=" M 65.435 21.87 L 65.155 22.97 L 77.485 37.66 L 78.695 37.66 L 65.435 21.87 L 65.435 21.87 Z " fill="rgb(196,196,196)"/><path d=" M 66.625 145.92 C 66.195 145.92 65.985 145.69 65.985 145.22 L 65.985 128.3 C 65.985 127.83 66.195 127.6 66.625 127.6 L 77.045 127.6 C 77.515 127.6 77.745 127.79 77.745 128.18 L 77.745 129.13 C 77.745 129.51 77.515 129.7 77.045 129.7 L 68.445 129.7 L 68.445 135.76 L 75.945 135.76 C 76.415 135.76 76.645 135.95 76.645 136.34 L 76.645 137.29 C 76.645 137.67 76.415 137.87 75.945 137.87 L 68.445 137.87 L 68.445 145.24 C 68.445 145.71 68.235 145.94 67.805 145.94 L 66.625 145.94 L 66.625 145.92 Z " fill="rgb(0,0,0)"/><path d=" M 81.105 130.07 C 80.725 130.07 80.525 129.88 80.525 129.49 L 80.525 128.39 C 80.525 128.01 80.715 127.81 81.105 127.81 L 82.205 127.81 C 82.585 127.81 82.785 128 82.785 128.39 L 82.785 129.49 C 82.785 129.87 82.595 130.07 82.205 130.07 L 81.105 130.07 Z  M 81.105 145.92 C 80.725 145.92 80.525 145.73 80.525 145.34 L 80.525 133.07 C 80.525 132.69 80.715 132.49 81.105 132.49 L 82.205 132.49 C 82.585 132.49 82.785 132.68 82.785 133.07 L 82.785 145.34 C 82.785 145.72 82.595 145.92 82.205 145.92 L 81.105 145.92 Z " fill="rgb(0,0,0)"/><path d=" M 86.985 145.92 C 86.605 145.92 86.405 145.73 86.405 145.34 L 86.405 129.39 C 86.405 129.22 86.445 129.06 86.535 128.9 L 87.425 127.28 C 87.585 126.98 87.715 126.83 87.825 126.83 L 88.275 126.83 C 88.535 126.83 88.655 126.98 88.655 127.28 L 88.655 145.34 C 88.655 145.72 88.465 145.92 88.075 145.92 L 86.975 145.92 L 86.985 145.92 Z " fill="rgb(0,0,0)"/><path d=" M 91.555 139.21 C 91.555 137.1 92.085 135.41 93.135 134.16 C 94.195 132.91 95.705 132.28 97.675 132.28 C 99.315 132.28 100.665 132.85 101.745 134 C 102.825 135.15 103.365 136.98 103.365 139.49 C 103.365 139.87 103.185 140.07 102.835 140.07 L 93.875 140.07 C 94.025 141.72 94.465 142.87 95.215 143.51 C 95.965 144.16 96.805 144.48 97.755 144.48 C 98.755 144.48 99.515 144.31 100.045 143.98 C 100.575 143.65 100.965 143.32 101.215 142.99 C 101.485 142.63 101.755 142.56 102.005 142.79 L 102.755 143.44 C 102.955 143.61 102.955 143.85 102.755 144.14 C 102.595 144.39 102.135 144.78 101.365 145.32 C 100.605 145.86 99.405 146.13 97.765 146.13 C 95.635 146.13 94.065 145.5 93.055 144.25 C 92.045 143 91.545 141.32 91.545 139.2 L 91.555 139.21 Z  M 93.885 138.4 L 101.105 138.4 C 101.075 137.21 100.765 136.16 100.185 135.26 C 99.605 134.36 98.755 133.91 97.625 133.91 C 96.635 133.91 95.795 134.24 95.105 134.9 C 94.415 135.56 94.005 136.73 93.875 138.4 L 93.885 138.4 Z " fill="rgb(0,0,0)"/></g></g></svg>