<?xml version="1.0" encoding="UTF-8"?><svg id="uuid-93b15bab-c368-456f-9317-3f004127e09b" xmlns="http://www.w3.org/2000/svg" width="137.51" height="124.27" viewBox="0 0 137.51 124.27"><polygon points="0 88.65 0 15.79 65.21 15.79 137.51 15.79 137.51 88.65 0 88.65" style="fill:#c4c4c4; stroke-width:0px;"/><polygon points="133.77 19.53 133.77 84.91 136.31 87.45 136.31 16.99 133.77 19.53" style="fill:#b8a83e; stroke-width:0px;"/><polygon points="1.2 16.99 1.2 87.45 2.48 86.18 2.48 18.26 1.2 16.99" style="fill:#f2f2f2; stroke-width:0px;"/><polygon points="3.75 19.53 2.48 18.26 2.48 86.18 3.75 84.91 3.75 19.53" style="fill:#ffffa6; stroke-width:0px;"/><polygon points="3.75 84.91 1.2 87.45 136.31 87.45 133.77 84.91 3.75 84.91" style="fill:#4c4c4c; stroke-width:0px;"/><polygon points="3.75 84.91 2.48 86.18 135.04 86.18 133.77 84.91 3.75 84.91" style="fill:#b8a83e; stroke-width:0px;"/><polygon points="133.77 19.53 133.77 84.91 136.31 87.45 136.31 16.99 133.77 19.53" style="fill:#4c4c4c; stroke-width:0px;"/><polygon points="135.04 18.26 133.77 19.53 133.77 84.91 135.04 86.18 135.04 18.26" style="fill:#b8a83e; stroke-width:0px;"/><rect x="3.75" y="19.53" width="130.02" height="65.38" style="fill:#f4f353; stroke-width:0px;"/><polygon points="2.48 18.26 3.75 19.53 133.77 19.53 135.04 18.26 2.48 18.26" style="fill:#ffffa6; stroke-width:0px;"/><polygon points="136.31 16.99 1.2 16.99 2.48 18.26 135.04 18.26 136.31 16.99" style="fill:#f2f2f2; stroke-width:0px;"/><polygon points="137.51 15.79 136.31 16.99 136.31 87.45 137.51 88.65 137.51 15.79" style="fill:#2a2927; stroke-width:0px;"/><polygon points="137.51 88.65 136.31 87.45 1.2 87.45 0 88.65 137.51 88.65" style="fill:#2a2927; stroke-width:0px;"/><polygon points="50.19 0 13.26 0 0 15.79 63.45 15.79 50.19 0" style="fill:#f4f353; stroke-width:0px;"/><polygon points="49.17 2.2 60.58 15.79 63.45 15.79 50.19 0 13.26 0 0 15.79 2.87 15.79 14.28 2.2 49.17 2.2" style="fill:#ffffa6; stroke-width:0px;"/><polygon points="13.26 0 0 15.79 1.2 15.79 13.54 1.1 13.26 0" style="fill:#c4c4c4; stroke-width:0px;"/><path d="m13.26,0l.28,1.1h36.37l.28-1.1H13.26Z" style="fill:#c4c4c4; stroke-width:0px;"/><polygon points="50.19 0 49.91 1.1 62.24 15.79 63.45 15.79 50.19 0" style="fill:#c4c4c4; stroke-width:0px;"/><path d="m51.38,124.05c-.43,0-.64-.23-.64-.7v-16.92c0-.47.21-.7.64-.7h10.42c.47,0,.7.19.7.58v.95c0,.38-.23.57-.7.57h-8.6v6.06h7.5c.47,0,.7.19.7.58v.95c0,.38-.23.58-.7.58h-7.5v7.37c0,.47-.21.7-.64.7h-1.18Z" style="stroke-width:0px;"/><path d="m65.86,108.2c-.38,0-.58-.19-.58-.58v-1.1c0-.38.19-.58.58-.58h1.1c.38,0,.58.19.58.58v1.1c0,.38-.19.58-.58.58h-1.1Zm0,15.85c-.38,0-.58-.19-.58-.58v-12.27c0-.38.19-.58.58-.58h1.1c.38,0,.58.19.58.58v12.27c0,.38-.19.58-.58.58h-1.1Z" style="stroke-width:0px;"/><path d="m71.74,124.05c-.38,0-.58-.19-.58-.58v-15.95c0-.17.04-.33.13-.49l.89-1.62c.16-.3.29-.45.4-.45h.45c.26,0,.38.15.38.45v18.06c0,.38-.19.58-.58.58h-1.1Z" style="stroke-width:0px;"/><path d="m76.31,117.34c0-2.11.53-3.8,1.58-5.05,1.06-1.25,2.57-1.88,4.54-1.88,1.64,0,2.99.57,4.07,1.72,1.08,1.15,1.62,2.98,1.62,5.49,0,.38-.18.58-.53.58h-8.96c.15,1.65.59,2.8,1.34,3.44.75.65,1.59.97,2.54.97,1,0,1.76-.17,2.29-.5.53-.33.92-.66,1.17-.99.27-.36.54-.43.79-.2l.75.65c.2.17.2.41,0,.7-.16.25-.62.64-1.39,1.18-.76.54-1.96.81-3.6.81-2.13,0-3.7-.63-4.71-1.88-1.01-1.25-1.51-2.93-1.51-5.05Zm2.33-.81h7.22c-.03-1.19-.34-2.24-.92-3.14-.58-.9-1.43-1.35-2.56-1.35-.99,0-1.83.33-2.52.99-.69.66-1.1,1.83-1.23,3.5Z" style="stroke-width:0px;"/></svg>